<svg xmlns="http://www.w3.org/2000/svg" xmlns:xlink="http://www.w3.org/1999/xlink" width="500" zoomAndPan="magnify" viewBox="0 0 375 374.999991" height="500" preserveAspectRatio="xMidYMid meet" version="1.0"><defs><clipPath id="4a78c1d2ca"><path d="M 252 66.328125 L 319 66.328125 L 319 147 L 252 147 Z M 252 66.328125 " clip-rule="nonzero"/></clipPath><clipPath id="8f2b5c4c08"><path d="M 305 270 L 325 270 L 325 308.578125 L 305 308.578125 Z M 305 270 " clip-rule="nonzero"/></clipPath></defs><path fill="#f2f2f2" d="M 128.921875 148.519531 L 154.296875 148.519531 L 154.296875 173.269531 L 128.921875 173.269531 Z M 154.367188 173.269531 L 179.742188 173.269531 L 179.742188 148.519531 L 154.386719 148.519531 Z M 103.476562 198.242188 L 128.851562 198.242188 L 128.851562 173.480469 L 103.460938 173.480469 Z M 154.367188 198.242188 L 179.742188 198.242188 L 179.742188 173.480469 L 154.378906 173.480469 Z M 179.8125 198.242188 L 205.1875 198.242188 L 205.1875 173.480469 L 179.839844 173.480469 Z M 103.425781 223.019531 L 103.425781 247.777344 L 128.800781 247.777344 L 128.800781 198.453125 L 103.453125 198.453125 Z M 128.871094 223.019531 L 128.871094 247.777344 L 154.289062 247.777344 L 154.289062 198.453125 L 128.914062 198.453125 Z M 179.761719 223.019531 L 179.761719 247.777344 L 205.136719 247.777344 L 205.136719 198.453125 L 179.832031 198.453125 Z M 205.207031 198.460938 L 205.207031 247.789062 L 230.582031 247.789062 L 230.582031 198.453125 Z M 77.996094 247.777344 L 103.363281 247.777344 L 103.363281 223.019531 L 77.996094 223.019531 Z M 77.996094 247.777344 " fill-opacity="1" fill-rule="nonzero"/><path fill="#f2c14e" d="M 103.363281 198.453125 L 103.363281 223.203125 L 77.996094 223.203125 L 77.996094 198.453125 Z M 154.378906 223.011719 L 154.378906 247.769531 L 179.742188 247.769531 L 179.742188 223.019531 Z M 128.933594 173.472656 L 128.933594 198.242188 L 154.289062 198.242188 L 154.289062 173.480469 Z M 128.933594 173.472656 " fill-opacity="1" fill-rule="nonzero"/><path fill="#f2c14e" d="M 139.015625 95.015625 L 139.015625 119.769531 L 113.664062 119.769531 L 113.664062 95.015625 Z M 78.566406 121.328125 L 81.550781 124.433594 L 78.796875 129.222656 L 74.496094 128.347656 C 72.371094 130.519531 69.835938 131.980469 66.890625 132.730469 L 65.660156 136.996094 L 60.140625 136.996094 L 58.703125 132.660156 C 55.835938 131.902344 53.363281 130.464844 51.289062 128.347656 L 46.988281 129.222656 L 44.234375 124.433594 L 47.21875 121.339844 C 46.816406 119.90625 46.613281 118.441406 46.613281 116.953125 C 46.609375 115.511719 46.796875 114.09375 47.175781 112.699219 L 44.113281 109.191406 L 46.917969 104.4375 L 51.253906 105.542969 C 53.363281 103.382812 55.878906 101.917969 58.800781 101.15625 L 60.027344 96.910156 L 65.554688 96.910156 L 66.941406 101.148438 C 69.875 101.902344 72.394531 103.363281 74.503906 105.535156 L 78.753906 104.445312 L 81.558594 109.199219 L 78.566406 112.566406 C 79.378906 115.492188 79.378906 118.414062 78.566406 121.339844 Z M 71.898438 116.867188 C 71.898438 116.269531 71.835938 115.683594 71.71875 115.101562 C 71.597656 114.519531 71.425781 113.953125 71.195312 113.40625 C 70.964844 112.855469 70.683594 112.335938 70.351562 111.84375 C 70.019531 111.351562 69.640625 110.894531 69.21875 110.476562 C 68.796875 110.058594 68.339844 109.683594 67.84375 109.355469 C 67.347656 109.027344 66.824219 108.75 66.273438 108.527344 C 65.722656 108.300781 65.15625 108.132812 64.574219 108.015625 C 63.992188 107.902344 63.402344 107.847656 62.808594 107.847656 C 62.210938 107.851562 61.625 107.910156 61.039062 108.027344 C 60.457031 108.144531 59.894531 108.320312 59.34375 108.546875 C 58.796875 108.777344 58.273438 109.058594 57.78125 109.390625 C 57.289062 109.722656 56.832031 110.097656 56.410156 110.519531 C 55.992188 110.941406 55.617188 111.398438 55.289062 111.890625 C 54.960938 112.386719 54.683594 112.910156 54.457031 113.460938 C 54.230469 114.007812 54.058594 114.574219 53.941406 115.15625 C 53.828125 115.742188 53.769531 116.328125 53.773438 116.925781 C 53.773438 117.519531 53.832031 118.105469 53.949219 118.691406 C 54.066406 119.273438 54.238281 119.839844 54.464844 120.386719 C 54.695312 120.933594 54.972656 121.457031 55.304688 121.949219 C 55.636719 122.445312 56.011719 122.902344 56.433594 123.320312 C 56.851562 123.742188 57.3125 124.117188 57.804688 124.445312 C 58.300781 124.777344 58.820312 125.054688 59.371094 125.28125 C 59.921875 125.507812 60.488281 125.679688 61.070312 125.796875 C 61.652344 125.910156 62.242188 125.96875 62.835938 125.96875 C 63.433594 125.96875 64.023438 125.910156 64.609375 125.792969 C 65.195312 125.675781 65.761719 125.503906 66.3125 125.273438 C 66.863281 125.042969 67.386719 124.761719 67.882812 124.429688 C 68.378906 124.097656 68.835938 123.722656 69.257812 123.296875 C 69.679688 122.875 70.054688 122.414062 70.386719 121.917969 C 70.714844 121.421875 70.992188 120.898438 71.21875 120.34375 C 71.445312 119.792969 71.617188 119.222656 71.730469 118.640625 C 71.847656 118.054688 71.902344 117.460938 71.898438 116.867188 Z M 71.898438 116.867188 " fill-opacity="1" fill-rule="nonzero"/><path fill="#f2f2f2" d="M 371.046875 287.175781 L 362.152344 292.824219 L 356.253906 284.554688 L 365.152344 278.90625 Z M 371.046875 287.175781 " fill-opacity="1" fill-rule="nonzero"/><path fill="#5e5e5e" d="M 362.152344 293.148438 C 362.035156 293.152344 361.945312 293.105469 361.878906 293.011719 L 355.992188 284.722656 C 355.933594 284.644531 355.914062 284.5625 355.929688 284.46875 C 355.945312 284.375 355.996094 284.304688 356.078125 284.257812 L 364.976562 278.617188 C 365.050781 278.566406 365.128906 278.550781 365.21875 278.570312 C 365.304688 278.585938 365.375 278.632812 365.421875 278.703125 L 371.3125 286.976562 C 371.363281 287.050781 371.382812 287.136719 371.363281 287.226562 C 371.347656 287.316406 371.300781 287.386719 371.222656 287.441406 L 362.324219 293.078125 C 362.273438 293.121094 362.214844 293.144531 362.152344 293.148438 Z M 356.726562 284.640625 L 362.238281 292.378906 L 370.574219 287.117188 L 365.0625 279.378906 Z M 356.726562 284.640625 " fill-opacity="1" fill-rule="nonzero"/><path fill="#32292f" d="M 56.824219 228.324219 C 54.007812 227.449219 52.253906 222.941406 52.253906 222.941406 C 52.632812 221.34375 53.367188 219.429688 54.007812 216.675781 C 53.402344 215.800781 51.375 212.539062 52.34375 210.820312 C 52.597656 210.445312 52.9375 210.167969 53.351562 209.988281 C 53.769531 209.808594 54.199219 209.75 54.648438 209.820312 L 55.871094 202.960938 L 71.777344 206.574219 L 71.777344 206.914062 C 71.855469 207.390625 73.53125 218.527344 68.933594 222.429688 C 67.363281 223.773438 65.273438 224.105469 62.714844 223.414062 L 62.632812 226.042969 C 62.632812 226.042969 59.640625 229.183594 56.824219 228.324219 Z M 56.824219 228.324219 " fill-opacity="1" fill-rule="nonzero"/><path fill="#5e5e5e" d="M 52.472656 202.03125 C 52.394531 201.988281 52.320312 201.941406 52.246094 201.890625 C 51.863281 201.644531 51.492188 201.378906 51.140625 201.089844 C 49.507812 199.800781 47.085938 197.320312 48.28125 194.652344 C 50.035156 190.777344 55.5625 190.609375 56.519531 191.144531 C 57.984375 191.96875 58.808594 192.628906 59.308594 196.523438 C 59.363281 196.941406 59.40625 197.398438 59.457031 197.90625 C 59.457031 197.988281 59.457031 198.066406 59.457031 198.152344 C 61.144531 197.9375 62.832031 197.960938 64.511719 198.222656 C 67.652344 198.855469 75.917969 202.417969 71.910156 208.644531 C 70.410156 208.96875 68.898438 209.039062 67.378906 208.847656 C 65.855469 208.660156 64.410156 208.222656 63.039062 207.539062 C 63.039062 207.539062 61.421875 206.582031 61.0625 208.730469 C 60.671875 210.582031 60.148438 212.394531 59.492188 214.167969 C 59.492188 214.167969 57.929688 214.335938 57.167969 212.25 C 56.40625 210.160156 52.5 210.167969 52.246094 212.800781 C 52.246094 212.800781 49.246094 208.125 52.472656 202.03125 Z M 52.472656 202.03125 " fill-opacity="1" fill-rule="nonzero"/><path fill="#f2f2f2" d="M 59.992188 198.3125 L 59.570312 198.417969 C 56.933594 199.15625 54.59375 200.4375 52.550781 202.265625 L 52.273438 202.511719 L 51.980469 202.277344 C 51.585938 202.019531 51.203125 201.746094 50.832031 201.453125 L 50.4375 201.136719 L 50.753906 200.75 C 51.84375 199.480469 53.121094 198.4375 54.585938 197.628906 C 56.050781 196.820312 57.609375 196.292969 59.265625 196.046875 L 59.773438 195.960938 L 59.84375 196.476562 C 59.898438 196.882812 59.941406 197.355469 59.992188 197.882812 Z M 59.992188 198.3125 " fill-opacity="1" fill-rule="nonzero"/><path fill="#5e5e5e" d="M 52.289062 202.847656 C 52.226562 202.847656 52.167969 202.828125 52.113281 202.792969 L 51.796875 202.589844 C 51.535156 202.425781 51.121094 202.136719 50.621094 201.714844 L 50.234375 201.398438 C 50.164062 201.34375 50.121094 201.269531 50.113281 201.179688 C 50.101562 201.089844 50.125 201.011719 50.183594 200.941406 L 50.5 200.546875 C 51.605469 199.242188 52.902344 198.171875 54.394531 197.335938 C 55.886719 196.503906 57.476562 195.957031 59.167969 195.699219 L 59.675781 195.609375 C 59.769531 195.597656 59.855469 195.617188 59.933594 195.671875 C 60.003906 195.726562 60.046875 195.800781 60.0625 195.890625 L 60.125 196.40625 C 60.175781 196.8125 60.230469 197.285156 60.28125 197.828125 L 60.28125 198.257812 C 60.304688 198.445312 60.222656 198.558594 60.035156 198.601562 L 59.617188 198.707031 C 57.039062 199.441406 54.753906 200.699219 52.753906 202.484375 L 52.472656 202.742188 C 52.425781 202.796875 52.363281 202.832031 52.289062 202.847656 Z M 50.902344 201.089844 L 51.035156 201.207031 C 51.507812 201.574219 51.910156 201.847656 52.15625 202.011719 L 52.261719 202.074219 L 52.359375 201.996094 C 54.433594 200.136719 56.8125 198.824219 59.492188 198.066406 L 59.632812 198.066406 L 59.632812 197.890625 C 59.582031 197.355469 59.535156 196.898438 59.484375 196.503906 L 59.484375 196.328125 L 59.308594 196.328125 C 57.699219 196.578125 56.183594 197.097656 54.761719 197.894531 C 53.339844 198.6875 52.101562 199.703125 51.042969 200.941406 Z M 50.902344 201.089844 " fill-opacity="1" fill-rule="nonzero"/><path fill="#f2f2f2" d="M 256.683594 300.808594 L 246.9375 300.808594 L 246.4375 290.492188 L 256.210938 290.492188 Z M 256.683594 300.808594 " fill-opacity="1" fill-rule="nonzero"/><path fill="#f2f2f2" d="M 207.496094 290.492188 L 204.757812 300.808594 L 195.035156 300.808594 L 197.785156 290.492188 Z M 207.496094 290.492188 " fill-opacity="1" fill-rule="nonzero"/><path fill="#5e5e5e" d="M 256.683594 301.140625 L 246.9375 301.140625 C 246.847656 301.140625 246.769531 301.109375 246.707031 301.050781 C 246.640625 300.988281 246.609375 300.914062 246.601562 300.824219 L 246.101562 290.511719 C 246.101562 290.417969 246.128906 290.335938 246.191406 290.265625 C 246.257812 290.199219 246.339844 290.167969 246.4375 290.167969 L 256.210938 290.167969 C 256.300781 290.164062 256.375 290.195312 256.441406 290.253906 C 256.503906 290.3125 256.539062 290.386719 256.542969 290.476562 L 257.042969 300.789062 C 257.054688 300.886719 257.023438 300.96875 256.957031 301.035156 C 256.882812 301.117188 256.792969 301.152344 256.683594 301.140625 Z M 247.253906 300.507812 L 256.367188 300.507812 L 255.902344 290.859375 L 246.777344 290.859375 Z M 204.757812 301.167969 L 195.035156 301.167969 C 194.929688 301.164062 194.847656 301.121094 194.78125 301.035156 C 194.710938 300.953125 194.691406 300.859375 194.722656 300.753906 L 197.46875 290.441406 C 197.503906 290.273438 197.609375 290.191406 197.785156 290.195312 L 207.496094 290.195312 C 207.605469 290.191406 207.691406 290.234375 207.757812 290.316406 C 207.824219 290.402344 207.84375 290.5 207.820312 290.605469 L 205.074219 300.921875 C 205.019531 301.070312 204.914062 301.140625 204.757812 301.140625 Z M 195.46875 300.507812 L 204.503906 300.507812 L 207.074219 290.859375 L 198.039062 290.859375 Z M 195.46875 300.507812 " fill-opacity="1" fill-rule="nonzero"/><path fill="#5e5e5e" d="M 258.289062 303.894531 C 258.332031 304.0625 258.339844 304.230469 258.304688 304.398438 C 258.269531 304.570312 258.199219 304.722656 258.09375 304.859375 C 257.988281 304.996094 257.859375 305.101562 257.703125 305.179688 C 257.546875 305.257812 257.382812 305.296875 257.210938 305.296875 L 233.949219 305.296875 C 233.808594 305.292969 233.679688 305.246094 233.570312 305.160156 C 233.460938 305.070312 233.386719 304.953125 233.351562 304.816406 C 233.320312 304.679688 233.332031 304.542969 233.386719 304.414062 C 233.445312 304.28125 233.535156 304.183594 233.660156 304.113281 L 246.824219 297.265625 C 251.261719 301.273438 256.542969 297.265625 256.542969 297.265625 Z M 205.644531 297.265625 C 205.644531 297.265625 200.378906 301.273438 195.933594 297.265625 L 182.769531 304.113281 C 182.644531 304.183594 182.554688 304.28125 182.5 304.410156 C 182.441406 304.539062 182.429688 304.675781 182.460938 304.8125 C 182.492188 304.949219 182.566406 305.066406 182.675781 305.15625 C 182.785156 305.246094 182.910156 305.292969 183.050781 305.296875 L 206.3125 305.296875 C 206.484375 305.296875 206.648438 305.257812 206.804688 305.179688 C 206.957031 305.101562 207.089844 304.996094 207.195312 304.859375 C 207.300781 304.722656 207.371094 304.570312 207.402344 304.398438 C 207.4375 304.230469 207.433594 304.0625 207.390625 303.894531 Z M 205.644531 297.265625 " fill-opacity="1" fill-rule="nonzero"/><path fill="#f2f2f2" d="M 154.378906 198.453125 L 179.753906 198.453125 L 179.753906 223.203125 L 154.378906 223.203125 Z M 154.378906 198.453125 " fill-opacity="1" fill-rule="nonzero"/><path fill="#f2c14e" d="M 137.722656 273.933594 L 163.089844 273.933594 L 163.089844 298.683594 L 137.722656 298.683594 Z M 137.722656 273.933594 " fill-opacity="1" fill-rule="nonzero"/><path fill="#5e5e5e" d="M 194.429688 254.839844 L 194.429688 279.597656 L 169.066406 279.597656 L 169.066406 254.839844 Z M 158.527344 293.789062 L 158.527344 269.039062 C 158.527344 268.945312 158.496094 268.867188 158.429688 268.804688 C 158.363281 268.738281 158.285156 268.707031 158.195312 268.707031 L 132.820312 268.707031 C 132.730469 268.707031 132.652344 268.742188 132.589844 268.804688 C 132.527344 268.871094 132.496094 268.949219 132.496094 269.039062 L 132.496094 293.789062 C 132.496094 293.878906 132.527344 293.957031 132.589844 294.023438 C 132.652344 294.085938 132.730469 294.121094 132.820312 294.125 L 158.195312 294.125 C 158.285156 294.125 158.363281 294.089844 158.429688 294.027344 C 158.496094 293.960938 158.527344 293.882812 158.527344 293.789062 Z M 133.152344 269.363281 L 157.871094 269.363281 L 157.871094 293.492188 L 133.152344 293.492188 Z M 133.152344 269.363281 " fill-opacity="1" fill-rule="nonzero"/><path fill="#5e5e5e" d="M 230.667969 198.117188 L 205.539062 198.117188 L 205.539062 173.480469 C 205.539062 173.390625 205.503906 173.316406 205.441406 173.253906 C 205.378906 173.191406 205.304688 173.160156 205.214844 173.15625 L 180.085938 173.15625 L 180.085938 148.519531 C 180.085938 148.429688 180.054688 148.351562 179.992188 148.285156 C 179.929688 148.222656 179.851562 148.1875 179.761719 148.1875 L 128.921875 148.1875 C 128.832031 148.1875 128.753906 148.21875 128.691406 148.285156 C 128.625 148.351562 128.597656 148.429688 128.597656 148.519531 L 128.597656 173.15625 L 103.460938 173.15625 C 103.371094 173.15625 103.292969 173.1875 103.226562 173.25 C 103.164062 173.3125 103.128906 173.390625 103.128906 173.480469 L 103.128906 198.242188 C 103.125 198.269531 103.125 198.300781 103.128906 198.328125 C 103.121094 198.371094 103.121094 198.410156 103.128906 198.453125 L 103.128906 222.695312 L 77.988281 222.695312 C 77.898438 222.695312 77.824219 222.730469 77.761719 222.792969 C 77.699219 222.855469 77.667969 222.929688 77.664062 223.019531 L 77.664062 247.777344 C 77.667969 247.867188 77.699219 247.941406 77.761719 248.003906 C 77.824219 248.070312 77.898438 248.101562 77.988281 248.101562 L 154.324219 248.101562 C 154.414062 248.101562 154.488281 248.070312 154.550781 248.003906 C 154.613281 247.941406 154.648438 247.867188 154.648438 247.777344 L 154.648438 223.535156 L 179.472656 223.535156 L 179.472656 247.777344 C 179.472656 247.867188 179.507812 247.945312 179.574219 248.007812 C 179.636719 248.070312 179.714844 248.101562 179.804688 248.101562 L 230.632812 248.101562 C 230.722656 248.101562 230.800781 248.070312 230.863281 248.007812 C 230.925781 247.945312 230.957031 247.867188 230.957031 247.777344 L 230.957031 198.453125 C 230.960938 198.367188 230.933594 198.292969 230.878906 198.226562 C 230.824219 198.164062 230.753906 198.128906 230.667969 198.117188 Z M 230.363281 198.765625 L 230.363281 222.683594 L 205.628906 222.683594 L 205.628906 198.765625 Z M 179.472656 173.804688 L 179.472656 197.890625 L 154.710938 197.890625 L 154.710938 173.816406 Z M 154.027344 198.117188 L 129.160156 198.117188 L 129.160156 173.605469 L 154.027344 173.605469 Z M 103.757812 198.777344 L 128.492188 198.777344 L 128.492188 222.695312 L 103.785156 222.695312 Z M 129.203125 198.777344 L 153.914062 198.777344 L 153.914062 222.695312 L 129.246094 222.695312 Z M 180.09375 198.777344 L 204.917969 198.777344 L 204.917969 222.695312 L 180.164062 222.695312 Z M 180.09375 173.816406 L 204.917969 173.816406 L 204.917969 197.890625 L 180.171875 197.890625 Z M 154.648438 148.84375 L 179.472656 148.84375 L 179.472656 172.945312 L 154.710938 172.945312 Z M 129.203125 148.84375 L 153.914062 148.84375 L 153.914062 172.945312 L 129.257812 172.945312 Z M 103.757812 173.816406 L 128.476562 173.816406 L 128.476562 197.890625 L 103.785156 197.890625 Z M 103.011719 247.488281 L 78.324219 247.488281 L 78.324219 223.324219 L 103.039062 223.324219 Z M 103.757812 247.488281 L 103.757812 223.535156 L 128.492188 223.535156 L 128.492188 247.445312 Z M 129.203125 247.488281 L 129.203125 223.535156 L 153.914062 223.535156 L 153.914062 247.445312 Z M 179.375 222.929688 L 154.703125 222.929688 L 154.703125 198.765625 L 179.417969 198.765625 Z M 180.121094 247.488281 L 180.121094 223.535156 L 204.917969 223.535156 L 204.917969 247.445312 Z M 205.566406 247.488281 L 205.566406 223.535156 L 230.363281 223.535156 L 230.363281 247.445312 Z M 205.566406 247.488281 " fill-opacity="1" fill-rule="nonzero"/><path fill="#f2c14e" d="M 278.164062 99.570312 L 274.382812 103.507812 L 277.890625 109.566406 L 283.324219 108.429688 C 286.023438 111.175781 289.238281 113.019531 292.976562 113.960938 L 294.527344 119.367188 L 301.546875 119.367188 L 303.371094 113.875 C 306.992188 112.914062 310.117188 111.097656 312.742188 108.429688 L 318.191406 109.558594 L 321.703125 103.5 L 317.917969 99.570312 C 318.945312 95.910156 318.96875 92.25 317.980469 88.578125 L 321.859375 84.195312 L 318.296875 78.160156 L 312.804688 79.5625 C 310.117188 76.8125 306.910156 74.960938 303.1875 74.003906 L 301.625 68.617188 L 294.605469 68.617188 L 292.851562 73.984375 C 289.164062 74.9375 285.984375 76.769531 283.3125 79.484375 L 277.925781 78.105469 L 274.363281 84.140625 L 278.144531 88.429688 C 277.644531 90.230469 277.394531 92.070312 277.402344 93.9375 C 277.394531 95.851562 277.648438 97.726562 278.164062 99.570312 Z M 286.613281 93.914062 C 286.613281 93.160156 286.6875 92.410156 286.835938 91.671875 C 286.980469 90.933594 287.199219 90.214844 287.488281 89.519531 C 287.777344 88.824219 288.128906 88.160156 288.550781 87.535156 C 288.96875 86.90625 289.445312 86.328125 289.976562 85.792969 C 290.511719 85.261719 291.089844 84.785156 291.71875 84.367188 C 292.34375 83.949219 293.007812 83.59375 293.703125 83.304688 C 294.402344 83.015625 295.117188 82.800781 295.859375 82.652344 C 296.597656 82.503906 297.34375 82.429688 298.097656 82.429688 C 298.851562 82.429688 299.601562 82.503906 300.339844 82.652344 C 301.078125 82.800781 301.796875 83.015625 302.496094 83.304688 C 303.191406 83.59375 303.851562 83.949219 304.480469 84.367188 C 305.105469 84.785156 305.6875 85.261719 306.21875 85.792969 C 306.753906 86.328125 307.230469 86.90625 307.648438 87.535156 C 308.066406 88.160156 308.421875 88.824219 308.710938 89.519531 C 309 90.214844 309.214844 90.933594 309.363281 91.671875 C 309.511719 92.410156 309.585938 93.160156 309.585938 93.914062 C 309.585938 94.667969 309.511719 95.414062 309.363281 96.152344 C 309.214844 96.890625 309 97.609375 308.710938 98.304688 C 308.421875 99.003906 308.066406 99.664062 307.648438 100.289062 C 307.230469 100.917969 306.753906 101.496094 306.21875 102.03125 C 305.6875 102.5625 305.105469 103.039062 304.480469 103.457031 C 303.851562 103.878906 303.191406 104.230469 302.496094 104.519531 C 301.796875 104.808594 301.078125 105.027344 300.339844 105.171875 C 299.601562 105.320312 298.851562 105.394531 298.097656 105.394531 C 297.34375 105.394531 296.597656 105.320312 295.859375 105.171875 C 295.117188 105.027344 294.402344 104.808594 293.703125 104.519531 C 293.007812 104.230469 292.34375 103.878906 291.71875 103.457031 C 291.089844 103.039062 290.511719 102.5625 289.976562 102.03125 C 289.445312 101.496094 288.96875 100.917969 288.550781 100.289062 C 288.128906 99.664062 287.777344 99.003906 287.488281 98.304688 C 287.199219 97.609375 286.980469 96.890625 286.835938 96.152344 C 286.6875 95.414062 286.613281 94.667969 286.613281 93.914062 Z M 286.613281 93.914062 " fill-opacity="1" fill-rule="nonzero"/><path fill="#5e5e5e" d="M 181.296875 77.351562 L 181.296875 102.105469 L 155.929688 102.105469 L 155.929688 77.351562 Z M 134.941406 128.601562 L 134.941406 103.824219 C 134.941406 103.734375 134.90625 103.65625 134.839844 103.59375 C 134.777344 103.53125 134.699219 103.5 134.609375 103.5 L 109.277344 103.5 C 109.1875 103.5 109.113281 103.535156 109.050781 103.597656 C 108.988281 103.660156 108.957031 103.734375 108.953125 103.824219 L 108.953125 128.601562 C 108.957031 128.691406 108.988281 128.765625 109.050781 128.828125 C 109.113281 128.890625 109.1875 128.921875 109.277344 128.925781 L 134.652344 128.925781 C 134.84375 128.898438 134.9375 128.792969 134.941406 128.601562 Z M 109.566406 104.15625 L 134.285156 104.15625 L 134.285156 128.25 L 109.566406 128.25 Z M 57.878906 135.277344 L 63.40625 135.277344 C 63.570312 135.277344 63.671875 135.195312 63.714844 135.039062 L 64.890625 130.953125 C 67.757812 130.191406 70.246094 128.765625 72.347656 126.671875 L 76.472656 127.546875 C 76.625 127.578125 76.742188 127.527344 76.820312 127.390625 L 79.578125 122.601562 C 79.65625 122.457031 79.640625 122.324219 79.523438 122.207031 L 76.671875 119.242188 C 77.4375 116.378906 77.4375 113.519531 76.671875 110.65625 L 79.535156 107.410156 C 79.621094 107.28125 79.621094 107.152344 79.535156 107.023438 L 76.8125 102.226562 C 76.726562 102.085938 76.605469 102.035156 76.445312 102.078125 L 72.347656 103.164062 C 70.257812 101.082031 67.789062 99.65625 64.941406 98.886719 L 63.652344 94.78125 C 63.605469 94.625 63.5 94.550781 63.335938 94.550781 L 57.773438 94.550781 C 57.609375 94.550781 57.503906 94.628906 57.457031 94.789062 L 56.273438 98.859375 C 53.425781 99.640625 50.964844 101.074219 48.886719 103.164062 L 44.734375 102.105469 C 44.578125 102.066406 44.453125 102.117188 44.367188 102.253906 L 41.566406 107.015625 C 41.46875 107.144531 41.46875 107.273438 41.566406 107.402344 L 44.515625 110.742188 C 43.765625 113.574219 43.765625 116.402344 44.515625 119.234375 L 41.714844 122.171875 C 41.605469 122.292969 41.589844 122.425781 41.671875 122.566406 L 44.417969 127.355469 C 44.5 127.492188 44.617188 127.542969 44.769531 127.511719 L 48.902344 126.636719 C 50.953125 128.683594 53.375 130.09375 56.167969 130.871094 L 57.546875 135.03125 C 57.59375 135.183594 57.699219 135.257812 57.859375 135.257812 Z M 48.957031 125.96875 L 44.894531 126.847656 L 42.382812 122.460938 L 45.226562 119.53125 C 45.316406 119.441406 45.34375 119.335938 45.304688 119.214844 C 44.90625 117.800781 44.707031 116.355469 44.707031 114.882812 C 44.699219 113.472656 44.871094 112.082031 45.226562 110.71875 C 45.253906 110.605469 45.230469 110.507812 45.15625 110.417969 L 42.25 107.113281 L 44.8125 102.78125 L 48.910156 103.824219 C 49.035156 103.855469 49.140625 103.828125 49.226562 103.734375 C 51.296875 101.621094 53.765625 100.191406 56.632812 99.445312 C 56.757812 99.417969 56.835938 99.339844 56.871094 99.21875 L 58.035156 95.210938 L 63.074219 95.210938 L 64.390625 99.21875 C 64.429688 99.332031 64.503906 99.402344 64.617188 99.4375 C 67.484375 100.171875 69.957031 101.597656 72.03125 103.710938 C 72.117188 103.804688 72.222656 103.835938 72.347656 103.796875 L 76.355469 102.78125 L 78.917969 107.113281 L 76.09375 110.324219 C 76.019531 110.410156 75.996094 110.507812 76.023438 110.621094 C 76.824219 113.484375 76.824219 116.351562 76.023438 119.214844 C 75.988281 119.335938 76.015625 119.441406 76.101562 119.53125 L 78.882812 122.460938 L 76.375 126.847656 L 72.304688 125.96875 C 72.1875 125.941406 72.085938 125.96875 72.003906 126.058594 C 69.914062 128.1875 67.421875 129.621094 64.53125 130.355469 C 64.40625 130.382812 64.328125 130.460938 64.292969 130.582031 L 63.132812 134.609375 L 58.097656 134.609375 L 56.738281 130.503906 C 56.699219 130.394531 56.621094 130.320312 56.511719 130.285156 C 53.699219 129.542969 51.277344 128.132812 49.246094 126.058594 C 49.179688 125.996094 49.097656 125.960938 49.007812 125.960938 Z M 70.011719 114.832031 C 70.011719 114.214844 69.953125 113.605469 69.832031 113 C 69.714844 112.398438 69.535156 111.8125 69.300781 111.242188 C 69.066406 110.675781 68.777344 110.132812 68.433594 109.621094 C 68.09375 109.109375 67.703125 108.636719 67.269531 108.199219 C 66.832031 107.765625 66.359375 107.375 65.847656 107.03125 C 65.335938 106.691406 64.796875 106.402344 64.226562 106.164062 C 63.660156 105.929688 63.074219 105.75 62.46875 105.628906 C 61.863281 105.507812 61.253906 105.445312 60.640625 105.445312 C 60.023438 105.445312 59.414062 105.503906 58.808594 105.625 C 58.207031 105.742188 57.617188 105.917969 57.050781 106.152344 C 56.480469 106.386719 55.9375 106.675781 55.425781 107.015625 C 54.914062 107.359375 54.4375 107.746094 54 108.179688 C 53.566406 108.613281 53.175781 109.085938 52.832031 109.597656 C 52.488281 110.109375 52.199219 110.648438 51.960938 111.214844 C 51.722656 111.785156 51.542969 112.371094 51.421875 112.972656 C 51.300781 113.578125 51.238281 114.1875 51.238281 114.800781 C 51.234375 115.417969 51.292969 116.027344 51.410156 116.632812 C 51.527344 117.234375 51.703125 117.824219 51.9375 118.390625 C 52.171875 118.960938 52.460938 119.503906 52.800781 120.015625 C 53.140625 120.527344 53.527344 121.003906 53.960938 121.441406 C 54.394531 121.878906 54.867188 122.269531 55.378906 122.613281 C 55.886719 122.957031 56.425781 123.246094 56.996094 123.484375 C 57.5625 123.722656 58.148438 123.902344 58.753906 124.027344 C 59.355469 124.148438 59.964844 124.210938 60.582031 124.214844 C 61.195312 124.214844 61.808594 124.15625 62.410156 124.035156 C 63.015625 123.914062 63.601562 123.734375 64.171875 123.5 C 64.738281 123.265625 65.28125 122.976562 65.792969 122.632812 C 66.304688 122.292969 66.777344 121.902344 67.214844 121.46875 C 67.648438 121.03125 68.039062 120.558594 68.382812 120.046875 C 68.722656 119.535156 69.011719 118.996094 69.25 118.425781 C 69.484375 117.859375 69.664062 117.273438 69.785156 116.667969 C 69.90625 116.066406 69.96875 115.457031 69.96875 114.839844 Z M 69.355469 114.832031 C 69.355469 115.40625 69.300781 115.976562 69.1875 116.542969 C 69.074219 117.105469 68.90625 117.65625 68.6875 118.1875 C 68.46875 118.71875 68.195312 119.226562 67.875 119.703125 C 67.554688 120.183594 67.191406 120.625 66.785156 121.03125 C 66.378906 121.441406 65.933594 121.804688 65.457031 122.125 C 64.976562 122.441406 64.472656 122.714844 63.9375 122.933594 C 63.40625 123.15625 62.859375 123.320312 62.292969 123.433594 C 61.726562 123.546875 61.15625 123.601562 60.582031 123.601562 C 60.003906 123.601562 59.433594 123.546875 58.871094 123.433594 C 58.304688 123.320312 57.753906 123.15625 57.222656 122.933594 C 56.691406 122.714844 56.183594 122.445312 55.707031 122.125 C 55.226562 121.804688 54.785156 121.441406 54.375 121.03125 C 53.96875 120.625 53.605469 120.183594 53.285156 119.703125 C 52.964844 119.226562 52.695312 118.71875 52.476562 118.1875 C 52.253906 117.65625 52.085938 117.105469 51.976562 116.542969 C 51.863281 115.976562 51.808594 115.40625 51.808594 114.832031 C 51.808594 114.253906 51.863281 113.683594 51.976562 113.121094 C 52.085938 112.554688 52.253906 112.007812 52.476562 111.472656 C 52.695312 110.941406 52.964844 110.4375 53.285156 109.957031 C 53.605469 109.480469 53.96875 109.035156 54.375 108.628906 C 54.785156 108.222656 55.226562 107.859375 55.707031 107.539062 C 56.183594 107.21875 56.691406 106.949219 57.222656 106.726562 C 57.753906 106.507812 58.304688 106.339844 58.871094 106.226562 C 59.433594 106.117188 60.003906 106.058594 60.582031 106.058594 C 61.15625 106.0625 61.722656 106.121094 62.289062 106.234375 C 62.851562 106.351562 63.398438 106.519531 63.925781 106.742188 C 64.457031 106.964844 64.960938 107.234375 65.4375 107.554688 C 65.914062 107.875 66.355469 108.238281 66.761719 108.648438 C 67.164062 109.054688 67.527344 109.496094 67.84375 109.976562 C 68.164062 110.453125 68.429688 110.960938 68.648438 111.492188 C 68.867188 112.023438 69.035156 112.570312 69.144531 113.132812 C 69.257812 113.695312 69.3125 114.265625 69.3125 114.839844 Z M 82.523438 164.035156 C 82.367188 164.035156 82.261719 163.964844 82.210938 163.816406 L 81.332031 161.183594 C 79.574219 160.683594 78.039062 159.789062 76.734375 158.507812 L 74.164062 159.042969 C 74.007812 159.074219 73.890625 159.023438 73.8125 158.886719 L 72.058594 155.824219 C 71.976562 155.679688 71.996094 155.550781 72.109375 155.429688 L 73.863281 153.589844 C 73.40625 151.800781 73.40625 150.011719 73.863281 148.222656 L 72.03125 146.140625 C 71.941406 146.015625 71.941406 145.886719 72.03125 145.757812 L 73.785156 142.714844 C 73.867188 142.574219 73.988281 142.523438 74.144531 142.5625 L 76.777344 143.222656 C 78.097656 141.921875 79.652344 141.019531 81.4375 140.519531 L 82.175781 137.976562 C 82.222656 137.820312 82.328125 137.742188 82.488281 137.738281 L 86 137.738281 C 86.160156 137.742188 86.265625 137.816406 86.316406 137.96875 L 87.191406 140.511719 C 88.984375 141.007812 90.542969 141.902344 91.871094 143.203125 L 94.40625 142.5625 C 94.5625 142.527344 94.6875 142.574219 94.773438 142.714844 L 96.527344 145.757812 C 96.621094 145.886719 96.621094 146.015625 96.527344 146.140625 L 94.773438 148.167969 C 95.242188 149.976562 95.242188 151.789062 94.773438 153.597656 L 96.527344 155.441406 C 96.648438 155.558594 96.664062 155.691406 96.574219 155.835938 L 94.816406 158.894531 C 94.738281 159.03125 94.621094 159.082031 94.46875 159.054688 L 91.886719 158.519531 C 90.554688 159.832031 88.988281 160.730469 87.183594 161.21875 L 86.449219 163.773438 C 86.402344 163.929688 86.296875 164.011719 86.132812 164.007812 Z M 76.867188 157.851562 C 76.957031 157.851562 77.03125 157.882812 77.09375 157.949219 C 78.382812 159.257812 79.917969 160.148438 81.691406 160.625 C 81.804688 160.652344 81.882812 160.722656 81.917969 160.832031 L 82.796875 163.378906 L 85.84375 163.378906 L 86.550781 160.886719 C 86.589844 160.765625 86.667969 160.691406 86.789062 160.660156 C 88.613281 160.199219 90.183594 159.296875 91.5 157.957031 C 91.585938 157.875 91.691406 157.839844 91.808594 157.859375 L 94.328125 158.386719 L 95.835938 155.753906 L 94.082031 153.949219 C 93.996094 153.859375 93.972656 153.753906 94.003906 153.632812 C 94.25 152.730469 94.371094 151.8125 94.363281 150.878906 C 94.359375 149.964844 94.242188 149.066406 94.003906 148.1875 C 93.964844 148.070312 93.988281 147.972656 94.070312 147.886719 L 95.828125 145.898438 L 94.273438 143.265625 L 91.800781 143.898438 C 91.675781 143.933594 91.570312 143.90625 91.484375 143.808594 C 90.171875 142.472656 88.609375 141.574219 86.796875 141.109375 C 86.683594 141.078125 86.609375 141.007812 86.570312 140.898438 L 85.753906 138.40625 L 82.699219 138.40625 L 81.980469 140.878906 C 81.945312 141.003906 81.867188 141.078125 81.746094 141.109375 C 79.933594 141.574219 78.378906 142.480469 77.078125 143.816406 C 76.988281 143.910156 76.882812 143.9375 76.761719 143.90625 L 74.226562 143.257812 L 72.679688 145.886719 L 74.433594 147.941406 C 74.511719 148.027344 74.535156 148.128906 74.503906 148.238281 C 74.011719 150.027344 74.011719 151.816406 74.503906 153.605469 C 74.542969 153.726562 74.515625 153.832031 74.425781 153.921875 L 72.671875 155.730469 L 74.191406 158.359375 L 76.707031 157.835938 Z M 84.253906 156.972656 C 83.851562 156.972656 83.449219 156.933594 83.054688 156.855469 C 82.660156 156.777344 82.277344 156.660156 81.902344 156.507812 C 81.53125 156.351562 81.175781 156.164062 80.839844 155.941406 C 80.507812 155.714844 80.195312 155.460938 79.910156 155.175781 C 79.625 154.890625 79.371094 154.582031 79.148438 154.246094 C 78.921875 153.910156 78.734375 153.558594 78.578125 153.183594 C 78.425781 152.8125 78.308594 152.429688 78.230469 152.03125 C 78.152344 151.636719 78.113281 151.238281 78.113281 150.835938 C 78.113281 150.433594 78.152344 150.03125 78.230469 149.636719 C 78.308594 149.242188 78.425781 148.859375 78.578125 148.484375 C 78.734375 148.113281 78.921875 147.757812 79.148438 147.425781 C 79.371094 147.089844 79.625 146.777344 79.910156 146.492188 C 80.195312 146.207031 80.507812 145.953125 80.839844 145.730469 C 81.175781 145.507812 81.53125 145.316406 81.902344 145.164062 C 82.277344 145.007812 82.660156 144.890625 83.054688 144.8125 C 83.449219 144.734375 83.851562 144.695312 84.253906 144.695312 C 84.65625 144.695312 85.054688 144.734375 85.453125 144.8125 C 85.847656 144.890625 86.230469 145.007812 86.605469 145.164062 C 86.976562 145.316406 87.332031 145.507812 87.667969 145.730469 C 88 145.953125 88.3125 146.207031 88.597656 146.492188 C 88.882812 146.777344 89.136719 147.089844 89.359375 147.425781 C 89.585938 147.757812 89.773438 148.113281 89.929688 148.484375 C 90.082031 148.859375 90.199219 149.242188 90.277344 149.636719 C 90.355469 150.03125 90.394531 150.433594 90.394531 150.835938 C 90.394531 151.238281 90.355469 151.636719 90.277344 152.03125 C 90.195312 152.425781 90.082031 152.808594 89.925781 153.183594 C 89.769531 153.554688 89.582031 153.90625 89.359375 154.242188 C 89.132812 154.578125 88.878906 154.886719 88.59375 155.171875 C 88.308594 155.457031 88 155.710938 87.664062 155.933594 C 87.328125 156.15625 86.972656 156.34375 86.601562 156.5 C 86.230469 156.652344 85.847656 156.769531 85.449219 156.847656 C 85.054688 156.925781 84.65625 156.964844 84.253906 156.964844 Z M 84.253906 145.398438 C 83.894531 145.398438 83.539062 145.433594 83.1875 145.503906 C 82.835938 145.570312 82.492188 145.675781 82.160156 145.8125 C 81.832031 145.949219 81.515625 146.117188 81.21875 146.316406 C 80.917969 146.515625 80.640625 146.742188 80.386719 146.996094 C 80.132812 147.25 79.90625 147.527344 79.707031 147.824219 C 79.507812 148.125 79.339844 148.4375 79.203125 148.769531 C 79.066406 149.101562 78.960938 149.441406 78.890625 149.796875 C 78.824219 150.148438 78.789062 150.503906 78.789062 150.859375 C 78.789062 151.21875 78.824219 151.574219 78.890625 151.925781 C 78.960938 152.277344 79.066406 152.621094 79.203125 152.953125 C 79.339844 153.285156 79.507812 153.597656 79.707031 153.898438 C 79.90625 154.195312 80.136719 154.472656 80.386719 154.726562 C 80.640625 154.980469 80.917969 155.207031 81.21875 155.40625 C 81.515625 155.605469 81.832031 155.773438 82.160156 155.910156 C 82.492188 156.046875 82.835938 156.152344 83.1875 156.21875 C 83.539062 156.289062 83.894531 156.324219 84.253906 156.324219 C 84.613281 156.324219 84.96875 156.289062 85.320312 156.21875 C 85.671875 156.152344 86.015625 156.046875 86.347656 155.910156 C 86.675781 155.773438 86.992188 155.605469 87.289062 155.40625 C 87.589844 155.207031 87.867188 154.980469 88.117188 154.726562 C 88.371094 154.472656 88.597656 154.195312 88.800781 153.898438 C 89 153.597656 89.167969 153.285156 89.304688 152.953125 C 89.441406 152.621094 89.546875 152.277344 89.613281 151.925781 C 89.683594 151.574219 89.71875 151.21875 89.71875 150.859375 C 89.722656 150.503906 89.6875 150.144531 89.617188 149.792969 C 89.546875 149.441406 89.445312 149.097656 89.304688 148.765625 C 89.167969 148.433594 89 148.121094 88.800781 147.820312 C 88.601562 147.523438 88.375 147.246094 88.121094 146.992188 C 87.867188 146.738281 87.59375 146.511719 87.292969 146.3125 C 86.996094 146.109375 86.679688 145.941406 86.347656 145.804688 C 86.015625 145.667969 85.671875 145.5625 85.320312 145.492188 C 84.96875 145.421875 84.613281 145.386719 84.253906 145.386719 Z M 84.253906 145.398438 " fill-opacity="1" fill-rule="nonzero"/><g clip-path="url(#4a78c1d2ca)"><path fill="#5e5e5e" d="M 298.097656 117.769531 L 291.078125 117.769531 C 290.914062 117.761719 290.808594 117.679688 290.765625 117.523438 L 289.261719 112.261719 C 285.605469 111.304688 282.441406 109.488281 279.769531 106.8125 L 274.503906 107.910156 C 274.347656 107.941406 274.226562 107.890625 274.144531 107.753906 L 270.636719 101.683594 C 270.554688 101.542969 270.570312 101.410156 270.679688 101.289062 L 274.339844 97.492188 C 273.84375 95.691406 273.597656 93.859375 273.601562 91.992188 C 273.605469 90.152344 273.839844 88.339844 274.3125 86.5625 L 270.722656 82.429688 C 270.617188 82.3125 270.601562 82.183594 270.679688 82.046875 L 274.234375 76.019531 C 274.316406 75.878906 274.4375 75.832031 274.59375 75.871094 L 279.796875 77.195312 C 282.453125 74.542969 285.597656 72.730469 289.226562 71.757812 L 290.902344 66.554688 C 290.953125 66.40625 291.058594 66.328125 291.21875 66.328125 L 298.238281 66.328125 C 298.40625 66.328125 298.511719 66.40625 298.554688 66.566406 L 300.074219 71.773438 C 303.691406 72.75 306.824219 74.566406 309.46875 77.222656 L 314.789062 75.871094 C 314.945312 75.832031 315.066406 75.878906 315.148438 76.019531 L 318.710938 82.046875 C 318.789062 82.183594 318.773438 82.3125 318.664062 82.429688 L 314.902344 86.710938 C 315.359375 88.449219 315.585938 90.21875 315.585938 92.019531 C 315.582031 93.886719 315.339844 95.722656 314.847656 97.527344 L 318.5 101.316406 C 318.613281 101.433594 318.632812 101.566406 318.550781 101.710938 L 315.042969 107.777344 C 314.960938 107.914062 314.84375 107.96875 314.691406 107.9375 L 309.425781 106.839844 C 306.816406 109.453125 303.730469 111.246094 300.167969 112.226562 L 298.414062 117.550781 C 298.363281 117.699219 298.257812 117.773438 298.097656 117.769531 Z M 291.34375 117.09375 L 297.863281 117.09375 L 299.617188 111.832031 C 299.65625 111.71875 299.730469 111.648438 299.84375 111.621094 C 303.417969 110.664062 306.503906 108.871094 309.101562 106.234375 C 309.183594 106.152344 309.285156 106.121094 309.398438 106.140625 L 314.59375 107.242188 L 317.839844 101.59375 L 314.226562 97.839844 C 314.136719 97.753906 314.109375 97.648438 314.148438 97.527344 C 315.160156 93.925781 315.183594 90.320312 314.207031 86.710938 C 314.167969 86.597656 314.191406 86.5 314.277344 86.414062 L 318 82.175781 L 314.691406 76.5625 L 309.425781 77.90625 C 309.300781 77.941406 309.199219 77.914062 309.109375 77.816406 C 306.472656 75.125 303.328125 73.304688 299.679688 72.363281 C 299.554688 72.332031 299.480469 72.257812 299.449219 72.132812 L 297.984375 66.984375 L 291.464844 66.984375 L 289.78125 72.132812 C 289.742188 72.246094 289.667969 72.316406 289.554688 72.34375 C 285.902344 73.285156 282.757812 75.101562 280.121094 77.792969 C 280.03125 77.882812 279.929688 77.914062 279.804688 77.878906 L 274.652344 76.5625 L 271.347656 82.175781 L 274.960938 86.289062 C 275.035156 86.378906 275.058594 86.476562 275.03125 86.589844 C 274.011719 90.234375 274.011719 93.878906 275.03125 97.527344 C 275.0625 97.644531 275.035156 97.75 274.953125 97.839844 L 271.335938 101.59375 L 274.585938 107.242188 L 279.804688 106.15625 C 279.921875 106.132812 280.019531 106.164062 280.101562 106.253906 C 282.757812 108.953125 285.925781 110.769531 289.597656 111.699219 C 289.71875 111.730469 289.800781 111.804688 289.832031 111.925781 Z M 294.667969 103.761719 C 293.890625 103.761719 293.125 103.6875 292.363281 103.535156 C 291.601562 103.382812 290.863281 103.160156 290.144531 102.863281 C 289.425781 102.566406 288.746094 102.203125 288.101562 101.769531 C 287.457031 101.339844 286.859375 100.847656 286.308594 100.300781 C 285.761719 99.75 285.269531 99.15625 284.839844 98.511719 C 284.410156 97.863281 284.046875 97.183594 283.75 96.464844 C 283.453125 95.75 283.226562 95.011719 283.074219 94.25 C 282.925781 93.488281 282.847656 92.71875 282.847656 91.945312 C 282.847656 91.167969 282.925781 90.402344 283.078125 89.640625 C 283.230469 88.878906 283.453125 88.140625 283.75 87.421875 C 284.046875 86.707031 284.410156 86.027344 284.84375 85.378906 C 285.273438 84.734375 285.765625 84.140625 286.3125 83.589844 C 286.863281 83.042969 287.460938 82.550781 288.105469 82.121094 C 288.75 81.691406 289.433594 81.328125 290.148438 81.03125 C 290.867188 80.734375 291.605469 80.511719 292.367188 80.359375 C 293.128906 80.207031 293.898438 80.132812 294.675781 80.132812 C 295.449219 80.132812 296.21875 80.210938 296.980469 80.363281 C 297.742188 80.511719 298.480469 80.738281 299.195312 81.035156 C 299.914062 81.332031 300.59375 81.695312 301.238281 82.128906 C 301.886719 82.558594 302.480469 83.050781 303.03125 83.597656 C 303.578125 84.148438 304.070312 84.746094 304.5 85.390625 C 304.929688 86.035156 305.292969 86.71875 305.589844 87.433594 C 305.886719 88.152344 306.109375 88.890625 306.261719 89.652344 C 306.414062 90.414062 306.488281 91.179688 306.488281 91.957031 C 306.484375 92.730469 306.40625 93.5 306.253906 94.257812 C 306.101562 95.019531 305.878906 95.757812 305.582031 96.472656 C 305.28125 97.1875 304.917969 97.867188 304.488281 98.511719 C 304.054688 99.15625 303.566406 99.75 303.015625 100.300781 C 302.46875 100.847656 301.871094 101.335938 301.226562 101.765625 C 300.582031 102.199219 299.902344 102.5625 299.1875 102.859375 C 298.46875 103.15625 297.730469 103.378906 296.972656 103.53125 C 296.210938 103.683594 295.445312 103.761719 294.667969 103.761719 Z M 294.667969 80.800781 C 293.933594 80.800781 293.210938 80.871094 292.492188 81.011719 C 291.769531 81.15625 291.074219 81.367188 290.394531 81.644531 C 289.71875 81.925781 289.074219 82.269531 288.464844 82.675781 C 287.855469 83.082031 287.292969 83.542969 286.773438 84.0625 C 286.253906 84.582031 285.789062 85.144531 285.382812 85.753906 C 284.976562 86.363281 284.632812 87.003906 284.351562 87.679688 C 284.070312 88.359375 283.859375 89.054688 283.714844 89.773438 C 283.570312 90.492188 283.5 91.21875 283.5 91.949219 C 283.5 92.683594 283.570312 93.410156 283.710938 94.128906 C 283.855469 94.847656 284.066406 95.542969 284.347656 96.222656 C 284.625 96.898438 284.96875 97.542969 285.375 98.152344 C 285.785156 98.761719 286.246094 99.324219 286.765625 99.84375 C 287.28125 100.359375 287.847656 100.824219 288.457031 101.230469 C 289.066406 101.636719 289.707031 101.980469 290.386719 102.261719 C 291.0625 102.542969 291.761719 102.753906 292.480469 102.898438 C 293.199219 103.042969 293.921875 103.113281 294.65625 103.113281 C 295.390625 103.113281 296.117188 103.042969 296.835938 102.898438 C 297.554688 102.757812 298.25 102.542969 298.929688 102.265625 C 299.605469 101.984375 300.25 101.640625 300.859375 101.234375 C 301.46875 100.828125 302.03125 100.363281 302.550781 99.847656 C 303.070312 99.328125 303.53125 98.765625 303.9375 98.15625 C 304.347656 97.546875 304.691406 96.902344 304.96875 96.226562 C 305.25 95.550781 305.460938 94.851562 305.605469 94.132812 C 305.75 93.414062 305.820312 92.6875 305.820312 91.957031 C 305.820312 91.222656 305.746094 90.5 305.601562 89.78125 C 305.460938 89.066406 305.246094 88.367188 304.96875 87.691406 C 304.6875 87.015625 304.34375 86.375 303.9375 85.765625 C 303.527344 85.15625 303.066406 84.59375 302.550781 84.074219 C 302.03125 83.558594 301.46875 83.097656 300.859375 82.6875 C 300.253906 82.28125 299.609375 81.9375 298.933594 81.65625 C 298.257812 81.375 297.5625 81.164062 296.84375 81.019531 C 296.125 80.875 295.398438 80.800781 294.667969 80.800781 Z M 270.011719 146.140625 L 265.539062 146.140625 C 265.371094 146.144531 265.265625 146.066406 265.222656 145.90625 L 264.28125 142.632812 C 261.96875 142 259.964844 140.828125 258.273438 139.125 L 254.957031 139.820312 C 254.800781 139.847656 254.683594 139.796875 254.605469 139.660156 L 252.375 135.777344 C 252.300781 135.636719 252.3125 135.507812 252.421875 135.390625 L 254.710938 133.003906 C 254.410156 131.855469 254.257812 130.683594 254.261719 129.496094 C 254.257812 128.332031 254.40625 127.183594 254.703125 126.058594 L 252.402344 123.425781 C 252.308594 123.300781 252.308594 123.175781 252.402344 123.050781 L 254.675781 119.191406 C 254.761719 119.050781 254.886719 119.003906 255.042969 119.039062 L 258.300781 119.917969 C 259.988281 118.242188 261.980469 117.09375 264.273438 116.472656 L 265.34375 113.207031 C 265.394531 113.054688 265.5 112.976562 265.660156 112.980469 L 270.136719 112.980469 C 270.296875 112.980469 270.402344 113.0625 270.453125 113.21875 L 271.398438 116.480469 C 273.6875 117.109375 275.667969 118.261719 277.347656 119.933594 L 280.683594 119.058594 C 280.84375 119.015625 280.964844 119.066406 281.050781 119.207031 L 283.324219 123.066406 C 283.410156 123.191406 283.410156 123.316406 283.324219 123.445312 L 280.953125 126.136719 C 281.546875 128.417969 281.546875 130.703125 280.953125 132.988281 L 283.242188 135.363281 C 283.363281 135.476562 283.378906 135.605469 283.296875 135.75 L 281.058594 139.632812 C 280.980469 139.769531 280.863281 139.824219 280.707031 139.792969 L 277.296875 139.125 C 275.636719 140.773438 273.683594 141.910156 271.433594 142.539062 L 270.328125 145.878906 C 270.292969 146.050781 270.1875 146.136719 270.011719 146.140625 Z M 265.785156 145.46875 L 269.777344 145.46875 L 270.863281 142.179688 C 270.902344 142.066406 270.976562 141.996094 271.09375 141.96875 C 273.355469 141.363281 275.308594 140.226562 276.953125 138.554688 C 277.035156 138.472656 277.136719 138.441406 277.25 138.460938 L 280.507812 139.144531 L 282.488281 135.636719 L 280.242188 133.300781 C 280.160156 133.210938 280.132812 133.105469 280.164062 132.988281 C 280.796875 130.703125 280.796875 128.417969 280.164062 126.136719 C 280.136719 126.019531 280.160156 125.917969 280.242188 125.828125 L 282.558594 123.199219 L 280.566406 119.832031 L 277.296875 120.707031 C 277.175781 120.734375 277.070312 120.707031 276.980469 120.621094 C 275.316406 118.910156 273.328125 117.757812 271.023438 117.15625 C 270.898438 117.125 270.820312 117.050781 270.785156 116.925781 L 269.847656 113.691406 L 265.855469 113.691406 L 264.800781 116.902344 C 264.761719 117.011719 264.6875 117.082031 264.574219 117.109375 C 262.257812 117.703125 260.265625 118.855469 258.597656 120.566406 C 258.507812 120.648438 258.402344 120.679688 258.28125 120.65625 L 255.085938 119.832031 L 253.050781 123.269531 L 255.308594 125.828125 C 255.390625 125.917969 255.414062 126.019531 255.378906 126.136719 C 254.746094 128.445312 254.746094 130.753906 255.378906 133.066406 C 255.410156 133.1875 255.386719 133.292969 255.296875 133.382812 L 253.050781 135.714844 L 255.035156 139.222656 L 258.289062 138.539062 C 258.410156 138.519531 258.511719 138.550781 258.597656 138.632812 C 260.277344 140.347656 262.28125 141.496094 264.609375 142.082031 C 264.726562 142.117188 264.804688 142.191406 264.84375 142.308594 Z M 267.820312 137.1875 C 267.316406 137.1875 266.816406 137.136719 266.324219 137.039062 C 265.828125 136.941406 265.347656 136.796875 264.882812 136.605469 C 264.417969 136.410156 263.976562 136.175781 263.558594 135.898438 C 263.136719 135.617188 262.75 135.300781 262.394531 134.945312 C 262.039062 134.589844 261.71875 134.199219 261.441406 133.78125 C 261.160156 133.363281 260.921875 132.921875 260.730469 132.457031 C 260.535156 131.992188 260.390625 131.515625 260.292969 131.019531 C 260.191406 130.527344 260.140625 130.027344 260.140625 129.523438 C 260.140625 129.019531 260.1875 128.523438 260.285156 128.027344 C 260.382812 127.535156 260.527344 127.054688 260.71875 126.589844 C 260.914062 126.125 261.148438 125.683594 261.425781 125.261719 C 261.707031 124.84375 262.023438 124.457031 262.378906 124.097656 C 262.734375 123.742188 263.121094 123.421875 263.539062 123.140625 C 263.957031 122.863281 264.398438 122.625 264.863281 122.429688 C 265.328125 122.238281 265.804688 122.089844 266.300781 121.992188 C 266.792969 121.890625 267.292969 121.839844 267.796875 121.839844 C 268.300781 121.835938 268.796875 121.882812 269.292969 121.980469 C 269.785156 122.078125 270.265625 122.222656 270.734375 122.414062 C 271.199219 122.605469 271.640625 122.839844 272.0625 123.117188 C 272.480469 123.394531 272.871094 123.710938 273.226562 124.066406 C 273.585938 124.421875 273.902344 124.804688 274.1875 125.222656 C 274.46875 125.640625 274.707031 126.082031 274.898438 126.546875 C 275.09375 127.011719 275.242188 127.488281 275.34375 127.984375 C 275.441406 128.476562 275.496094 128.972656 275.496094 129.476562 C 275.496094 129.984375 275.449219 130.484375 275.351562 130.976562 C 275.253906 131.472656 275.109375 131.953125 274.917969 132.421875 C 274.726562 132.886719 274.488281 133.332031 274.210938 133.753906 C 273.929688 134.171875 273.609375 134.5625 273.253906 134.917969 C 272.898438 135.277344 272.511719 135.597656 272.089844 135.878906 C 271.671875 136.160156 271.226562 136.394531 270.761719 136.589844 C 270.296875 136.785156 269.816406 136.929688 269.320312 137.027344 C 268.824219 137.128906 268.324219 137.179688 267.820312 137.179688 Z M 267.820312 122.503906 C 267.359375 122.503906 266.902344 122.550781 266.449219 122.640625 C 265.996094 122.730469 265.558594 122.863281 265.132812 123.039062 C 264.707031 123.214844 264.300781 123.433594 263.917969 123.6875 C 263.535156 123.945312 263.179688 124.234375 262.855469 124.558594 C 262.53125 124.886719 262.238281 125.242188 261.984375 125.625 C 261.726562 126.007812 261.511719 126.410156 261.335938 126.835938 C 261.15625 127.261719 261.023438 127.699219 260.933594 128.152344 C 260.84375 128.605469 260.800781 129.0625 260.800781 129.523438 C 260.800781 129.984375 260.84375 130.4375 260.933594 130.890625 C 261.023438 131.34375 261.15625 131.78125 261.335938 132.207031 C 261.511719 132.632812 261.726562 133.035156 261.984375 133.421875 C 262.238281 133.804688 262.53125 134.15625 262.855469 134.484375 C 263.179688 134.808594 263.535156 135.101562 263.917969 135.355469 C 264.300781 135.613281 264.707031 135.828125 265.132812 136.003906 C 265.558594 136.179688 265.996094 136.3125 266.449219 136.402344 C 266.902344 136.492188 267.359375 136.539062 267.820312 136.539062 C 268.28125 136.539062 268.738281 136.492188 269.1875 136.402344 C 269.640625 136.3125 270.078125 136.179688 270.503906 136.003906 C 270.929688 135.828125 271.335938 135.613281 271.71875 135.355469 C 272.101562 135.101562 272.457031 134.808594 272.78125 134.484375 C 273.109375 134.15625 273.398438 133.804688 273.65625 133.421875 C 273.910156 133.035156 274.128906 132.632812 274.304688 132.207031 C 274.480469 131.78125 274.613281 131.34375 274.703125 130.890625 C 274.792969 130.4375 274.839844 129.984375 274.839844 129.523438 C 274.839844 129.058594 274.800781 128.601562 274.710938 128.148438 C 274.625 127.691406 274.492188 127.25 274.316406 126.824219 C 274.140625 126.394531 273.925781 125.988281 273.671875 125.601562 C 273.414062 125.21875 273.125 124.859375 272.796875 124.53125 C 272.472656 124.203125 272.117188 123.910156 271.734375 123.652344 C 271.347656 123.394531 270.941406 123.175781 270.515625 123 C 270.089844 122.820312 269.648438 122.6875 269.195312 122.597656 C 268.738281 122.507812 268.28125 122.460938 267.820312 122.460938 Z M 267.820312 122.503906 " fill-opacity="1" fill-rule="nonzero"/></g><path fill="#f2f2f2" d="M 263.441406 183.171875 L 258.703125 227.800781 L 259.949219 292.851562 L 243.742188 292.851562 L 237.757812 226.300781 C 237.757812 226.300781 240.25 182.183594 240.25 181.4375 Z M 263.441406 183.171875 " fill-opacity="1" fill-rule="nonzero"/><path fill="#5e5e5e" d="M 259.949219 293.183594 L 243.742188 293.183594 C 243.65625 293.1875 243.582031 293.15625 243.519531 293.101562 C 243.453125 293.042969 243.417969 292.972656 243.410156 292.886719 L 237.425781 226.335938 C 237.425781 225.84375 239.917969 182.164062 239.917969 181.4375 C 239.925781 181.355469 239.957031 181.285156 240.011719 181.226562 C 240.085938 181.160156 240.171875 181.128906 240.269531 181.136719 L 263.457031 182.890625 C 263.546875 182.902344 263.625 182.941406 263.6875 183.007812 C 263.742188 183.078125 263.765625 183.160156 263.757812 183.25 L 259.019531 227.878906 L 260.273438 292.894531 C 260.273438 292.988281 260.238281 293.066406 260.175781 293.132812 C 260.105469 293.179688 260.03125 293.195312 259.949219 293.183594 Z M 244.039062 292.527344 L 259.617188 292.527344 L 258.371094 227.800781 L 263.082031 183.480469 L 240.566406 181.789062 C 240.363281 185.953125 238.179688 224.597656 238.082031 226.316406 Z M 244.039062 292.527344 " fill-opacity="1" fill-rule="nonzero"/><path fill="#f2c14e" d="M 210.574219 192.917969 L 221.796875 192.917969 L 221.796875 205.089844 L 210.574219 205.089844 Z M 210.574219 192.917969 " fill-opacity="1" fill-rule="nonzero"/><path fill="#f2c14e" d="M 169.3125 153.835938 L 180.535156 153.835938 L 180.535156 165.238281 L 169.3125 165.238281 Z M 169.3125 153.835938 " fill-opacity="1" fill-rule="nonzero"/><path fill="#f2f2f2" d="M 217.199219 218.941406 L 228.421875 182.453125 L 254.015625 182.453125 L 211.199219 292.730469 L 194.738281 292.730469 Z M 217.199219 218.941406 " fill-opacity="1" fill-rule="nonzero"/><path fill="#5e5e5e" d="M 211.199219 293.0625 L 194.738281 293.0625 C 194.628906 293.0625 194.542969 293.019531 194.476562 292.929688 C 194.390625 292.839844 194.363281 292.734375 194.386719 292.613281 L 216.832031 218.835938 L 228.054688 182.347656 C 228.105469 182.195312 228.210938 182.121094 228.371094 182.121094 L 253.964844 182.121094 C 254.078125 182.121094 254.171875 182.167969 254.238281 182.261719 C 254.285156 182.363281 254.285156 182.464844 254.238281 182.566406 L 211.507812 292.851562 C 211.449219 292.988281 211.347656 293.058594 211.199219 293.0625 Z M 195.1875 292.40625 L 210.980469 292.40625 L 253.527344 182.769531 L 228.652344 182.769531 L 217.5 219.019531 Z M 195.1875 292.40625 " fill-opacity="1" fill-rule="nonzero"/><path fill="#f2f2f2" d="M 204.863281 176.242188 L 204.820312 176.515625 C 204.636719 177.734375 202.882812 188.398438 198.230469 188.53125 L 198.179688 188.53125 C 193.632812 188.53125 178.21875 172.816406 175.8125 170.332031 L 169.820312 170.332031 L 161.921875 160.859375 L 162.195312 160.535156 C 162.710938 159.96875 163.351562 159.652344 164.117188 159.589844 C 164.738281 159.574219 165.289062 159.761719 165.765625 160.160156 C 166.054688 159.898438 166.386719 159.730469 166.765625 159.648438 C 167.667969 159.503906 168.492188 159.691406 169.242188 160.21875 C 169.453125 160.066406 169.6875 159.960938 169.941406 159.914062 C 170.863281 159.820312 171.664062 160.085938 172.347656 160.710938 L 172.433594 160.773438 L 173.257812 162.21875 C 173.816406 162.039062 174.335938 162.113281 174.820312 162.4375 C 175.359375 162.832031 175.835938 163.292969 176.25 163.816406 C 177.339844 163.691406 181.050781 163.421875 183.128906 165.5 C 185 167.367188 192.210938 173.867188 194.421875 175.859375 L 195.921875 168.394531 Z M 204.863281 176.242188 " fill-opacity="1" fill-rule="nonzero"/><path fill="#5e5e5e" d="M 198.238281 188.855469 C 193.589844 188.855469 178.847656 173.945312 175.671875 170.664062 L 169.820312 170.664062 C 169.714844 170.664062 169.632812 170.625 169.566406 170.542969 L 161.667969 161.070312 C 161.546875 160.925781 161.546875 160.785156 161.667969 160.640625 L 161.949219 160.324219 C 162.519531 159.679688 163.238281 159.324219 164.097656 159.265625 C 164.707031 159.238281 165.257812 159.402344 165.757812 159.746094 C 166.042969 159.542969 166.355469 159.402344 166.695312 159.324219 C 167.609375 159.160156 168.453125 159.328125 169.230469 159.832031 C 169.433594 159.714844 169.652344 159.632812 169.882812 159.589844 C 170.886719 159.492188 171.765625 159.785156 172.511719 160.464844 L 172.59375 160.527344 C 172.632812 160.554688 172.660156 160.589844 172.679688 160.632812 L 173.390625 161.859375 C 173.960938 161.753906 174.488281 161.863281 174.96875 162.183594 C 175.492188 162.558594 175.953125 162.992188 176.355469 163.492188 C 177.664062 163.359375 181.253906 163.210938 183.324219 165.246094 C 185.121094 167 191.964844 173.21875 194.1875 175.210938 L 195.5625 168.316406 C 195.585938 168.1875 195.660156 168.105469 195.78125 168.070312 C 195.898438 168.03125 196.003906 168.050781 196.097656 168.132812 L 205.058594 176.023438 C 205.152344 176.101562 205.191406 176.203125 205.171875 176.324219 L 205.128906 176.59375 C 204.835938 178.59375 203.046875 188.726562 198.238281 188.855469 Z M 169.960938 170.007812 L 175.8125 170.007812 C 175.90625 170.007812 175.984375 170.039062 176.050781 170.105469 C 184.140625 178.453125 194.78125 188.207031 198.179688 188.207031 C 201.777344 188.101562 203.835938 180.777344 204.496094 176.464844 L 204.496094 176.375 L 196.144531 169.015625 L 194.730469 175.964844 C 194.703125 176.089844 194.632812 176.171875 194.511719 176.207031 C 194.390625 176.246094 194.28125 176.222656 194.1875 176.140625 C 192.019531 174.183594 184.78125 167.667969 182.875 165.761719 C 180.972656 163.859375 177.332031 164.0625 176.277344 164.183594 C 176.15625 164.199219 176.054688 164.160156 175.980469 164.0625 C 175.585938 163.5625 175.132812 163.128906 174.621094 162.753906 C 174.222656 162.484375 173.796875 162.421875 173.339844 162.570312 C 173.171875 162.621094 173.042969 162.574219 172.953125 162.421875 L 172.136719 161.007812 C 171.527344 160.449219 170.8125 160.203125 169.988281 160.273438 C 169.777344 160.308594 169.589844 160.390625 169.425781 160.519531 C 169.300781 160.605469 169.171875 160.605469 169.046875 160.519531 C 168.378906 160.039062 167.632812 159.863281 166.820312 159.984375 C 166.488281 160.050781 166.195312 160.195312 165.941406 160.421875 C 165.804688 160.539062 165.667969 160.539062 165.53125 160.421875 C 165.109375 160.074219 164.625 159.90625 164.082031 159.921875 C 163.40625 159.988281 162.847656 160.28125 162.40625 160.796875 L 162.308594 160.902344 Z M 169.960938 170.007812 " fill-opacity="1" fill-rule="nonzero"/><path fill="#f2c14e" d="M 263.5625 182.558594 C 249.042969 201.328125 226.027344 190.714844 226.027344 190.714844 L 208.832031 169.464844 L 204.59375 177.4375 L 193.871094 173.199219 L 196.738281 160.613281 C 197.074219 159.03125 197.734375 157.59375 198.714844 156.304688 C 199.695312 155.015625 200.90625 154 202.347656 153.253906 L 217.683594 148.152344 C 226.914062 147.660156 231.898438 150.394531 231.898438 150.394531 C 232.40625 150.859375 243.664062 157.753906 243.664062 157.753906 L 241.910156 161.261719 C 250.691406 170.199219 263.5625 182.558594 263.5625 182.558594 Z M 263.5625 182.558594 " fill-opacity="1" fill-rule="nonzero"/><path fill="#f2f2f2" d="M 217.078125 150.257812 L 217.078125 150.363281 L 217.015625 150.457031 C 216.039062 151.960938 214.695312 152.988281 212.988281 153.535156 C 211.921875 153.78125 210.84375 153.898438 209.75 153.886719 C 209.121094 153.890625 208.492188 153.859375 207.863281 153.789062 L 207.566406 153.789062 L 205.863281 149.40625 C 203.390625 150.414062 201.265625 150.34375 199.546875 149.203125 C 194.535156 145.878906 194.816406 134.617188 194.828125 134.144531 L 194.828125 133.800781 L 210.179688 128.285156 L 212.234375 134.941406 C 212.671875 134.824219 213.105469 134.828125 213.542969 134.957031 C 213.976562 135.082031 214.34375 135.316406 214.648438 135.652344 C 215.832031 137.238281 214.199219 140.695312 213.707031 141.660156 C 217.121094 149.90625 217.105469 150.089844 217.078125 150.257812 Z M 217.078125 150.257812 " fill-opacity="1" fill-rule="nonzero"/><path fill="#5e5e5e" d="M 209.742188 154.210938 C 209.101562 154.214844 208.460938 154.183594 207.820312 154.113281 L 207.523438 154.113281 C 207.390625 154.105469 207.296875 154.039062 207.25 153.914062 L 205.671875 149.878906 C 203.222656 150.757812 201.101562 150.675781 199.355469 149.519531 C 194.1875 146.089844 194.476562 134.660156 194.492188 134.179688 L 194.492188 133.835938 C 194.5 133.6875 194.574219 133.589844 194.710938 133.539062 L 210.058594 128.011719 C 210.144531 127.976562 210.226562 127.976562 210.3125 128.011719 C 210.394531 128.058594 210.453125 128.125 210.480469 128.214844 L 212.453125 134.609375 C 212.910156 134.523438 213.355469 134.5625 213.792969 134.71875 C 214.226562 134.875 214.59375 135.128906 214.894531 135.484375 C 216.105469 137.109375 214.769531 140.273438 214.015625 141.703125 C 217.421875 149.894531 217.394531 150.0625 217.359375 150.328125 L 217.359375 150.429688 C 217.351562 150.480469 217.335938 150.523438 217.304688 150.5625 L 217.253906 150.660156 C 216.234375 152.238281 214.828125 153.3125 213.03125 153.878906 C 211.949219 154.121094 210.851562 154.234375 209.742188 154.210938 Z M 207.792969 153.449219 L 207.890625 153.449219 C 208.03125 153.449219 208.769531 153.535156 209.742188 153.535156 C 210.808594 153.554688 211.863281 153.441406 212.902344 153.195312 C 214.523438 152.671875 215.800781 151.695312 216.726562 150.265625 L 216.726562 150.195312 C 216.726562 149.914062 215.675781 147.316406 213.367188 141.773438 C 213.324219 141.679688 213.324219 141.585938 213.367188 141.492188 C 214.394531 139.503906 215.183594 136.96875 214.339844 135.835938 C 214.070312 135.550781 213.75 135.355469 213.371094 135.25 C 212.992188 135.144531 212.613281 135.144531 212.234375 135.25 C 212.046875 135.28125 211.925781 135.207031 211.875 135.019531 L 209.925781 128.6875 L 195.117188 134.03125 L 195.117188 134.144531 C 195.117188 134.609375 194.816406 145.6875 199.6875 148.921875 C 201.3125 150 203.335938 150.0625 205.699219 149.097656 C 205.78125 149.0625 205.867188 149.0625 205.953125 149.097656 C 206.035156 149.136719 206.09375 149.195312 206.128906 149.28125 Z M 217.058594 150.359375 Z M 217.058594 150.359375 " fill-opacity="1" fill-rule="nonzero"/><path fill="#5e5e5e" d="M 215.015625 138.460938 C 214.429688 135.707031 210.777344 136.519531 210.234375 138.820312 C 209.691406 141.117188 208.039062 141.132812 208.039062 141.132812 C 207.117188 139.351562 206.332031 137.507812 205.679688 135.609375 C 205.023438 133.390625 203.441406 134.609375 203.441406 134.609375 C 201.6875 136.984375 199.933594 137.765625 198.441406 137.90625 C 198.011719 137.9375 197.585938 137.90625 197.164062 137.816406 C 196.742188 137.722656 196.34375 137.574219 195.964844 137.363281 C 195.585938 137.15625 195.246094 136.898438 194.941406 136.589844 C 194.640625 136.28125 194.386719 135.9375 194.1875 135.554688 C 191.132812 130.011719 197.75 125.96875 200.671875 125.03125 C 202.960938 124.277344 208.375 123.339844 212.382812 126.304688 C 218.480469 130.765625 215.015625 138.460938 215.015625 138.460938 Z M 215.015625 138.460938 " fill-opacity="1" fill-rule="nonzero"/><path fill="#32292f" d="M 37.199219 298.660156 L 35.671875 298.660156 L 34.792969 304.0625 L 12.859375 302.070312 L 19.34375 296.335938 L 21.535156 296.175781 L 21.316406 294.730469 L 33.679688 288.976562 L 38.585938 293.632812 Z M 37.199219 298.660156 " fill-opacity="1" fill-rule="nonzero"/><path fill="#5e5e5e" d="M 23.546875 296.34375 C 23.546875 296.34375 16.910156 296.34375 15.832031 302.246094 L 1.214844 304.808594 C 1.074219 304.832031 0.941406 304.8125 0.8125 304.742188 C 0.6875 304.675781 0.59375 304.578125 0.535156 304.445312 C 0.476562 304.316406 0.464844 304.179688 0.5 304.042969 C 0.535156 303.902344 0.609375 303.789062 0.722656 303.703125 L 19.148438 289.5625 C 19.285156 289.457031 19.441406 289.386719 19.609375 289.351562 C 19.78125 289.316406 19.949219 289.324219 20.117188 289.367188 C 20.285156 289.414062 20.433594 289.492188 20.566406 289.605469 C 20.695312 289.722656 20.792969 289.859375 20.859375 290.019531 Z M 23.546875 296.34375 " fill-opacity="1" fill-rule="nonzero"/><path fill="#f2c14e" d="M 132.855469 237.113281 L 121.914062 239.605469 L 119.472656 228.929688 L 130.414062 226.4375 Z M 132.855469 237.113281 " fill-opacity="1" fill-rule="nonzero"/><path fill="#32292f" d="M 124.28125 239.664062 L 124.394531 240.210938 L 112.789062 241.246094 L 85.191406 261.347656 C 84.761719 261.660156 84.285156 261.890625 83.773438 262.039062 C 83.257812 262.1875 82.734375 262.242188 82.203125 262.207031 C 81.667969 262.167969 81.15625 262.042969 80.667969 261.824219 C 80.179688 261.609375 79.742188 261.316406 79.359375 260.945312 L 67.214844 249.226562 L 76.671875 240.316406 L 84.980469 248.621094 L 106.769531 236.621094 L 110.882812 231.949219 C 111.816406 230.890625 112.949219 230.121094 114.277344 229.648438 L 124.414062 226.054688 L 124.289062 226.878906 C 124.167969 227.441406 123.960938 227.972656 123.671875 228.476562 C 123.386719 228.976562 123.03125 229.421875 122.605469 229.816406 C 122.179688 230.207031 121.707031 230.527344 121.183594 230.773438 C 120.664062 231.019531 120.117188 231.183594 119.542969 231.261719 L 116.761719 233.816406 C 116.59375 234.464844 116.691406 235.070312 117.0625 235.632812 C 117.613281 236.386719 118.816406 236.789062 120.570312 236.789062 C 120.996094 236.78125 121.414062 236.84375 121.820312 236.976562 C 122.226562 237.113281 122.597656 237.308594 122.933594 237.570312 C 123.273438 237.832031 123.554688 238.144531 123.789062 238.503906 C 124.019531 238.863281 124.183594 239.25 124.28125 239.664062 Z M 124.28125 239.664062 " fill-opacity="1" fill-rule="nonzero"/><path fill="#f2f2f2" d="M 53.472656 266.679688 C 53.472656 266.679688 84.921875 275.714844 96.730469 289.167969 C 99.273438 292.0625 97.363281 299.832031 91.878906 299.832031 L 43.753906 296.597656 Z M 53.472656 266.679688 " fill-opacity="1" fill-rule="nonzero"/><path fill="#5e5e5e" d="M 91.878906 300.167969 L 43.726562 296.921875 C 43.621094 296.914062 43.539062 296.867188 43.480469 296.78125 C 43.429688 296.683594 43.429688 296.589844 43.480469 296.492188 L 53.121094 266.582031 C 53.152344 266.5 53.207031 266.4375 53.28125 266.394531 C 53.359375 266.355469 53.441406 266.34375 53.527344 266.363281 C 53.84375 266.460938 85.203125 275.582031 96.941406 288.949219 C 98.371094 290.570312 98.539062 293.660156 97.34375 296.289062 C 97.132812 296.847656 96.84375 297.363281 96.480469 297.835938 C 96.113281 298.308594 95.6875 298.714844 95.203125 299.0625 C 94.714844 299.40625 94.1875 299.671875 93.621094 299.863281 C 93.058594 300.050781 92.476562 300.152344 91.878906 300.167969 Z M 44.191406 296.300781 L 91.894531 299.507812 C 92.433594 299.492188 92.953125 299.398438 93.460938 299.226562 C 93.96875 299.054688 94.441406 298.816406 94.875 298.5 C 95.3125 298.1875 95.691406 297.820312 96.015625 297.394531 C 96.34375 296.96875 96.597656 296.503906 96.785156 296 C 97.855469 293.632812 97.730469 290.78125 96.484375 289.371094 C 85.492188 276.828125 56.957031 268.058594 53.683594 267.09375 Z M 44.191406 296.300781 " fill-opacity="1" fill-rule="nonzero"/><path fill="#f2c14e" d="M 80.058594 242.445312 L 70.75 255.480469 L 65.117188 250.078125 L 63.652344 270.90625 L 27.816406 271.679688 L 32.433594 258.410156 L 23.183594 251.910156 L 27.378906 242.050781 L 25.308594 241.269531 L 32.371094 229.378906 C 33.03125 228.257812 33.898438 227.335938 34.976562 226.605469 C 36.050781 225.875 37.230469 225.410156 38.515625 225.210938 L 52.246094 223.011719 L 52.421875 223.308594 C 52.421875 223.359375 55.054688 227.859375 58.300781 228.195312 C 59.703125 228.332031 61.054688 227.675781 62.335938 226.21875 L 62.679688 225.835938 L 72.523438 235.167969 Z M 80.058594 242.445312 " fill-opacity="1" fill-rule="nonzero"/><path fill="#f2f2f2" d="M 44.496094 269.671875 C 55.753906 270.425781 83.394531 285.878906 87.640625 292.613281 C 88.496094 293.90625 89.089844 295.308594 89.425781 296.820312 C 89.765625 298.332031 89.820312 299.855469 89.597656 301.386719 C 89.515625 301.90625 89.34375 302.394531 89.082031 302.851562 C 88.824219 303.3125 88.492188 303.710938 88.089844 304.046875 C 87.6875 304.386719 87.238281 304.644531 86.742188 304.824219 C 86.246094 305 85.738281 305.085938 85.210938 305.078125 L 30.308594 305.078125 C 29.0625 300.84375 31.800781 292.859375 31.800781 292.859375 C 15.839844 284.886719 29.167969 269.046875 29.167969 269.046875 Z M 44.496094 269.671875 " fill-opacity="1" fill-rule="nonzero"/><path fill="#5e5e5e" d="M 85.246094 305.402344 L 30.308594 305.402344 C 30.144531 305.40625 30.039062 305.324219 29.992188 305.167969 C 28.84375 301.273438 30.925781 294.484375 31.40625 293.019531 C 27.160156 290.835938 24.625 287.878906 23.871094 284.246094 C 22.335938 276.792969 28.660156 269.160156 28.933594 268.847656 C 29 268.761719 29.085938 268.71875 29.195312 268.722656 L 44.53125 269.363281 C 55.753906 270.109375 83.71875 285.738281 87.9375 292.449219 C 88.800781 293.769531 89.402344 295.199219 89.746094 296.738281 C 90.085938 298.277344 90.144531 299.824219 89.921875 301.386719 C 89.835938 301.945312 89.65625 302.472656 89.382812 302.964844 C 89.105469 303.460938 88.753906 303.890625 88.328125 304.257812 C 87.898438 304.628906 87.417969 304.910156 86.886719 305.105469 C 86.359375 305.304688 85.8125 305.402344 85.246094 305.402344 Z M 30.539062 304.746094 L 85.246094 304.746094 C 85.730469 304.746094 86.199219 304.660156 86.652344 304.496094 C 87.105469 304.328125 87.519531 304.089844 87.886719 303.773438 C 88.257812 303.460938 88.558594 303.09375 88.796875 302.671875 C 89.035156 302.25 89.195312 301.800781 89.273438 301.324219 C 89.484375 299.832031 89.425781 298.347656 89.09375 296.875 C 88.761719 295.402344 88.175781 294.039062 87.34375 292.78125 C 83.175781 286.160156 55.542969 270.742188 44.453125 269.976562 L 29.292969 269.347656 C 28.484375 270.363281 23.097656 277.433594 24.476562 284.074219 C 25.203125 287.582031 27.703125 290.429688 31.90625 292.535156 C 32.078125 292.621094 32.132812 292.757812 32.074219 292.941406 C 32.066406 293.035156 29.492188 300.597656 30.539062 304.746094 Z M 30.539062 304.746094 " fill-opacity="1" fill-rule="nonzero"/><path fill="#32292f" d="M 68.40625 278.582031 C 68.25 278.730469 68.066406 278.824219 67.855469 278.859375 C 67.640625 278.894531 67.4375 278.867188 67.242188 278.773438 L 51.121094 271.609375 L 23.625 261.839844 C 23.335938 261.734375 23.058594 261.605469 22.796875 261.445312 C 22.535156 261.289062 22.289062 261.105469 22.066406 260.894531 C 21.839844 260.6875 21.636719 260.457031 21.457031 260.210938 C 21.28125 259.960938 21.128906 259.695312 21 259.417969 C 20.875 259.136719 20.78125 258.847656 20.714844 258.546875 C 20.648438 258.25 20.609375 257.945312 20.605469 257.636719 C 20.601562 257.332031 20.625 257.027344 20.679688 256.726562 C 20.738281 256.425781 20.824219 256.132812 20.9375 255.847656 L 26.667969 241.746094 L 37.6875 246.402344 L 34.179688 254.03125 L 54.359375 266.207031 L 60.441406 267.128906 C 61.160156 267.238281 61.832031 267.484375 62.453125 267.863281 C 63.078125 268.246094 63.601562 268.730469 64.027344 269.320312 L 67.347656 273.925781 L 68.652344 277.433594 C 68.730469 277.632812 68.746094 277.835938 68.699219 278.042969 C 68.65625 278.253906 68.558594 278.429688 68.40625 278.582031 Z M 68.40625 278.582031 " fill-opacity="1" fill-rule="nonzero"/><path fill="#5e5e5e" d="M 374.199219 289.34375 C 374.332031 289.464844 374.433594 289.613281 374.5 289.78125 C 374.566406 289.953125 374.589844 290.128906 374.574219 290.308594 C 374.558594 290.492188 374.5 290.660156 374.40625 290.816406 C 374.3125 290.972656 374.1875 291.097656 374.03125 291.195312 L 353.429688 304.253906 C 353.300781 304.332031 353.164062 304.363281 353.015625 304.347656 C 352.867188 304.332031 352.738281 304.273438 352.628906 304.171875 C 352.523438 304.066406 352.457031 303.941406 352.433594 303.792969 C 352.410156 303.648438 352.4375 303.507812 352.507812 303.378906 L 360.316406 289.90625 C 366.503906 290.964844 368.925781 284.449219 368.925781 284.449219 Z M 374.199219 289.34375 " fill-opacity="1" fill-rule="nonzero"/><path fill="#5e5e5e" d="M 313.867188 158.070312 C 316.570312 155.035156 313.460938 150.027344 313.769531 146.003906 C 314.734375 133.398438 327.492188 133.222656 327.492188 133.222656 C 338.617188 134.441406 339.09375 144.214844 339.25 148.710938 C 339.574219 157.542969 343.101562 159.238281 345.644531 162.246094 C 348.191406 165.253906 350.464844 173.050781 345.191406 177.007812 C 333.320312 185.917969 313.769531 183.375 310.050781 174.929688 C 307.792969 169.824219 309.242188 163.273438 313.867188 158.070312 Z M 313.867188 158.070312 " fill-opacity="1" fill-rule="nonzero"/><path fill="#5e5e5e" d="M 320.578125 164.796875 L 321.816406 157.421875 C 319.367188 157.105469 317.683594 156.078125 316.8125 154.371094 C 314.261719 149.351562 319.710938 140.238281 319.945312 139.855469 L 320.746094 138.519531 L 320.839844 140.074219 C 321.210938 146.210938 329.949219 146.933594 330.035156 146.933594 C 330.519531 146.902344 330.972656 147.003906 331.398438 147.242188 C 331.820312 147.476562 332.144531 147.8125 332.371094 148.238281 C 333.144531 149.992188 331.011719 152.941406 330.363281 153.765625 L 332.785156 164.824219 Z M 320.578125 164.796875 " fill-opacity="1" fill-rule="nonzero"/><path fill="#5e5e5e" d="M 318.691406 180.472656 L 305.199219 194.996094 C 304.699219 195.535156 304.113281 195.953125 303.441406 196.246094 C 302.765625 196.542969 302.0625 196.6875 301.328125 196.6875 C 301.140625 196.703125 300.953125 196.703125 300.765625 196.6875 C 299.9375 196.605469 299.171875 196.339844 298.46875 195.894531 C 297.765625 195.449219 297.203125 194.867188 296.773438 194.152344 L 286.332031 176.753906 L 291.335938 173.621094 L 300.441406 185.023438 L 305.828125 176.558594 Z M 318.691406 180.472656 " fill-opacity="1" fill-rule="nonzero"/><path fill="#f2c14e" d="M 367.855469 280.878906 L 356.5625 287.746094 L 326.878906 244.8125 L 325.789062 240.535156 L 322.34375 250.09375 L 322.648438 270.363281 L 307.574219 273.082031 L 306.179688 246.902344 L 311.902344 205.785156 L 316.664062 204.652344 L 315.789062 201.371094 L 336.40625 200.882812 C 341.804688 214.125 343.03125 240.351562 343.03125 240.351562 Z M 367.855469 280.878906 " fill-opacity="1" fill-rule="nonzero"/><path fill="#f2f2f2" d="M 341.792969 211.582031 L 341.792969 211.957031 L 341.433594 212.039062 C 341.285156 212.039062 326.648438 215.246094 322.367188 215.835938 C 320.707031 216.058594 319.042969 216.171875 317.367188 216.167969 C 314.15625 216.1875 310.996094 215.804688 307.882812 215.027344 L 307.46875 214.914062 L 312.636719 181.953125 L 303.742188 178.71875 L 310.136719 167.5 C 310.78125 166.359375 311.6875 165.5 312.855469 164.910156 C 315.488281 163.570312 317.964844 161.542969 320.464844 159.914062 C 323.007812 164.570312 328.359375 162.914062 331.957031 160.597656 L 332.230469 160.421875 L 332.503906 160.605469 C 343.707031 168.339844 341.898438 209.820312 341.792969 211.582031 Z M 341.792969 211.582031 " fill-opacity="1" fill-rule="nonzero"/><path fill="#5e5e5e" d="M 317.375 216.492188 C 314.136719 216.511719 310.945312 216.128906 307.804688 215.34375 L 307.390625 215.230469 C 307.203125 215.175781 307.125 215.054688 307.152344 214.863281 L 312.277344 182.171875 L 303.636719 179.03125 C 303.535156 179 303.472656 178.933594 303.441406 178.832031 C 303.402344 178.742188 303.402344 178.648438 303.441406 178.558594 L 309.839844 167.339844 C 310.519531 166.144531 311.472656 165.238281 312.699219 164.613281 C 314.441406 163.671875 316.105469 162.609375 317.691406 161.421875 C 318.570312 160.824219 319.445312 160.203125 320.269531 159.667969 C 320.359375 159.628906 320.445312 159.628906 320.535156 159.667969 C 320.625 159.691406 320.695312 159.742188 320.746094 159.824219 C 321.066406 160.476562 321.503906 161.027344 322.066406 161.488281 C 322.625 161.949219 323.257812 162.269531 323.957031 162.457031 C 326.957031 163.210938 330.421875 161.261719 331.773438 160.394531 L 332.046875 160.21875 C 332.167969 160.136719 332.285156 160.136719 332.40625 160.21875 L 332.679688 160.402344 C 344.023438 168.234375 342.214844 209.898438 342.136719 211.667969 L 342.136719 212.039062 C 342.128906 212.210938 342.042969 212.3125 341.875 212.34375 L 341.515625 212.421875 C 341.375 212.421875 326.683594 215.640625 322.421875 216.230469 C 320.746094 216.429688 319.0625 216.519531 317.375 216.492188 Z M 307.847656 214.667969 L 307.980469 214.710938 C 311.0625 215.480469 314.195312 215.855469 317.375 215.835938 C 319.035156 215.839844 320.6875 215.730469 322.332031 215.511719 C 326.570312 214.921875 341.222656 211.738281 341.375 211.714844 L 341.488281 211.714844 L 341.488281 211.589844 C 341.566406 209.835938 343.363281 168.535156 332.308594 160.902344 L 332.222656 160.84375 L 332.144531 160.902344 C 330.710938 161.78125 327.054688 163.867188 323.796875 163.050781 C 323.070312 162.867188 322.40625 162.542969 321.804688 162.089844 C 321.207031 161.632812 320.722656 161.074219 320.351562 160.421875 C 319.597656 160.929688 318.824219 161.472656 318.078125 162 C 316.46875 163.207031 314.777344 164.289062 313.007812 165.246094 C 311.894531 165.808594 311.035156 166.628906 310.417969 167.710938 L 304.214844 178.585938 L 312.742188 181.691406 C 312.914062 181.75 312.988281 181.871094 312.960938 182.050781 Z M 341.792969 211.921875 Z M 341.792969 211.921875 " fill-opacity="1" fill-rule="nonzero"/><path fill="#f2c14e" d="M 273.242188 155.894531 L 309.8125 155.894531 L 309.8125 193.101562 L 273.242188 193.101562 Z M 273.242188 155.894531 " fill-opacity="1" fill-rule="nonzero"/><path fill="#5e5e5e" d="M 336.601562 183.542969 L 329.378906 197.117188 C 329.097656 197.648438 328.714844 198.09375 328.234375 198.457031 C 327.753906 198.816406 327.222656 199.058594 326.632812 199.179688 C 326.359375 199.234375 326.085938 199.265625 325.808594 199.265625 C 324.867188 199.269531 324.027344 198.976562 323.289062 198.390625 L 304.242188 183.136719 L 300.582031 182.355469 L 295.070312 179.601562 L 295.011719 179.4375 C 294.761719 178.925781 294.761719 178.414062 295.011719 177.902344 C 295.078125 177.804688 295.160156 177.71875 295.257812 177.648438 C 295.011719 177.203125 294.957031 176.734375 295.089844 176.242188 C 295.15625 176.070312 295.265625 175.925781 295.414062 175.8125 C 295.367188 175.460938 295.425781 175.121094 295.585938 174.804688 C 295.746094 174.484375 295.980469 174.234375 296.292969 174.058594 C 296.007812 173.664062 295.941406 173.234375 296.089844 172.769531 C 296.210938 172.5 296.519531 172.183594 297.28125 172.183594 C 297.433594 172.183594 297.6875 172.183594 301.214844 174.359375 L 302.679688 175.023438 L 301.976562 173.859375 C 301.738281 173.773438 301.523438 173.652344 301.324219 173.496094 C 301.128906 173.335938 300.96875 173.148438 300.835938 172.929688 C 300.707031 172.714844 300.617188 172.484375 300.570312 172.234375 C 300.523438 171.988281 300.515625 171.738281 300.554688 171.488281 L 300.660156 170.980469 L 304.171875 171.945312 L 304.265625 172.035156 C 305.667969 173.445312 306.925781 174.976562 308.039062 176.621094 L 308.039062 176.691406 L 308.515625 177.875 L 322.492188 186.761719 L 326.703125 178.601562 Z M 336.601562 183.542969 " fill-opacity="1" fill-rule="nonzero"/><path fill="#5e5e5e" d="M 241.179688 194.058594 C 235.839844 194.015625 230.6875 193 225.730469 191.015625 C 225.65625 190.972656 225.605469 190.910156 225.578125 190.828125 C 225.550781 190.746094 225.554688 190.667969 225.589844 190.589844 C 225.625 190.511719 225.683594 190.453125 225.761719 190.417969 C 225.839844 190.386719 225.917969 190.382812 226 190.410156 C 226.238281 190.523438 249.859375 200.792969 263.246094 182.621094 C 263.300781 182.546875 263.375 182.507812 263.464844 182.496094 C 263.550781 182.484375 263.632812 182.503906 263.703125 182.558594 C 263.78125 182.609375 263.824219 182.679688 263.839844 182.773438 C 263.851562 182.863281 263.832031 182.941406 263.773438 183.015625 C 257.351562 191.75 248.648438 194.058594 241.179688 194.058594 Z M 241.179688 194.058594 " fill-opacity="1" fill-rule="nonzero"/><path fill="#f2f2f2" d="M 258.007812 172.023438 C 258.035156 172.734375 257.917969 173.421875 257.65625 174.082031 C 257.394531 174.742188 257.011719 175.320312 256.507812 175.824219 L 233.871094 198.222656 L 230.109375 202.609375 L 223.449219 207.390625 L 211.867188 207.390625 C 211.621094 207.390625 211.390625 207.332031 211.175781 207.207031 C 210.964844 207.082031 210.800781 206.914062 210.679688 206.695312 C 210.410156 206.238281 210.410156 205.777344 210.679688 205.320312 C 211.046875 204.742188 211.566406 204.386719 212.234375 204.25 L 219.992188 202.695312 L 222.492188 199.574219 L 220.121094 198.285156 C 219.84375 198.136719 219.644531 197.921875 219.515625 197.636719 C 219.386719 197.347656 219.363281 197.054688 219.441406 196.75 C 219.515625 196.445312 219.679688 196.199219 219.929688 196.007812 C 220.175781 195.816406 220.457031 195.722656 220.773438 195.722656 L 226.167969 195.804688 L 243.226562 172.867188 L 234.195312 166.851562 L 242.785156 157.625 L 256.167969 168.386719 C 256.710938 168.839844 257.144531 169.382812 257.464844 170.015625 C 257.785156 170.648438 257.964844 171.316406 258.007812 172.023438 Z M 258.007812 172.023438 " fill-opacity="1" fill-rule="nonzero"/><path fill="#5e5e5e" d="M 223.457031 207.6875 L 211.867188 207.6875 C 211.558594 207.6875 211.277344 207.609375 211.011719 207.453125 C 210.75 207.296875 210.542969 207.082031 210.394531 206.816406 C 210.25 206.546875 210.179688 206.261719 210.1875 205.957031 C 210.195312 205.648438 210.28125 205.367188 210.445312 205.109375 C 210.855469 204.453125 211.441406 204.046875 212.199219 203.890625 L 219.832031 202.363281 L 222.027344 199.644531 L 220 198.546875 C 219.652344 198.367188 219.402344 198.097656 219.246094 197.738281 C 219.089844 197.382812 219.0625 197.011719 219.167969 196.636719 C 219.261719 196.261719 219.464844 195.957031 219.769531 195.722656 C 220.074219 195.488281 220.421875 195.371094 220.808594 195.375 L 226.070312 195.441406 L 242.820312 172.917969 L 234.046875 167.097656 C 233.964844 167.039062 233.914062 166.960938 233.898438 166.859375 C 233.890625 166.757812 233.917969 166.671875 233.984375 166.597656 L 242.585938 157.371094 C 242.648438 157.308594 242.722656 157.28125 242.808594 157.28125 C 242.894531 157.28125 242.96875 157.308594 243.03125 157.371094 L 256.429688 168.070312 C 256.714844 168.3125 256.972656 168.582031 257.203125 168.875 C 257.433594 169.171875 257.628906 169.488281 257.792969 169.824219 C 257.957031 170.160156 258.082031 170.511719 258.175781 170.875 C 258.265625 171.238281 258.316406 171.605469 258.332031 171.980469 C 258.347656 172.355469 258.324219 172.726562 258.261719 173.09375 C 258.199219 173.464844 258.097656 173.820312 257.960938 174.167969 C 257.824219 174.519531 257.652344 174.847656 257.445312 175.160156 C 257.238281 175.472656 257.003906 175.761719 256.738281 176.023438 L 234.109375 198.425781 L 230.363281 202.785156 L 223.640625 207.625 C 223.585938 207.664062 223.523438 207.683594 223.457031 207.6875 Z M 220.824219 196.023438 C 220.589844 196.019531 220.375 196.09375 220.191406 196.238281 C 220.003906 196.378906 219.878906 196.566406 219.820312 196.792969 C 219.757812 197.023438 219.777344 197.246094 219.867188 197.460938 C 219.960938 197.679688 220.109375 197.84375 220.316406 197.960938 L 222.683594 199.25 C 222.777344 199.296875 222.832031 199.367188 222.851562 199.46875 C 222.871094 199.570312 222.847656 199.660156 222.78125 199.742188 L 220.28125 202.871094 C 220.230469 202.933594 220.167969 202.972656 220.085938 202.984375 L 212.332031 204.539062 C 211.765625 204.648438 211.320312 204.941406 210.996094 205.414062 C 210.78125 205.757812 210.773438 206.105469 210.972656 206.460938 C 211.167969 206.8125 211.46875 206.988281 211.875 206.984375 L 223.34375 206.984375 L 229.921875 202.277344 L 233.636719 197.988281 L 256.273438 175.558594 C 256.738281 175.097656 257.097656 174.5625 257.339844 173.953125 C 257.585938 173.34375 257.695312 172.707031 257.675781 172.050781 C 257.648438 171.390625 257.488281 170.757812 257.199219 170.164062 C 256.910156 169.566406 256.511719 169.054688 256.007812 168.621094 L 242.847656 158.097656 L 234.75 166.753906 L 243.460938 172.558594 C 243.539062 172.609375 243.585938 172.679688 243.601562 172.769531 C 243.621094 172.863281 243.597656 172.949219 243.539062 173.023438 L 226.484375 195.96875 C 226.414062 196.058594 226.324219 196.101562 226.210938 196.101562 Z M 220.824219 196.023438 " fill-opacity="1" fill-rule="nonzero"/><g clip-path="url(#8f2b5c4c08)"><path fill="#5e5e5e" d="M 324.992188 307.253906 C 325.070312 307.980469 314.917969 308.128906 311.269531 308.210938 C 307.617188 308.289062 304.976562 308.570312 305.128906 306.921875 C 305.214844 305.824219 308.152344 304.902344 310.539062 304.332031 C 312.773438 303.800781 314.90625 303.011719 316.945312 301.957031 L 317.65625 301.585938 C 317.84375 298.597656 317.539062 295.65625 316.742188 292.765625 C 315.945312 289.875 314.703125 287.195312 313.007812 284.722656 C 309.058594 281.125 307.566406 273.082031 307.566406 273.082031 L 322.667969 270.300781 C 322.667969 270.300781 323.070312 277.03125 321.621094 281.792969 C 321.402344 284.019531 320.191406 296.949219 321.5 301.484375 C 321.78125 303.085938 324.9375 306.78125 324.992188 307.253906 Z M 324.992188 307.253906 " fill-opacity="1" fill-rule="nonzero"/></g></svg>