<svg xmlns="http://www.w3.org/2000/svg" xmlns:xlink="http://www.w3.org/1999/xlink" width="500" zoomAndPan="magnify" viewBox="0 0 375 374.999991" height="500" preserveAspectRatio="xMidYMid meet" version="1.0"><defs><clipPath id="e13b90cb0b"><path d="M 14 329 L 68 329 L 68 346.226562 L 14 346.226562 Z M 14 329 " clip-rule="nonzero"/></clipPath><clipPath id="66c3d1f304"><path d="M 184 28.976562 L 256 28.976562 L 256 75 L 184 75 Z M 184 28.976562 " clip-rule="nonzero"/></clipPath></defs><path fill="#32292f" d="M 352.597656 338.871094 L 329.007812 338.871094 C 328.859375 338.875 328.726562 338.832031 328.609375 338.742188 C 328.492188 338.648438 328.417969 338.53125 328.382812 338.390625 C 328.347656 338.246094 328.359375 338.105469 328.421875 337.972656 C 328.484375 337.839844 328.582031 337.738281 328.714844 337.671875 L 341.492188 330.976562 L 341.492188 323.8125 L 352.40625 323.8125 L 352.40625 332.679688 L 353.652344 337.445312 C 353.699219 337.613281 353.703125 337.78125 353.671875 337.953125 C 353.640625 338.121094 353.570312 338.277344 353.46875 338.414062 C 353.367188 338.554688 353.238281 338.664062 353.085938 338.742188 C 352.933594 338.824219 352.769531 338.867188 352.597656 338.871094 Z M 352.597656 338.871094 " fill-opacity="1" fill-rule="nonzero"/><path fill="#32292f" d="M 374.109375 316.796875 L 354.085938 329.34375 C 353.964844 329.425781 353.828125 329.460938 353.679688 329.445312 C 353.53125 329.433594 353.40625 329.375 353.300781 329.273438 C 353.191406 329.167969 353.128906 329.042969 353.113281 328.894531 C 353.09375 328.75 353.121094 328.613281 353.199219 328.484375 L 360.410156 316.210938 L 356.777344 310.253906 L 366.03125 304.457031 L 369.984375 310.960938 L 374.289062 315.003906 C 374.417969 315.125 374.511719 315.265625 374.570312 315.433594 C 374.632812 315.597656 374.65625 315.769531 374.636719 315.945312 C 374.621094 316.117188 374.566406 316.28125 374.472656 316.429688 C 374.378906 316.582031 374.257812 316.703125 374.109375 316.796875 Z M 374.109375 316.796875 " fill-opacity="1" fill-rule="nonzero"/><path fill="#f2f2f2" d="M 121.722656 311.179688 L 117.269531 319.929688 L 109.078125 318.761719 L 112.597656 311.207031 Z M 69.300781 311.292969 L 66.222656 318.769531 L 74.460938 319.929688 L 78.90625 311.179688 Z M 69.300781 311.292969 " fill-opacity="1" fill-rule="nonzero"/><path fill="#5e5e5e" d="M 175.574219 148.332031 L 41.8125 148.332031 L 41.8125 79.472656 L 175.574219 79.472656 Z M 64.25 61.742188 C 63.949219 61.742188 63.660156 61.796875 63.378906 61.914062 C 63.101562 62.03125 62.855469 62.195312 62.644531 62.40625 C 62.429688 62.621094 62.265625 62.867188 62.148438 63.144531 C 62.035156 63.425781 61.976562 63.714844 61.976562 64.015625 C 61.976562 64.316406 62.035156 64.609375 62.148438 64.886719 C 62.265625 65.164062 62.429688 65.410156 62.644531 65.625 C 62.855469 65.839844 63.101562 66.003906 63.378906 66.117188 C 63.660156 66.234375 63.949219 66.292969 64.25 66.292969 C 64.550781 66.292969 64.84375 66.234375 65.121094 66.117188 C 65.398438 66.003906 65.644531 65.839844 65.859375 65.625 C 66.070312 65.410156 66.238281 65.164062 66.351562 64.886719 C 66.46875 64.609375 66.523438 64.316406 66.523438 64.015625 C 66.523438 63.714844 66.46875 63.425781 66.351562 63.144531 C 66.238281 62.867188 66.070312 62.621094 65.859375 62.40625 C 65.644531 62.195312 65.398438 62.03125 65.121094 61.914062 C 64.84375 61.796875 64.550781 61.742188 64.25 61.742188 Z M 54.929688 61.742188 C 54.625 61.738281 54.335938 61.796875 54.058594 61.910156 C 53.777344 62.023438 53.53125 62.1875 53.316406 62.402344 C 53.101562 62.613281 52.9375 62.859375 52.820312 63.140625 C 52.703125 63.417969 52.644531 63.707031 52.644531 64.011719 C 52.644531 64.3125 52.703125 64.601562 52.816406 64.882812 C 52.929688 65.160156 53.09375 65.40625 53.308594 65.621094 C 53.519531 65.835938 53.765625 66 54.046875 66.117188 C 54.324219 66.234375 54.613281 66.292969 54.917969 66.292969 C 55.21875 66.292969 55.507812 66.234375 55.789062 66.121094 C 56.066406 66.003906 56.3125 65.839844 56.527344 65.625 C 56.738281 65.414062 56.902344 65.167969 57.019531 64.886719 C 57.136719 64.609375 57.191406 64.320312 57.191406 64.015625 C 57.191406 63.714844 57.136719 63.425781 57.019531 63.148438 C 56.90625 62.871094 56.742188 62.625 56.53125 62.410156 C 56.316406 62.199219 56.074219 62.03125 55.796875 61.917969 C 55.519531 61.800781 55.230469 61.742188 54.929688 61.742188 Z M 45.597656 61.742188 C 45.296875 61.742188 45.003906 61.796875 44.726562 61.914062 C 44.449219 62.03125 44.203125 62.195312 43.988281 62.40625 C 43.777344 62.621094 43.609375 62.867188 43.496094 63.144531 C 43.378906 63.425781 43.324219 63.714844 43.324219 64.015625 C 43.324219 64.316406 43.378906 64.609375 43.496094 64.886719 C 43.609375 65.164062 43.777344 65.410156 43.988281 65.625 C 44.203125 65.839844 44.449219 66.003906 44.726562 66.117188 C 45.003906 66.234375 45.296875 66.292969 45.597656 66.292969 C 45.898438 66.292969 46.1875 66.234375 46.46875 66.117188 C 46.746094 66.003906 46.992188 65.839844 47.203125 65.625 C 47.417969 65.410156 47.582031 65.164062 47.699219 64.886719 C 47.8125 64.609375 47.871094 64.316406 47.871094 64.015625 C 47.871094 63.714844 47.816406 63.421875 47.699219 63.144531 C 47.585938 62.863281 47.421875 62.617188 47.207031 62.40625 C 46.992188 62.191406 46.746094 62.027344 46.46875 61.910156 C 46.1875 61.796875 45.898438 61.738281 45.597656 61.742188 Z M 45.597656 61.742188 " fill-opacity="1" fill-rule="nonzero"/><g clip-path="url(#e13b90cb0b)"><path fill="#32292f" d="M 38.886719 345.367188 L 15.195312 344.640625 C 15.019531 344.636719 14.851562 344.59375 14.695312 344.511719 C 14.539062 344.429688 14.40625 344.316406 14.304688 344.171875 C 14.199219 344.027344 14.132812 343.867188 14.105469 343.695312 C 14.074219 343.519531 14.085938 343.347656 14.136719 343.175781 L 15.695312 337.878906 L 16.636719 329.570312 L 27.566406 329.902344 L 26.753906 337.171875 L 39.238281 344.167969 C 39.367188 344.242188 39.457031 344.347656 39.515625 344.484375 C 39.570312 344.625 39.578125 344.765625 39.535156 344.90625 C 39.492188 345.050781 39.414062 345.164062 39.292969 345.25 C 39.171875 345.335938 39.035156 345.375 38.886719 345.367188 Z M 66.910156 345.019531 L 54.171875 337.871094 L 53.625 330.695312 L 42.699219 330.363281 L 43.351562 338.863281 L 41.832031 343.988281 C 41.78125 344.160156 41.773438 344.332031 41.800781 344.503906 C 41.832031 344.679688 41.898438 344.835938 42.003906 344.980469 C 42.105469 345.125 42.234375 345.238281 42.390625 345.320312 C 42.546875 345.402344 42.710938 345.445312 42.890625 345.453125 L 66.589844 346.179688 C 66.898438 346.167969 67.09375 346.011719 67.175781 345.714844 C 67.257812 345.417969 67.167969 345.1875 66.910156 345.019531 Z M 66.910156 345.019531 " fill-opacity="1" fill-rule="nonzero"/></g><path fill="#f2f2f2" d="M 14.382812 221.679688 L 22.875 217.457031 L 22.46875 215.996094 L 26.746094 215.542969 L 40.832031 208.574219 L 40.984375 214.058594 L 50.417969 213.066406 L 58.15625 255.914062 C 58.355469 257.042969 58.457031 258.179688 58.457031 259.324219 L 58.710938 333.261719 L 40.953125 332.726562 L 37.859375 284.003906 L 30.019531 331.820312 L 29.941406 332.261719 L 12.957031 331.742188 L 19.195312 261.703125 L 14.429688 222.046875 Z M 14.382812 221.679688 " fill-opacity="1" fill-rule="nonzero"/><path fill="#32292f" d="M 58.84375 259.359375 C 58.839844 258.195312 58.734375 257.042969 58.523438 255.894531 L 50.796875 213.058594 C 50.777344 212.964844 50.734375 212.890625 50.660156 212.835938 C 50.585938 212.78125 50.5 212.757812 50.410156 212.765625 L 41.351562 213.710938 L 41.210938 208.609375 C 41.207031 208.550781 41.191406 208.496094 41.160156 208.441406 C 41.132812 208.390625 41.089844 208.347656 41.039062 208.316406 C 40.984375 208.289062 40.929688 208.269531 40.871094 208.269531 C 40.808594 208.269531 40.753906 208.28125 40.699219 208.308594 L 26.667969 215.25 L 22.460938 215.683594 C 22.351562 215.703125 22.265625 215.757812 22.195312 215.84375 C 22.136719 215.933594 22.117188 216.03125 22.148438 216.136719 L 22.488281 217.316406 L 14.222656 221.40625 C 14.074219 221.480469 14.011719 221.597656 14.035156 221.761719 L 18.835938 261.722656 L 12.601562 331.761719 C 12.59375 331.859375 12.621094 331.949219 12.683594 332.027344 C 12.753906 332.101562 12.839844 332.140625 12.941406 332.140625 L 29.925781 332.660156 C 30.128906 332.667969 30.25 332.570312 30.28125 332.367188 L 37.726562 287.175781 L 40.613281 332.792969 C 40.621094 332.886719 40.65625 332.964844 40.722656 333.03125 C 40.789062 333.09375 40.871094 333.128906 40.964844 333.132812 L 58.722656 333.667969 C 58.820312 333.667969 58.90625 333.632812 58.976562 333.566406 C 59.050781 333.496094 59.085938 333.410156 59.089844 333.3125 Z M 41.3125 332.386719 L 38.246094 284.003906 C 39.046875 273.828125 40.304688 258.417969 40.492188 257.691406 C 40.792969 256.605469 37.273438 242.101562 36.566406 239.203125 C 36.546875 239.105469 36.496094 239.03125 36.414062 238.980469 C 36.328125 238.925781 36.242188 238.914062 36.144531 238.933594 C 36.050781 238.957031 35.976562 239.011719 35.925781 239.09375 C 35.875 239.179688 35.863281 239.269531 35.886719 239.363281 C 37.480469 245.914062 39.964844 256.632812 39.804688 257.5 C 39.511719 258.539062 37.71875 281.304688 37.511719 283.9375 L 29.621094 331.867188 L 13.308594 331.375 L 19.507812 261.636719 L 14.789062 221.980469 L 14.789062 221.867188 L 23.09375 217.769531 C 23.265625 217.679688 23.324219 217.539062 23.273438 217.355469 L 22.980469 216.285156 L 26.808594 215.929688 L 26.933594 215.929688 L 40.492188 209.140625 L 40.625 214.066406 C 40.628906 214.167969 40.667969 214.253906 40.746094 214.320312 C 40.820312 214.386719 40.910156 214.417969 41.011719 214.40625 L 50.136719 213.464844 L 57.804688 255.953125 C 58.019531 257.078125 58.128906 258.214844 58.136719 259.359375 L 58.417969 332.90625 Z M 41.3125 332.386719 " fill-opacity="1" fill-rule="nonzero"/><path fill="#5e5e5e" d="M 175.835938 265.800781 L 314.125 265.800781 L 314.125 336.964844 L 175.835938 336.964844 Z M 175.835938 265.800781 " fill-opacity="1" fill-rule="nonzero"/><path fill="#32292f" d="M 169.25 143.414062 L 35.492188 143.414062 C 35.394531 143.417969 35.308594 143.382812 35.238281 143.316406 C 35.167969 143.246094 35.132812 143.164062 35.132812 143.066406 L 35.132812 74.203125 C 35.132812 74.105469 35.167969 74.023438 35.238281 73.953125 C 35.308594 73.886719 35.394531 73.851562 35.492188 73.855469 L 169.25 73.855469 C 169.351562 73.851562 169.433594 73.886719 169.503906 73.953125 C 169.574219 74.023438 169.609375 74.105469 169.609375 74.203125 L 169.609375 143.066406 C 169.609375 143.164062 169.574219 143.246094 169.503906 143.316406 C 169.433594 143.382812 169.351562 143.417969 169.25 143.414062 Z M 35.839844 142.707031 L 168.882812 142.707031 L 168.882812 74.5625 L 35.839844 74.5625 Z M 169.25 70.078125 L 35.492188 70.078125 C 35.394531 70.082031 35.308594 70.046875 35.238281 69.980469 C 35.167969 69.910156 35.132812 69.828125 35.132812 69.730469 L 35.132812 58.304688 C 35.132812 58.203125 35.167969 58.121094 35.238281 58.050781 C 35.308594 57.980469 35.390625 57.945312 35.492188 57.945312 L 169.25 57.945312 C 169.351562 57.945312 169.433594 57.980469 169.503906 58.050781 C 169.574219 58.121094 169.609375 58.203125 169.609375 58.304688 L 169.609375 69.730469 C 169.609375 69.828125 169.574219 69.910156 169.503906 69.980469 C 169.433594 70.046875 169.351562 70.082031 169.25 70.078125 Z M 35.839844 69.371094 L 168.882812 69.371094 L 168.882812 58.652344 L 35.839844 58.652344 Z M 35.839844 69.371094 " fill-opacity="1" fill-rule="nonzero"/><path fill="#f2f2f2" d="M 323.289062 99.566406 L 323.289062 216.871094 C 323.289062 217.6875 323.207031 218.492188 323.046875 219.289062 C 322.886719 220.085938 322.652344 220.859375 322.339844 221.613281 C 322.027344 222.363281 321.648438 223.078125 321.195312 223.753906 C 320.742188 224.429688 320.230469 225.054688 319.652344 225.628906 C 319.078125 226.203125 318.453125 226.71875 317.777344 227.171875 C 317.101562 227.621094 316.386719 228.003906 315.636719 228.316406 C 314.886719 228.625 314.113281 228.863281 313.316406 229.019531 C 312.519531 229.179688 311.710938 229.257812 310.898438 229.261719 L 119.914062 229.261719 C 119.097656 229.261719 118.289062 229.183594 117.492188 229.027344 C 116.691406 228.871094 115.917969 228.636719 115.164062 228.324219 C 114.410156 228.015625 113.695312 227.632812 113.015625 227.183594 C 112.339844 226.730469 111.710938 226.21875 111.132812 225.644531 C 110.554688 225.066406 110.042969 224.441406 109.585938 223.765625 C 109.132812 223.089844 108.75 222.375 108.4375 221.621094 C 108.125 220.867188 107.886719 220.09375 107.726562 219.292969 C 107.566406 218.496094 107.488281 217.6875 107.484375 216.871094 L 107.484375 99.566406 C 107.488281 98.75 107.566406 97.945312 107.726562 97.148438 C 107.886719 96.351562 108.121094 95.578125 108.433594 94.824219 C 108.746094 94.074219 109.128906 93.359375 109.578125 92.683594 C 110.03125 92.007812 110.546875 91.382812 111.121094 90.808594 C 111.695312 90.234375 112.320312 89.71875 112.996094 89.269531 C 113.671875 88.816406 114.386719 88.433594 115.136719 88.121094 C 115.886719 87.8125 116.660156 87.574219 117.460938 87.417969 C 118.257812 87.257812 119.0625 87.179688 119.875 87.175781 L 310.898438 87.175781 C 311.710938 87.179688 312.519531 87.257812 313.316406 87.417969 C 314.113281 87.574219 314.886719 87.8125 315.636719 88.121094 C 316.386719 88.433594 317.101562 88.816406 317.777344 89.269531 C 318.453125 89.71875 319.078125 90.234375 319.652344 90.808594 C 320.230469 91.382812 320.742188 92.007812 321.195312 92.683594 C 321.648438 93.359375 322.027344 94.074219 322.339844 94.824219 C 322.652344 95.578125 322.886719 96.351562 323.046875 97.148438 C 323.207031 97.945312 323.289062 98.75 323.289062 99.566406 Z M 323.289062 99.566406 " fill-opacity="1" fill-rule="nonzero"/><path fill="#32292f" d="M 310.898438 229.601562 L 119.914062 229.601562 C 119.074219 229.597656 118.25 229.515625 117.429688 229.351562 C 116.609375 229.1875 115.8125 228.945312 115.039062 228.625 C 114.269531 228.304688 113.535156 227.910156 112.839844 227.445312 C 112.144531 226.980469 111.5 226.453125 110.910156 225.859375 C 110.320312 225.269531 109.792969 224.625 109.328125 223.929688 C 108.863281 223.234375 108.46875 222.5 108.148438 221.726562 C 107.828125 220.957031 107.585938 220.160156 107.421875 219.339844 C 107.257812 218.519531 107.175781 217.691406 107.175781 216.851562 L 107.175781 99.566406 C 107.175781 98.730469 107.257812 97.898438 107.421875 97.078125 C 107.585938 96.257812 107.828125 95.464844 108.148438 94.691406 C 108.46875 93.917969 108.863281 93.183594 109.328125 92.488281 C 109.792969 91.792969 110.320312 91.148438 110.910156 90.558594 C 111.5 89.964844 112.144531 89.4375 112.839844 88.972656 C 113.535156 88.507812 114.269531 88.113281 115.039062 87.792969 C 115.8125 87.472656 116.609375 87.230469 117.429688 87.066406 C 118.25 86.902344 119.074219 86.820312 119.914062 86.820312 L 310.898438 86.820312 C 311.734375 86.820312 312.5625 86.902344 313.382812 87.066406 C 314.203125 87.230469 315 87.472656 315.773438 87.792969 C 316.546875 88.113281 317.28125 88.503906 317.976562 88.96875 C 318.667969 89.433594 319.3125 89.964844 319.90625 90.554688 C 320.496094 91.148438 321.023438 91.789062 321.488281 92.484375 C 321.953125 93.183594 322.34375 93.914062 322.664062 94.6875 C 322.984375 95.460938 323.226562 96.257812 323.390625 97.078125 C 323.554688 97.898438 323.636719 98.730469 323.636719 99.566406 L 323.636719 216.871094 C 323.636719 217.707031 323.554688 218.535156 323.386719 219.355469 C 323.222656 220.175781 322.980469 220.972656 322.660156 221.742188 C 322.339844 222.515625 321.945312 223.25 321.480469 223.941406 C 321.015625 224.636719 320.488281 225.28125 319.898438 225.871094 C 319.304688 226.460938 318.664062 226.988281 317.96875 227.453125 C 317.273438 227.917969 316.539062 228.308594 315.769531 228.628906 C 314.996094 228.949219 314.203125 229.191406 313.382812 229.355469 C 312.5625 229.515625 311.734375 229.597656 310.898438 229.601562 Z M 119.914062 87.515625 C 119.121094 87.519531 118.339844 87.59375 117.566406 87.75 C 116.792969 87.90625 116.039062 88.132812 115.308594 88.4375 C 114.582031 88.738281 113.886719 89.109375 113.230469 89.550781 C 112.574219 89.988281 111.964844 90.488281 111.40625 91.046875 C 110.851562 91.605469 110.351562 92.214844 109.910156 92.871094 C 109.472656 93.527344 109.101562 94.21875 108.800781 94.949219 C 108.496094 95.679688 108.269531 96.433594 108.113281 97.207031 C 107.960938 97.984375 107.882812 98.765625 107.882812 99.554688 L 107.882812 216.871094 C 107.882812 217.664062 107.960938 218.445312 108.113281 219.21875 C 108.269531 219.996094 108.496094 220.746094 108.800781 221.476562 C 109.101562 222.207031 109.472656 222.902344 109.910156 223.558594 C 110.351562 224.214844 110.851562 224.824219 111.40625 225.382812 C 111.964844 225.941406 112.574219 226.441406 113.230469 226.878906 C 113.886719 227.316406 114.582031 227.6875 115.308594 227.992188 C 116.039062 228.292969 116.792969 228.523438 117.566406 228.679688 C 118.339844 228.832031 119.121094 228.910156 119.914062 228.910156 L 310.898438 228.910156 C 311.691406 228.910156 312.472656 228.832031 313.246094 228.679688 C 314.019531 228.523438 314.773438 228.292969 315.503906 227.992188 C 316.230469 227.6875 316.925781 227.316406 317.582031 226.878906 C 318.238281 226.441406 318.84375 225.941406 319.402344 225.382812 C 319.960938 224.824219 320.460938 224.214844 320.898438 223.558594 C 321.339844 222.902344 321.710938 222.207031 322.011719 221.476562 C 322.316406 220.746094 322.542969 219.996094 322.699219 219.21875 C 322.851562 218.445312 322.929688 217.664062 322.929688 216.871094 L 322.929688 99.566406 C 322.929688 98.773438 322.851562 97.992188 322.699219 97.214844 C 322.546875 96.441406 322.316406 95.6875 322.015625 94.957031 C 321.710938 94.226562 321.34375 93.53125 320.902344 92.875 C 320.464844 92.21875 319.964844 91.609375 319.40625 91.050781 C 318.847656 90.488281 318.242188 89.992188 317.585938 89.550781 C 316.925781 89.113281 316.234375 88.742188 315.503906 88.4375 C 314.773438 88.132812 314.023438 87.90625 313.246094 87.75 C 312.472656 87.597656 311.691406 87.519531 310.898438 87.515625 Z M 119.914062 87.515625 " fill-opacity="1" fill-rule="nonzero"/><path fill="#32292f" d="M 131.167969 143.941406 C 134.621094 136.664062 137.300781 105.816406 137.300781 105.816406 L 157.597656 104.664062 L 157.597656 143.941406 Z M 275.921875 178.71875 L 275.921875 139.449219 L 255.625 140.589844 C 255.625 140.589844 252.945312 171.4375 249.5 178.71875 Z M 231.179688 141.28125 L 231.179688 114.957031 L 217.570312 115.730469 C 217.570312 115.730469 215.777344 136.40625 213.46875 141.28125 Z M 231.179688 141.28125 " fill-opacity="1" fill-rule="nonzero"/><path fill="#32292f" d="M 117.542969 320.449219 L 108.390625 319.136719 L 112.296875 310.707031 L 122.488281 310.707031 Z M 109.769531 318.390625 L 117.007812 319.421875 L 120.960938 311.640625 L 112.890625 311.640625 Z M 74.6875 320.449219 L 65.5625 319.136719 L 68.976562 310.820312 L 79.632812 310.695312 Z M 66.910156 318.382812 L 74.167969 319.421875 L 78.121094 311.652344 L 69.628906 311.753906 Z M 66.910156 318.382812 " fill-opacity="1" fill-rule="nonzero"/><path fill="#32292f" d="M 109.371094 317.144531 C 109.371094 317.144531 114.089844 320.835938 118.234375 317.070312 L 130.59375 323.511719 C 130.710938 323.574219 130.796875 323.667969 130.847656 323.792969 C 130.902344 323.914062 130.914062 324.042969 130.882812 324.171875 C 130.847656 324.300781 130.78125 324.410156 130.675781 324.492188 C 130.574219 324.578125 130.453125 324.621094 130.320312 324.625 L 108.429688 324.625 C 107.738281 324.625 106.117188 323.605469 106.296875 322.945312 Z M 63.949219 323.074219 C 63.808594 323.234375 64.894531 324.625 65.628906 324.625 L 87.445312 324.625 C 87.578125 324.621094 87.695312 324.578125 87.800781 324.492188 C 87.90625 324.410156 87.972656 324.300781 88.003906 324.171875 C 88.039062 324.042969 88.027344 323.914062 87.972656 323.792969 C 87.917969 323.667969 87.835938 323.574219 87.71875 323.511719 L 75.402344 317.070312 C 71.234375 320.847656 66.269531 317.070312 66.269531 317.070312 Z M 63.949219 323.074219 " fill-opacity="1" fill-rule="nonzero"/><path fill="#32292f" d="M 173.355469 168 C 175.242188 163.960938 176.761719 146.832031 176.761719 146.832031 L 188.027344 146.191406 L 188.027344 168 Z M 173.355469 168 " fill-opacity="1" fill-rule="nonzero"/><path fill="#5e5e5e" d="M 173.300781 146.144531 L 187.972656 146.144531 C 187.972656 146.144531 188.507812 157.199219 184.78125 163.582031 L 167.035156 166.460938 C 167.035156 166.460938 171.074219 164.941406 173.300781 146.144531 Z M 173.300781 146.144531 " fill-opacity="1" fill-rule="nonzero"/><path fill="#5e5e5e" d="M 183.5 152.667969 L 178.941406 158.644531 L 174.527344 161.855469 L 164.097656 190.378906 L 142.605469 196.175781 L 141.179688 182.429688 L 156.523438 179.472656 L 166.542969 159.511719 L 166.976562 152.382812 L 169.875 144.746094 L 169.96875 144.660156 C 170.382812 144.308594 170.851562 144.1875 171.382812 144.292969 C 171.574219 144.34375 171.742188 144.429688 171.894531 144.554688 L 172.347656 143.253906 L 172.542969 143.179688 C 172.800781 143.074219 174.121094 142.59375 174.820312 143.179688 C 174.929688 143.261719 175.019531 143.367188 175.082031 143.488281 C 175.546875 143.1875 176.046875 143.105469 176.582031 143.242188 C 176.875 143.386719 177.105469 143.597656 177.273438 143.871094 C 177.445312 144.148438 177.527344 144.449219 177.527344 144.773438 L 177.527344 145 C 177.847656 144.929688 178.160156 144.953125 178.46875 145.066406 C 178.753906 145.203125 178.988281 145.402344 179.167969 145.664062 C 179.347656 145.925781 179.453125 146.214844 179.480469 146.53125 L 179.480469 146.613281 L 178.535156 152.648438 L 177.960938 154.347656 C 179.207031 153.300781 181.101562 152.101562 182.820312 152.460938 Z M 183.5 152.667969 " fill-opacity="1" fill-rule="nonzero"/><path fill="#f2f2f2" d="M 130.78125 224.425781 L 145.566406 259.199219 C 146.335938 261.007812 146.699219 262.894531 146.65625 264.859375 C 146.613281 266.824219 146.167969 268.691406 145.324219 270.464844 L 123.382812 314.332031 L 109.078125 314.332031 L 127.0625 270.4375 L 110.683594 235.597656 Z M 130.78125 224.425781 " fill-opacity="1" fill-rule="nonzero"/><path fill="#32292f" d="M 123.382812 314.691406 L 109.078125 314.691406 C 108.957031 314.6875 108.859375 314.632812 108.789062 314.53125 C 108.726562 314.421875 108.726562 314.308594 108.789062 314.199219 L 126.714844 270.445312 L 110.363281 235.757812 C 110.320312 235.671875 110.3125 235.585938 110.34375 235.496094 C 110.371094 235.40625 110.429688 235.34375 110.515625 235.304688 L 130.613281 224.132812 C 130.707031 224.082031 130.800781 224.082031 130.894531 224.132812 C 131 224.164062 131.070312 224.230469 131.113281 224.332031 L 145.886719 259.097656 C 146.277344 260.011719 146.566406 260.960938 146.757812 261.941406 C 146.945312 262.917969 147.027344 263.90625 147.007812 264.902344 C 146.988281 265.898438 146.859375 266.878906 146.632812 267.851562 C 146.402344 268.820312 146.070312 269.753906 145.644531 270.652344 L 123.707031 314.53125 C 123.628906 314.644531 123.519531 314.699219 123.382812 314.691406 Z M 109.609375 313.984375 L 123.167969 313.984375 L 145 270.304688 C 145.824219 268.582031 146.253906 266.765625 146.292969 264.855469 C 146.332031 262.949219 145.976562 261.117188 145.226562 259.359375 L 130.601562 224.945312 L 111.144531 235.757812 L 127.386719 270.296875 C 127.429688 270.390625 127.429688 270.484375 127.386719 270.578125 Z M 109.609375 313.984375 " fill-opacity="1" fill-rule="nonzero"/><path fill="#32292f" d="M 108.289062 194.949219 C 107.769531 194.824219 95.839844 185.941406 102.71875 176.667969 C 102.71875 176.667969 108.550781 171.097656 109.609375 166.066406 C 110.664062 161.03125 114.089844 153.082031 122.582031 153.347656 C 122.582031 153.347656 133.179688 153.609375 130.792969 165.007812 C 130.792969 165.007812 127.875 170.570312 129.207031 174.015625 C 130.535156 177.460938 132.640625 181.4375 131.09375 185.148438 C 129.546875 188.859375 125.234375 198.933594 108.289062 194.949219 Z M 108.289062 194.949219 " fill-opacity="1" fill-rule="nonzero"/><path fill="#5e5e5e" d="M 132.261719 172.496094 C 132.074219 173.316406 131.605469 173.925781 130.859375 174.316406 C 128.828125 175.394531 127.394531 175.894531 126.488281 175.847656 L 127.628906 185.941406 L 114.269531 185.429688 L 117.382812 171.523438 C 116.582031 170.964844 114.335938 169.238281 114.355469 167.386719 C 114.394531 166.867188 114.5625 166.394531 114.859375 165.964844 C 115.160156 165.539062 115.546875 165.21875 116.023438 165.007812 L 116.136719 164.941406 L 116.261719 164.941406 C 116.804688 164.957031 117.324219 165.085938 117.816406 165.320312 C 117.6875 163.914062 118 162.617188 118.761719 161.429688 C 119.054688 161.0625 119.410156 160.773438 119.832031 160.5625 C 120.25 160.351562 120.695312 160.242188 121.167969 160.230469 C 122.144531 160.210938 123.074219 159.992188 123.957031 159.574219 C 124.839844 159.15625 125.597656 158.574219 126.234375 157.832031 L 126.640625 157.253906 L 127.007812 157.851562 C 127.300781 158.277344 133.441406 168.085938 132.261719 172.496094 Z M 132.261719 172.496094 " fill-opacity="1" fill-rule="nonzero"/><path fill="#f2f2f2" d="M 127.140625 229.503906 L 112.542969 271.636719 C 112.097656 272.96875 111.46875 274.210938 110.65625 275.355469 L 80.914062 314.332031 L 66.015625 314.332031 L 91.8125 265.386719 L 99.523438 234.539062 Z M 127.140625 229.503906 " fill-opacity="1" fill-rule="nonzero"/><path fill="#32292f" d="M 80.914062 314.691406 L 66.015625 314.691406 C 65.878906 314.691406 65.78125 314.628906 65.714844 314.511719 C 65.648438 314.398438 65.648438 314.285156 65.714844 314.171875 L 91.5 265.214844 L 99.171875 234.453125 C 99.207031 234.300781 99.300781 234.214844 99.457031 234.1875 L 127.074219 229.148438 C 127.207031 229.121094 127.320312 229.15625 127.414062 229.261719 C 127.496094 229.367188 127.519531 229.480469 127.480469 229.609375 L 112.882812 271.730469 C 112.402344 273.085938 111.742188 274.34375 110.902344 275.507812 L 81.199219 314.503906 C 81.136719 314.617188 81.042969 314.679688 80.914062 314.691406 Z M 66.609375 313.984375 L 80.761719 313.984375 L 110.316406 275.128906 C 111.125 274.015625 111.753906 272.804688 112.203125 271.503906 L 126.601562 229.957031 L 99.804688 234.8125 L 92.152344 265.441406 Z M 66.609375 313.984375 " fill-opacity="1" fill-rule="nonzero"/><path fill="#5e5e5e" d="M 155.210938 195.949219 L 142 198.375 C 141.386719 200.265625 137.765625 211.339844 137.046875 215.210938 C 135.8125 221.820312 136.960938 229.828125 136.972656 229.902344 L 137.027344 230.316406 L 94.277344 241.695312 L 100.164062 213.09375 L 90.171875 202.710938 L 100.617188 184.363281 C 101.316406 183.371094 102.179688 182.554688 103.210938 181.914062 C 104.238281 181.269531 105.351562 180.855469 106.550781 180.664062 L 115.101562 179.3125 L 115.269531 179.480469 C 117.921875 182.136719 120.375 183.257812 122.542969 182.9375 C 125.308594 182.476562 126.726562 179.632812 126.734375 179.605469 L 126.886719 179.304688 L 127.214844 179.304688 L 142.972656 181.296875 L 152.117188 180.179688 Z M 155.210938 195.949219 " fill-opacity="1" fill-rule="nonzero"/><path fill="#32292f" d="M 127.847656 227.15625 C 127.140625 222.234375 130.753906 203.445312 130.753906 203.445312 L 143.871094 202.699219 L 143.871094 216.769531 C 143.871094 219.601562 145.644531 228.097656 145.644531 228.097656 Z M 127.847656 227.15625 " fill-opacity="1" fill-rule="nonzero"/><path fill="#f2f2f2" d="M 126.726562 202.644531 L 143.8125 202.644531 C 143.8125 202.644531 144.425781 215.523438 140.09375 222.953125 L 119.421875 226.3125 C 119.421875 226.3125 124.128906 224.566406 126.726562 202.644531 Z M 126.726562 202.644531 " fill-opacity="1" fill-rule="nonzero"/><path fill="#32292f" d="M 119.421875 226.652344 C 119.234375 226.660156 119.121094 226.570312 119.082031 226.390625 C 119.058594 226.300781 119.066406 226.21875 119.109375 226.136719 C 119.152344 226.054688 119.214844 225.996094 119.300781 225.964844 C 119.300781 225.964844 123.855469 223.8125 126.375 202.597656 C 126.402344 202.390625 126.519531 202.289062 126.726562 202.285156 L 143.8125 202.285156 C 143.90625 202.285156 143.988281 202.316406 144.054688 202.382812 C 144.125 202.449219 144.160156 202.53125 144.160156 202.625 C 144.160156 203.152344 144.738281 215.703125 140.386719 223.132812 C 140.335938 223.234375 140.253906 223.289062 140.140625 223.300781 L 119.46875 226.652344 Z M 127.046875 202.992188 C 125.160156 218.582031 122.195312 223.945312 120.609375 225.746094 L 139.867188 222.632812 C 143.644531 216.023438 143.519531 205.050781 143.464844 202.992188 Z M 127.046875 202.992188 " fill-opacity="1" fill-rule="nonzero"/><path fill="#5e5e5e" d="M 135.792969 209.527344 C 135.917969 209.992188 135.863281 210.4375 135.621094 210.859375 C 135.304688 211.339844 134.859375 211.628906 134.292969 211.726562 L 134.167969 211.726562 L 131.261719 210.667969 L 123.167969 212.765625 L 88.820312 222.539062 C 88.410156 222.65625 87.992188 222.714844 87.566406 222.710938 C 87.136719 222.707031 86.71875 222.644531 86.308594 222.523438 C 85.902344 222.402344 85.515625 222.222656 85.15625 221.992188 C 84.800781 221.757812 84.480469 221.480469 84.203125 221.15625 C 83.921875 220.832031 83.695312 220.476562 83.519531 220.085938 C 83.339844 219.699219 83.222656 219.292969 83.164062 218.871094 C 83.101562 218.445312 83.101562 218.023438 83.164062 217.601562 C 83.222656 217.175781 83.339844 216.769531 83.519531 216.382812 C 90.273438 201.472656 90.699219 201.472656 91.152344 201.472656 L 91.207031 201.472656 L 102.398438 204.511719 L 102.089844 205.042969 C 101.144531 206.648438 100.136719 208.429688 99.625 209.375 C 102.550781 208.941406 113.308594 206.921875 120.714844 205.484375 L 124.675781 202.3125 L 131.535156 200.121094 L 135.199219 201.246094 L 135.253906 201.246094 C 136.113281 201.8125 135.925781 203.238281 135.78125 203.871094 C 136.140625 204.257812 136.347656 204.710938 136.40625 205.238281 C 136.460938 205.761719 136.355469 206.25 136.085938 206.703125 C 136.34375 207.15625 136.449219 207.644531 136.394531 208.164062 C 136.339844 208.683594 136.140625 209.136719 135.792969 209.527344 Z M 135.792969 209.527344 " fill-opacity="1" fill-rule="nonzero"/><path fill="#5e5e5e" d="M 223.835938 67.613281 L 223.835938 67.566406 L 197.984375 69.71875 L 209.5625 45.171875 L 224.375 66.460938 L 232.792969 48.597656 L 244.765625 65.867188 Z M 221.808594 47.730469 C 222.074219 47.707031 222.332031 47.660156 222.589844 47.585938 C 222.84375 47.511719 223.089844 47.414062 223.324219 47.292969 C 223.5625 47.167969 223.785156 47.023438 223.992188 46.859375 C 224.199219 46.691406 224.386719 46.507812 224.558594 46.304688 C 224.730469 46.101562 224.878906 45.882812 225.007812 45.648438 C 225.136719 45.417969 225.238281 45.171875 225.320312 44.917969 C 225.398438 44.664062 225.453125 44.40625 225.484375 44.140625 C 225.511719 43.878906 225.515625 43.613281 225.492188 43.347656 C 225.46875 43.082031 225.421875 42.824219 225.34375 42.566406 C 225.269531 42.3125 225.171875 42.066406 225.050781 41.832031 C 224.925781 41.597656 224.78125 41.375 224.613281 41.167969 C 224.449219 40.960938 224.261719 40.769531 224.058594 40.601562 C 223.855469 40.429688 223.636719 40.28125 223.402344 40.152344 C 223.167969 40.027344 222.925781 39.921875 222.671875 39.84375 C 222.417969 39.765625 222.160156 39.710938 221.894531 39.683594 C 221.628906 39.65625 221.367188 39.652344 221.101562 39.675781 C 220.835938 39.703125 220.578125 39.75 220.324219 39.828125 C 220.066406 39.902344 219.824219 40.003906 219.585938 40.125 C 219.351562 40.25 219.132812 40.394531 218.925781 40.5625 C 218.71875 40.730469 218.53125 40.917969 218.359375 41.121094 C 218.191406 41.328125 218.042969 41.546875 217.917969 41.78125 C 217.789062 42.015625 217.6875 42.257812 217.609375 42.511719 C 217.53125 42.765625 217.480469 43.027344 217.453125 43.289062 C 217.425781 43.554688 217.421875 43.820312 217.449219 44.085938 C 217.472656 44.347656 217.523438 44.605469 217.597656 44.859375 C 217.671875 45.109375 217.769531 45.351562 217.894531 45.585938 C 218.015625 45.820312 218.160156 46.039062 218.324219 46.246094 C 218.492188 46.449219 218.675781 46.636719 218.878906 46.804688 C 219.078125 46.976562 219.296875 47.125 219.527344 47.25 C 219.757812 47.375 220 47.480469 220.25 47.558594 C 220.503906 47.636719 220.757812 47.691406 221.019531 47.71875 C 221.285156 47.75 221.546875 47.75 221.808594 47.730469 Z M 221.808594 47.730469 " fill-opacity="1" fill-rule="nonzero"/><path fill="#f2f2f2" d="M 250.644531 100.734375 L 297.398438 100.792969 L 297.398438 127.910156 L 250.644531 127.851562 Z M 250.644531 100.734375 " fill-opacity="1" fill-rule="nonzero"/><path fill="#32292f" d="M 297.367188 128.25 L 250.617188 128.195312 C 250.515625 128.191406 250.429688 128.160156 250.359375 128.089844 C 250.292969 128.023438 250.257812 127.941406 250.257812 127.84375 L 250.257812 100.726562 C 250.257812 100.632812 250.292969 100.550781 250.363281 100.480469 C 250.429688 100.414062 250.511719 100.378906 250.605469 100.378906 L 297.359375 100.433594 C 297.457031 100.433594 297.539062 100.46875 297.609375 100.535156 C 297.679688 100.605469 297.714844 100.6875 297.71875 100.785156 L 297.71875 127.902344 C 297.71875 127.996094 297.683594 128.078125 297.617188 128.148438 C 297.546875 128.214844 297.464844 128.25 297.367188 128.25 Z M 250.964844 127.484375 L 297.011719 127.542969 L 297.011719 101.105469 L 250.964844 101.046875 Z M 250.964844 127.484375 " fill-opacity="1" fill-rule="nonzero"/><path fill="#5e5e5e" d="M 272.355469 125.351562 L 257.898438 125.351562 L 265.144531 112.832031 L 271.921875 124.613281 L 280.867188 109.148438 L 290.199219 125.359375 Z M 272.609375 111.632812 C 272.988281 111.640625 273.351562 111.574219 273.703125 111.4375 C 274.050781 111.296875 274.363281 111.097656 274.632812 110.835938 C 274.90625 110.574219 275.117188 110.269531 275.265625 109.921875 C 275.414062 109.578125 275.492188 109.214844 275.496094 108.839844 C 275.503906 108.460938 275.433594 108.097656 275.292969 107.746094 C 275.152344 107.398438 274.953125 107.085938 274.6875 106.816406 C 274.425781 106.546875 274.117188 106.339844 273.773438 106.191406 C 273.425781 106.046875 273.0625 105.96875 272.6875 105.96875 C 272.308594 105.964844 271.945312 106.035156 271.597656 106.175781 C 271.246094 106.320312 270.9375 106.523438 270.671875 106.789062 C 270.40625 107.054688 270.199219 107.363281 270.054688 107.710938 C 269.910156 108.058594 269.835938 108.421875 269.835938 108.800781 C 269.828125 109.171875 269.894531 109.53125 270.03125 109.878906 C 270.171875 110.222656 270.371094 110.53125 270.632812 110.796875 C 270.890625 111.0625 271.195312 111.269531 271.535156 111.414062 C 271.878906 111.558594 272.238281 111.632812 272.609375 111.632812 Z M 272.609375 111.632812 " fill-opacity="1" fill-rule="nonzero"/><path fill="#f2f2f2" d="M 339.472656 84.929688 C 339.472656 85.507812 339.441406 86.082031 339.386719 86.65625 C 339.328125 87.230469 339.246094 87.800781 339.132812 88.367188 C 339.019531 88.929688 338.878906 89.488281 338.714844 90.042969 C 338.546875 90.59375 338.351562 91.136719 338.132812 91.667969 C 337.910156 92.203125 337.664062 92.722656 337.394531 93.230469 C 337.121094 93.738281 336.824219 94.234375 336.503906 94.714844 C 336.183594 95.191406 335.84375 95.65625 335.476562 96.101562 C 335.109375 96.546875 334.722656 96.972656 334.316406 97.382812 C 333.910156 97.789062 333.484375 98.175781 333.039062 98.542969 C 332.59375 98.910156 332.128906 99.25 331.648438 99.570312 C 331.171875 99.890625 330.675781 100.1875 330.167969 100.460938 C 329.660156 100.730469 329.140625 100.976562 328.609375 101.199219 C 328.074219 101.417969 327.535156 101.613281 326.980469 101.78125 C 326.429688 101.949219 325.871094 102.089844 325.308594 102.203125 C 324.742188 102.3125 324.171875 102.398438 323.597656 102.453125 C 323.023438 102.511719 322.449219 102.539062 321.875 102.539062 C 321.296875 102.539062 320.722656 102.511719 320.148438 102.453125 C 319.574219 102.398438 319.003906 102.3125 318.441406 102.203125 C 317.875 102.089844 317.316406 101.949219 316.765625 101.78125 C 316.214844 101.613281 315.671875 101.417969 315.140625 101.199219 C 314.605469 100.976562 314.085938 100.730469 313.578125 100.460938 C 313.070312 100.1875 312.574219 99.890625 312.097656 99.570312 C 311.617188 99.25 311.15625 98.910156 310.710938 98.542969 C 310.265625 98.175781 309.835938 97.789062 309.429688 97.382812 C 309.023438 96.972656 308.636719 96.546875 308.269531 96.101562 C 307.90625 95.65625 307.5625 95.191406 307.242188 94.714844 C 306.921875 94.234375 306.625 93.738281 306.355469 93.230469 C 306.082031 92.722656 305.835938 92.203125 305.617188 91.667969 C 305.394531 91.136719 305.199219 90.59375 305.035156 90.042969 C 304.867188 89.488281 304.726562 88.929688 304.613281 88.367188 C 304.5 87.800781 304.417969 87.230469 304.359375 86.65625 C 304.304688 86.082031 304.277344 85.507812 304.277344 84.929688 C 304.277344 84.355469 304.304688 83.777344 304.359375 83.203125 C 304.417969 82.628906 304.5 82.0625 304.613281 81.496094 C 304.726562 80.929688 304.867188 80.371094 305.035156 79.820312 C 305.199219 79.265625 305.394531 78.722656 305.617188 78.191406 C 305.835938 77.660156 306.082031 77.136719 306.355469 76.628906 C 306.625 76.121094 306.921875 75.625 307.242188 75.148438 C 307.5625 74.667969 307.90625 74.203125 308.269531 73.757812 C 308.636719 73.3125 309.023438 72.886719 309.429688 72.480469 C 309.835938 72.070312 310.265625 71.683594 310.710938 71.316406 C 311.15625 70.953125 311.617188 70.609375 312.097656 70.289062 C 312.574219 69.96875 313.070312 69.671875 313.578125 69.398438 C 314.085938 69.128906 314.605469 68.882812 315.140625 68.660156 C 315.671875 68.441406 316.214844 68.246094 316.765625 68.078125 C 317.316406 67.910156 317.875 67.773438 318.441406 67.660156 C 319.003906 67.546875 319.574219 67.460938 320.148438 67.40625 C 320.722656 67.347656 321.296875 67.320312 321.875 67.320312 C 322.449219 67.320312 323.023438 67.347656 323.597656 67.40625 C 324.171875 67.460938 324.742188 67.546875 325.308594 67.660156 C 325.871094 67.773438 326.429688 67.910156 326.980469 68.078125 C 327.535156 68.246094 328.074219 68.441406 328.609375 68.660156 C 329.140625 68.882812 329.660156 69.128906 330.167969 69.398438 C 330.675781 69.671875 331.171875 69.96875 331.648438 70.289062 C 332.128906 70.609375 332.59375 70.953125 333.039062 71.316406 C 333.484375 71.683594 333.910156 72.070312 334.316406 72.480469 C 334.722656 72.886719 335.109375 73.3125 335.476562 73.757812 C 335.84375 74.203125 336.183594 74.667969 336.503906 75.148438 C 336.824219 75.625 337.121094 76.121094 337.394531 76.628906 C 337.664062 77.136719 337.910156 77.660156 338.132812 78.191406 C 338.351562 78.722656 338.546875 79.265625 338.714844 79.820312 C 338.878906 80.371094 339.019531 80.929688 339.132812 81.496094 C 339.246094 82.0625 339.328125 82.628906 339.386719 83.203125 C 339.441406 83.777344 339.472656 84.355469 339.472656 84.929688 Z M 339.472656 84.929688 " fill-opacity="1" fill-rule="nonzero"/><path fill="#32292f" d="M 321.875 102.878906 C 321.285156 102.878906 320.699219 102.851562 320.117188 102.792969 C 319.53125 102.734375 318.953125 102.648438 318.375 102.535156 C 317.800781 102.421875 317.230469 102.277344 316.667969 102.105469 C 316.109375 101.9375 315.554688 101.738281 315.011719 101.515625 C 314.46875 101.289062 313.941406 101.039062 313.421875 100.761719 C 312.90625 100.484375 312.402344 100.183594 311.914062 99.855469 C 311.425781 99.53125 310.953125 99.179688 310.5 98.808594 C 310.046875 98.433594 309.613281 98.039062 309.195312 97.625 C 308.78125 97.210938 308.386719 96.773438 308.015625 96.320312 C 307.644531 95.867188 307.292969 95.394531 306.96875 94.90625 C 306.640625 94.417969 306.339844 93.914062 306.0625 93.398438 C 305.785156 92.878906 305.535156 92.347656 305.308594 91.804688 C 305.085938 91.261719 304.886719 90.710938 304.71875 90.148438 C 304.546875 89.585938 304.40625 89.015625 304.289062 88.441406 C 304.175781 87.863281 304.089844 87.28125 304.03125 86.699219 C 303.972656 86.113281 303.945312 85.527344 303.945312 84.941406 C 303.945312 84.351562 303.972656 83.765625 304.03125 83.179688 C 304.089844 82.597656 304.175781 82.015625 304.289062 81.441406 C 304.40625 80.863281 304.546875 80.292969 304.71875 79.730469 C 304.886719 79.167969 305.085938 78.617188 305.308594 78.074219 C 305.535156 77.53125 305.785156 77 306.0625 76.484375 C 306.339844 75.964844 306.640625 75.460938 306.96875 74.972656 C 307.292969 74.484375 307.644531 74.011719 308.015625 73.558594 C 308.386719 73.105469 308.78125 72.671875 309.195312 72.253906 C 309.613281 71.839844 310.046875 71.445312 310.5 71.070312 C 310.953125 70.699219 311.425781 70.351562 311.914062 70.023438 C 312.402344 69.695312 312.90625 69.394531 313.421875 69.117188 C 313.941406 68.839844 314.46875 68.589844 315.011719 68.367188 C 315.554688 68.140625 316.109375 67.941406 316.667969 67.773438 C 317.230469 67.601562 317.800781 67.460938 318.375 67.34375 C 318.953125 67.230469 319.53125 67.144531 320.117188 67.085938 C 320.699219 67.027344 321.285156 67 321.875 67 C 322.460938 67 323.046875 67.027344 323.632812 67.085938 C 324.214844 67.144531 324.796875 67.230469 325.371094 67.34375 C 325.945312 67.460938 326.515625 67.601562 327.078125 67.773438 C 327.640625 67.941406 328.191406 68.140625 328.734375 68.367188 C 329.277344 68.589844 329.808594 68.839844 330.324219 69.117188 C 330.84375 69.394531 331.34375 69.695312 331.832031 70.023438 C 332.320312 70.351562 332.792969 70.699219 333.246094 71.070312 C 333.699219 71.445312 334.136719 71.839844 334.550781 72.253906 C 334.964844 72.671875 335.359375 73.105469 335.730469 73.558594 C 336.105469 74.011719 336.453125 74.484375 336.78125 74.972656 C 337.105469 75.460938 337.40625 75.964844 337.683594 76.484375 C 337.960938 77 338.210938 77.53125 338.4375 78.074219 C 338.660156 78.617188 338.859375 79.167969 339.03125 79.730469 C 339.199219 80.292969 339.34375 80.863281 339.457031 81.441406 C 339.570312 82.015625 339.65625 82.597656 339.714844 83.179688 C 339.773438 83.765625 339.800781 84.351562 339.800781 84.941406 C 339.800781 85.527344 339.773438 86.113281 339.714844 86.699219 C 339.65625 87.28125 339.570312 87.863281 339.457031 88.441406 C 339.34375 89.015625 339.199219 89.585938 339.03125 90.148438 C 338.859375 90.710938 338.660156 91.261719 338.4375 91.804688 C 338.210938 92.347656 337.960938 92.878906 337.683594 93.398438 C 337.40625 93.914062 337.105469 94.417969 336.78125 94.90625 C 336.453125 95.394531 336.105469 95.867188 335.730469 96.320312 C 335.359375 96.773438 334.964844 97.210938 334.550781 97.625 C 334.136719 98.039062 333.699219 98.433594 333.246094 98.808594 C 332.792969 99.179688 332.320312 99.53125 331.832031 99.855469 C 331.34375 100.183594 330.84375 100.484375 330.324219 100.761719 C 329.808594 101.039062 329.277344 101.289062 328.734375 101.515625 C 328.191406 101.738281 327.640625 101.9375 327.078125 102.105469 C 326.515625 102.277344 325.945312 102.421875 325.371094 102.535156 C 324.796875 102.648438 324.214844 102.734375 323.628906 102.792969 C 323.046875 102.851562 322.460938 102.878906 321.875 102.878906 Z M 321.875 67.679688 C 321.308594 67.679688 320.746094 67.707031 320.183594 67.761719 C 319.621094 67.816406 319.0625 67.902344 318.511719 68.011719 C 317.957031 68.121094 317.410156 68.257812 316.871094 68.421875 C 316.328125 68.585938 315.796875 68.777344 315.277344 68.992188 C 314.753906 69.210938 314.246094 69.449219 313.746094 69.714844 C 313.25 69.984375 312.765625 70.273438 312.296875 70.585938 C 311.828125 70.902344 311.375 71.238281 310.9375 71.59375 C 310.5 71.953125 310.082031 72.332031 309.683594 72.730469 C 309.285156 73.132812 308.90625 73.550781 308.546875 73.988281 C 308.191406 74.421875 307.855469 74.875 307.539062 75.347656 C 307.226562 75.816406 306.9375 76.300781 306.671875 76.796875 C 306.402344 77.296875 306.164062 77.808594 305.945312 78.328125 C 305.730469 78.851562 305.539062 79.382812 305.375 79.921875 C 305.214844 80.464844 305.074219 81.011719 304.964844 81.566406 C 304.855469 82.117188 304.773438 82.675781 304.71875 83.238281 C 304.664062 83.800781 304.632812 84.367188 304.632812 84.929688 C 304.632812 85.496094 304.664062 86.058594 304.71875 86.621094 C 304.773438 87.183594 304.855469 87.742188 304.964844 88.296875 C 305.074219 88.851562 305.214844 89.398438 305.375 89.9375 C 305.539062 90.480469 305.730469 91.011719 305.945312 91.53125 C 306.164062 92.054688 306.402344 92.5625 306.671875 93.0625 C 306.9375 93.558594 307.226562 94.042969 307.539062 94.515625 C 307.855469 94.984375 308.191406 95.4375 308.546875 95.875 C 308.90625 96.3125 309.285156 96.730469 309.683594 97.128906 C 310.082031 97.527344 310.5 97.90625 310.9375 98.265625 C 311.375 98.625 311.828125 98.960938 312.296875 99.273438 C 312.765625 99.585938 313.25 99.878906 313.746094 100.144531 C 314.246094 100.410156 314.753906 100.652344 315.277344 100.867188 C 315.796875 101.082031 316.328125 101.273438 316.871094 101.4375 C 317.410156 101.601562 317.957031 101.738281 318.511719 101.847656 C 319.0625 101.960938 319.621094 102.042969 320.183594 102.097656 C 320.746094 102.152344 321.308594 102.179688 321.875 102.179688 C 322.4375 102.179688 323 102.152344 323.5625 102.097656 C 324.125 102.042969 324.683594 101.960938 325.238281 101.847656 C 325.789062 101.738281 326.335938 101.601562 326.878906 101.4375 C 327.417969 101.273438 327.949219 101.082031 328.46875 100.867188 C 328.992188 100.652344 329.503906 100.410156 330 100.144531 C 330.496094 99.878906 330.980469 99.585938 331.449219 99.273438 C 331.921875 98.960938 332.375 98.625 332.808594 98.265625 C 333.246094 97.90625 333.664062 97.527344 334.0625 97.128906 C 334.460938 96.730469 334.839844 96.3125 335.199219 95.875 C 335.558594 95.4375 335.894531 94.984375 336.207031 94.515625 C 336.519531 94.042969 336.8125 93.558594 337.078125 93.0625 C 337.34375 92.5625 337.585938 92.054688 337.800781 91.53125 C 338.015625 91.011719 338.207031 90.480469 338.371094 89.9375 C 338.535156 89.398438 338.671875 88.851562 338.78125 88.296875 C 338.890625 87.742188 338.972656 87.183594 339.03125 86.621094 C 339.085938 86.058594 339.113281 85.496094 339.113281 84.929688 C 339.113281 84.367188 339.082031 83.800781 339.027344 83.242188 C 338.972656 82.679688 338.890625 82.121094 338.777344 81.566406 C 338.667969 81.011719 338.53125 80.464844 338.367188 79.925781 C 338.203125 79.386719 338.011719 78.855469 337.796875 78.332031 C 337.578125 77.8125 337.335938 77.300781 337.070312 76.804688 C 336.804688 76.304688 336.515625 75.824219 336.199219 75.351562 C 335.886719 74.882812 335.550781 74.429688 335.191406 73.996094 C 334.835938 73.558594 334.457031 73.140625 334.058594 72.742188 C 333.65625 72.34375 333.242188 71.964844 332.804688 71.605469 C 332.367188 71.246094 331.914062 70.910156 331.445312 70.597656 C 330.976562 70.285156 330.492188 69.992188 329.996094 69.726562 C 329.496094 69.460938 328.988281 69.21875 328.46875 69.003906 C 327.945312 68.789062 327.414062 68.597656 326.875 68.433594 C 326.335938 68.269531 325.789062 68.132812 325.234375 68.023438 C 324.679688 67.910156 324.125 67.828125 323.5625 67.773438 C 323 67.71875 322.4375 67.691406 321.875 67.6875 Z M 321.875 67.679688 " fill-opacity="1" fill-rule="nonzero"/><path fill="#5e5e5e" d="M 321.675781 79.964844 L 327.703125 76.792969 L 326.554688 83.503906 L 331.421875 88.226562 L 324.695312 89.167969 L 321.675781 95.335938 L 318.664062 89.226562 L 311.929688 88.28125 L 316.808594 83.5625 L 315.65625 76.847656 Z M 321.675781 79.964844 " fill-opacity="1" fill-rule="nonzero"/><path fill="#32292f" d="M 319.582031 177.148438 L 309.203125 181.664062 C 308.597656 181.921875 307.96875 182.054688 307.3125 182.058594 C 306.457031 182.0625 305.652344 181.847656 304.90625 181.417969 C 304.164062 180.992188 303.574219 180.40625 303.144531 179.660156 L 291.660156 160.011719 C 290.496094 159.886719 289.359375 159.628906 288.253906 159.238281 C 285.894531 158.453125 284.6875 155.894531 284.535156 155.566406 C 284.40625 155.328125 284.328125 155.074219 284.292969 154.804688 C 284.261719 154.535156 284.277344 154.269531 284.34375 154.007812 C 284.414062 153.746094 284.527344 153.503906 284.683594 153.285156 C 284.84375 153.0625 285.035156 152.878906 285.261719 152.734375 C 285.265625 152.292969 285.367188 151.875 285.570312 151.484375 C 285.769531 151.089844 286.046875 150.765625 286.40625 150.503906 C 286.453125 150.039062 286.613281 149.617188 286.875 149.230469 C 287.140625 148.84375 287.480469 148.546875 287.894531 148.332031 C 286.988281 147.679688 286.027344 147.109375 285.019531 146.625 C 281.5625 144.894531 282.867188 142.035156 282.875 142.007812 L 283.101562 141.542969 L 289.234375 144.375 L 294.125 147.984375 L 307.332031 168.480469 L 314.503906 165.414062 Z M 319.582031 177.148438 " fill-opacity="1" fill-rule="nonzero"/><path fill="#f2f2f2" d="M 360.832031 209.96875 L 355.257812 248.976562 L 354.238281 328.34375 L 336 328.34375 L 337.261719 249.230469 L 341.574219 208.15625 Z M 360.832031 209.96875 " fill-opacity="1" fill-rule="nonzero"/><path fill="#32292f" d="M 354.238281 328.730469 L 336 328.730469 C 335.898438 328.730469 335.816406 328.695312 335.746094 328.625 C 335.675781 328.554688 335.640625 328.472656 335.640625 328.371094 L 336.914062 249.257812 L 341.214844 208.15625 C 341.222656 208.058594 341.265625 207.976562 341.34375 207.914062 C 341.417969 207.851562 341.503906 207.824219 341.605469 207.835938 L 360.863281 209.613281 C 360.960938 209.621094 361.042969 209.664062 361.105469 209.742188 C 361.167969 209.824219 361.191406 209.917969 361.183594 210.015625 L 355.644531 249.058594 L 354.632812 328.371094 C 354.636719 328.480469 354.601562 328.570312 354.519531 328.644531 C 354.4375 328.71875 354.34375 328.746094 354.238281 328.730469 Z M 336.355469 328.023438 L 353.890625 328.023438 L 354.898438 248.976562 L 360.429688 210.261719 L 341.886719 208.554688 L 337.613281 249.285156 Z M 336.355469 328.023438 " fill-opacity="1" fill-rule="nonzero"/><path fill="#f2f2f2" d="M 355.378906 208.0625 L 341.574219 249.777344 L 366.65625 305.050781 L 353.445312 315.191406 L 323.148438 253.820312 C 322.449219 252.40625 321.976562 250.925781 321.726562 249.367188 C 321.476562 247.8125 321.464844 246.257812 321.683594 244.699219 L 327.089844 206.382812 Z M 355.378906 208.0625 " fill-opacity="1" fill-rule="nonzero"/><path fill="#32292f" d="M 353.484375 315.550781 L 353.398438 315.550781 C 353.292969 315.523438 353.210938 315.460938 353.164062 315.363281 L 322.875 253.988281 C 322.15625 252.546875 321.671875 251.03125 321.417969 249.441406 C 321.160156 247.855469 321.144531 246.261719 321.375 244.667969 L 326.78125 206.34375 C 326.792969 206.253906 326.832031 206.179688 326.90625 206.121094 C 326.976562 206.0625 327.058594 206.035156 327.148438 206.042969 L 355.398438 207.695312 C 355.515625 207.703125 355.605469 207.753906 355.671875 207.847656 C 355.738281 207.945312 355.753906 208.046875 355.71875 208.15625 L 341.953125 249.703125 L 366.964844 304.898438 C 367.050781 305.074219 367.019531 305.21875 366.863281 305.335938 L 353.652344 315.476562 C 353.601562 315.515625 353.546875 315.539062 353.484375 315.550781 Z M 327.429688 206.789062 L 322.070312 244.78125 C 321.855469 246.308594 321.867188 247.828125 322.113281 249.347656 C 322.355469 250.867188 322.820312 252.316406 323.507812 253.695312 L 353.605469 314.652344 L 366.222656 304.9375 L 341.246094 249.917969 C 341.214844 249.835938 341.214844 249.75 341.246094 249.664062 L 354.898438 208.375 Z M 327.429688 206.789062 " fill-opacity="1" fill-rule="nonzero"/><path fill="#32292f" d="M 353.066406 149.609375 L 353.425781 164.886719 L 340.828125 163.941406 L 341.773438 151.488281 C 340.488281 151.601562 337.648438 151.582031 335.742188 149.464844 C 333.507812 146.992188 333.355469 142.546875 335.300781 136.246094 C 336.441406 132.535156 338.328125 130.28125 340.894531 129.542969 C 345.800781 128.136719 351.351562 132.78125 351.765625 133.132812 C 352.179688 133.480469 354.597656 135.984375 353.066406 149.609375 Z M 353.066406 149.609375 " fill-opacity="1" fill-rule="nonzero"/><path fill="#5e5e5e" d="M 372.230469 192.558594 C 372.136719 193.183594 371.4375 194.011719 367.042969 195.496094 C 365.269531 196.101562 363.503906 196.589844 362.738281 196.796875 L 362.609375 216.625 L 361.898438 216.324219 C 361.824219 216.324219 354.351562 213.292969 341.59375 217.164062 C 340.363281 217.539062 339.105469 217.726562 337.820312 217.722656 C 330.769531 217.722656 325.261719 212.140625 324.988281 211.859375 L 324.828125 211.6875 L 327.335938 182.882812 L 326.769531 176.894531 L 316.675781 180.757812 L 310.464844 165.367188 L 331.601562 156.367188 C 333.195312 155.6875 334.851562 155.449219 336.574219 155.652344 L 352.210938 157.445312 C 354.316406 157.683594 356.140625 158.535156 357.683594 159.992188 C 370.789062 172.496094 372.46875 191.191406 372.230469 192.558594 Z M 372.230469 192.558594 " fill-opacity="1" fill-rule="nonzero"/><path fill="#f2f2f2" d="M 336.679688 125.71875 C 346.765625 119.621094 355.644531 130.222656 355.644531 130.222656 C 360.238281 134 356.84375 143.441406 353.871094 145.945312 C 353.421875 146.195312 352.949219 146.394531 352.453125 146.539062 C 351.601562 146.417969 350.832031 146.101562 350.136719 145.59375 C 349.445312 145.082031 348.914062 144.4375 348.546875 143.660156 C 349.058594 141.628906 348.546875 140.128906 348.039062 139.609375 C 344.972656 136.632812 343.734375 141.128906 343.734375 141.128906 L 341.960938 141.128906 L 341.707031 136.558594 C 332.828125 132.761719 334.121094 127.269531 336.679688 125.71875 Z M 336.679688 125.71875 " fill-opacity="1" fill-rule="nonzero"/><path fill="#32292f" d="M 352.445312 146.898438 L 352.398438 146.898438 C 351.484375 146.769531 350.65625 146.433594 349.914062 145.882812 C 349.171875 145.332031 348.605469 144.640625 348.21875 143.800781 C 348.1875 143.726562 348.1875 143.648438 348.21875 143.574219 C 348.699219 141.628906 348.21875 140.261719 347.804688 139.863281 C 347.039062 139.117188 346.359375 138.824219 345.773438 138.984375 C 344.632812 139.296875 344.09375 141.203125 344.085938 141.222656 C 344.035156 141.390625 343.921875 141.476562 343.746094 141.476562 L 341.972656 141.476562 C 341.878906 141.480469 341.796875 141.445312 341.726562 141.382812 C 341.660156 141.320312 341.621094 141.242188 341.613281 141.148438 L 341.378906 136.804688 C 335.628906 134.273438 334.574219 131.214844 334.460938 129.601562 C 334.386719 128.765625 334.535156 127.976562 334.902344 127.222656 C 335.269531 126.472656 335.804688 125.871094 336.507812 125.417969 C 346.746094 119.1875 355.832031 129.894531 355.925781 129.996094 C 356.730469 130.726562 357.339844 131.597656 357.746094 132.605469 C 358.15625 133.613281 358.328125 134.660156 358.257812 135.746094 C 358.257812 139.882812 356.078125 144.585938 354.105469 146.21875 C 353.621094 146.507812 353.109375 146.726562 352.566406 146.878906 Z M 348.917969 143.621094 C 349.257812 144.304688 349.734375 144.875 350.351562 145.324219 C 350.96875 145.777344 351.652344 146.0625 352.40625 146.179688 C 352.835938 146.058594 353.246094 145.890625 353.632812 145.671875 C 355.519531 144.140625 357.539062 139.695312 357.53125 135.757812 C 357.585938 134.765625 357.429688 133.808594 357.054688 132.890625 C 356.683594 131.96875 356.136719 131.171875 355.40625 130.496094 C 353.777344 128.667969 351.890625 127.15625 349.746094 125.964844 C 345.246094 123.527344 340.914062 123.546875 336.847656 126.023438 C 336.257812 126.402344 335.808594 126.910156 335.503906 127.542969 C 335.195312 128.175781 335.074219 128.84375 335.140625 129.542969 C 335.242188 131.015625 336.253906 133.847656 341.832031 136.238281 C 341.964844 136.292969 342.03125 136.394531 342.039062 136.539062 L 342.273438 140.769531 L 343.460938 140.769531 C 343.671875 140.15625 344.320312 138.636719 345.558594 138.304688 C 346.070312 138.21875 346.570312 138.269531 347.054688 138.457031 C 347.542969 138.644531 347.945312 138.941406 348.265625 139.355469 C 348.925781 139.976562 349.386719 141.574219 348.917969 143.621094 Z M 348.917969 143.621094 " fill-opacity="1" fill-rule="nonzero"/><path fill="#32292f" d="M 308.285156 331.527344 L 170.042969 331.527344 C 169.945312 331.523438 169.863281 331.488281 169.796875 331.417969 C 169.730469 331.347656 169.695312 331.265625 169.695312 331.167969 L 169.695312 260.003906 C 169.699219 259.90625 169.730469 259.828125 169.800781 259.757812 C 169.867188 259.691406 169.949219 259.65625 170.042969 259.652344 L 308.285156 259.652344 C 308.382812 259.652344 308.46875 259.6875 308.535156 259.753906 C 308.605469 259.824219 308.640625 259.90625 308.644531 260.003906 L 308.644531 331.167969 C 308.644531 331.265625 308.609375 331.351562 308.539062 331.421875 C 308.46875 331.492188 308.386719 331.527344 308.285156 331.527344 Z M 170.402344 330.816406 L 307.9375 330.816406 L 307.9375 260.363281 L 170.402344 260.363281 Z M 308.285156 255.734375 L 170.042969 255.734375 C 169.945312 255.734375 169.863281 255.695312 169.796875 255.628906 C 169.730469 255.558594 169.695312 255.472656 169.695312 255.375 L 169.695312 243.574219 C 169.695312 243.476562 169.730469 243.394531 169.796875 243.324219 C 169.863281 243.253906 169.945312 243.21875 170.042969 243.214844 L 308.285156 243.214844 C 308.386719 243.214844 308.46875 243.25 308.539062 243.320312 C 308.609375 243.390625 308.644531 243.476562 308.644531 243.574219 L 308.644531 255.375 C 308.644531 255.476562 308.609375 255.558594 308.539062 255.628906 C 308.46875 255.699219 308.386719 255.734375 308.285156 255.734375 Z M 170.402344 255.027344 L 307.9375 255.027344 L 307.9375 243.921875 L 170.402344 243.921875 Z M 170.402344 255.027344 " fill-opacity="1" fill-rule="nonzero"/><path fill="#5e5e5e" d="M 197.898438 249.476562 C 197.898438 249.777344 197.839844 250.066406 197.726562 250.34375 C 197.609375 250.621094 197.445312 250.867188 197.234375 251.078125 C 197.023438 251.289062 196.777344 251.453125 196.5 251.570312 C 196.222656 251.683594 195.933594 251.742188 195.632812 251.742188 C 195.332031 251.742188 195.042969 251.683594 194.765625 251.570312 C 194.488281 251.453125 194.246094 251.289062 194.03125 251.078125 C 193.820312 250.867188 193.65625 250.621094 193.542969 250.34375 C 193.425781 250.066406 193.367188 249.777344 193.367188 249.476562 C 193.367188 249.175781 193.425781 248.886719 193.542969 248.609375 C 193.65625 248.332031 193.820312 248.085938 194.03125 247.875 C 194.246094 247.660156 194.488281 247.496094 194.765625 247.382812 C 195.042969 247.265625 195.332031 247.210938 195.632812 247.210938 C 195.933594 247.210938 196.222656 247.265625 196.5 247.382812 C 196.777344 247.496094 197.023438 247.660156 197.234375 247.875 C 197.445312 248.085938 197.609375 248.332031 197.726562 248.609375 C 197.839844 248.886719 197.898438 249.175781 197.898438 249.476562 Z M 186.359375 247.210938 C 186.058594 247.207031 185.769531 247.265625 185.492188 247.378906 C 185.210938 247.492188 184.964844 247.65625 184.753906 247.867188 C 184.539062 248.078125 184.375 248.324219 184.257812 248.601562 C 184.144531 248.878906 184.085938 249.167969 184.085938 249.46875 C 184.082031 249.769531 184.140625 250.058594 184.253906 250.335938 C 184.367188 250.617188 184.53125 250.863281 184.746094 251.074219 C 184.957031 251.289062 185.199219 251.453125 185.480469 251.566406 C 185.757812 251.683594 186.046875 251.742188 186.34375 251.742188 C 186.644531 251.742188 186.933594 251.683594 187.214844 251.570312 C 187.492188 251.457031 187.738281 251.292969 187.949219 251.078125 C 188.160156 250.867188 188.324219 250.621094 188.441406 250.34375 C 188.554688 250.066406 188.613281 249.777344 188.613281 249.476562 C 188.613281 249.175781 188.554688 248.886719 188.441406 248.609375 C 188.328125 248.332031 188.164062 248.089844 187.953125 247.875 C 187.742188 247.664062 187.5 247.5 187.222656 247.382812 C 186.945312 247.269531 186.65625 247.210938 186.359375 247.210938 Z M 177.074219 247.210938 C 176.773438 247.210938 176.484375 247.265625 176.207031 247.382812 C 175.929688 247.496094 175.683594 247.660156 175.472656 247.875 C 175.261719 248.085938 175.097656 248.332031 174.980469 248.609375 C 174.867188 248.886719 174.808594 249.175781 174.808594 249.476562 C 174.808594 249.777344 174.867188 250.066406 174.980469 250.34375 C 175.097656 250.621094 175.261719 250.867188 175.472656 251.078125 C 175.683594 251.289062 175.929688 251.453125 176.207031 251.570312 C 176.484375 251.683594 176.773438 251.742188 177.074219 251.742188 C 177.375 251.742188 177.664062 251.683594 177.941406 251.570312 C 178.21875 251.453125 178.460938 251.289062 178.675781 251.078125 C 178.886719 250.867188 179.050781 250.621094 179.164062 250.34375 C 179.28125 250.066406 179.339844 249.777344 179.339844 249.476562 C 179.339844 249.175781 179.28125 248.886719 179.164062 248.609375 C 179.050781 248.332031 178.886719 248.085938 178.675781 247.875 C 178.460938 247.660156 178.21875 247.496094 177.941406 247.382812 C 177.664062 247.265625 177.375 247.210938 177.074219 247.210938 Z M 177.074219 247.210938 " fill-opacity="1" fill-rule="nonzero"/><path fill="#f2f2f2" d="M 21.394531 163.996094 L 24.300781 153.09375 C 23.414062 152.476562 19.800781 148.558594 19.820312 146.632812 C 19.820312 145.6875 22.121094 145.6875 23.253906 145.007812 L 23.375 144.945312 L 23.507812 144.945312 C 24.058594 144.960938 24.582031 145.082031 25.082031 145.3125 C 24.96875 143.871094 25.308594 142.546875 26.101562 141.335938 C 26.707031 140.582031 28.933594 141.101562 28.601562 140.089844 C 27.195312 135.859375 33.765625 137.710938 33.832031 137.625 L 34.265625 136.992188 L 34.679688 137.644531 C 34.953125 138.070312 41.285156 148.238281 40.097656 152.808594 C 39.894531 153.660156 39.40625 154.289062 38.632812 154.695312 C 37.273438 155.542969 35.804688 156.070312 34.21875 156.285156 L 34.140625 156.285156 L 35.320312 164.546875 Z M 21.394531 163.996094 " fill-opacity="1" fill-rule="nonzero"/><path fill="#32292f" d="M 35.320312 164.941406 L 21.394531 164.402344 C 21.28125 164.398438 21.191406 164.351562 21.121094 164.261719 C 21.050781 164.171875 21.035156 164.070312 21.0625 163.960938 L 23.894531 153.269531 C 22.734375 152.328125 19.441406 148.664062 19.46875 146.660156 C 19.46875 145.785156 20.527344 145.519531 21.546875 145.253906 C 22.078125 145.152344 22.585938 144.976562 23.074219 144.734375 L 23.195312 144.667969 C 23.257812 144.652344 23.316406 144.652344 23.375 144.667969 L 23.507812 144.667969 C 23.925781 144.675781 24.335938 144.742188 24.734375 144.867188 C 24.691406 143.515625 25.054688 142.28125 25.820312 141.167969 C 26.277344 140.746094 26.820312 140.535156 27.441406 140.535156 C 27.734375 140.515625 28.015625 140.449219 28.28125 140.328125 C 28.082031 139.921875 28 139.492188 28.035156 139.042969 C 28.070312 138.59375 28.21875 138.183594 28.480469 137.816406 C 29.585938 136.539062 32.445312 137.070312 33.527344 137.265625 L 33.652344 137.265625 L 33.972656 136.8125 C 34.042969 136.710938 34.140625 136.660156 34.265625 136.664062 C 34.390625 136.664062 34.488281 136.71875 34.558594 136.824219 L 34.960938 137.476562 C 35.246094 137.910156 41.691406 148.199219 40.425781 152.921875 C 40.199219 153.878906 39.652344 154.585938 38.785156 155.046875 C 37.464844 155.835938 36.050781 156.375 34.539062 156.660156 L 35.660156 164.535156 C 35.683594 164.644531 35.65625 164.738281 35.574219 164.820312 C 35.507812 164.898438 35.425781 164.9375 35.320312 164.941406 Z M 21.847656 163.714844 L 34.914062 164.214844 L 33.792969 156.347656 C 33.78125 156.238281 33.8125 156.144531 33.886719 156.066406 C 33.957031 155.976562 34.046875 155.9375 34.160156 155.941406 C 35.707031 155.738281 37.140625 155.226562 38.464844 154.402344 C 39.152344 154.039062 39.582031 153.472656 39.757812 152.714844 C 40.699219 149.171875 36.652344 141.382812 34.378906 137.832031 L 34.253906 137.636719 L 34.121094 137.824219 C 33.980469 138.023438 33.820312 137.996094 33.40625 137.917969 C 32.527344 137.757812 29.867188 137.257812 29.019531 138.230469 C 28.855469 138.496094 28.765625 138.78125 28.753906 139.09375 C 28.738281 139.40625 28.800781 139.699219 28.941406 139.976562 C 29.035156 140.210938 29.015625 140.433594 28.886719 140.648438 C 28.660156 141.023438 28.121094 141.101562 27.554688 141.183594 C 26.988281 141.269531 26.566406 141.328125 26.375 141.5625 C 25.628906 142.714844 25.3125 143.972656 25.433594 145.339844 C 25.4375 145.472656 25.382812 145.570312 25.273438 145.640625 C 25.15625 145.714844 25.039062 145.714844 24.921875 145.640625 C 24.472656 145.433594 23.996094 145.324219 23.5 145.3125 L 23.414062 145.3125 C 22.867188 145.589844 22.296875 145.789062 21.695312 145.90625 C 20.980469 146.09375 20.15625 146.304688 20.15625 146.632812 C 20.15625 148.363281 23.621094 152.203125 24.480469 152.789062 C 24.617188 152.886719 24.664062 153.015625 24.621094 153.175781 Z M 21.847656 163.714844 " fill-opacity="1" fill-rule="nonzero"/><path fill="#5e5e5e" d="M 35.347656 160.21875 L 43.839844 162.0625 C 44.601562 162.230469 45.332031 162.488281 46.027344 162.835938 C 46.722656 163.1875 47.367188 163.617188 47.957031 164.128906 C 48.542969 164.636719 49.0625 165.214844 49.507812 165.851562 C 49.953125 166.492188 50.3125 167.175781 50.589844 167.90625 L 55.703125 181.539062 L 50.75 200.621094 L 50.992188 208.308594 L 53.191406 223.6875 L 13.84375 231.140625 L 11.957031 190.539062 L 8.410156 187.035156 L 5.871094 178.867188 C 5.703125 178.382812 5.574219 177.886719 5.488281 177.382812 C 5.402344 176.875 5.359375 176.367188 5.363281 175.851562 C 5.363281 175.335938 5.40625 174.828125 5.496094 174.320312 C 5.582031 173.816406 5.714844 173.320312 5.886719 172.835938 C 6.058594 172.351562 6.273438 171.886719 6.523438 171.441406 C 6.777344 170.992188 7.0625 170.570312 7.386719 170.171875 C 7.710938 169.773438 8.070312 169.40625 8.457031 169.066406 C 8.84375 168.730469 9.253906 168.429688 9.695312 168.160156 L 22.660156 160.21875 C 30.460938 167.332031 35.347656 160.21875 35.347656 160.21875 Z M 35.347656 160.21875 " fill-opacity="1" fill-rule="nonzero"/><path fill="#f2f2f2" d="M 8.269531 186.65625 C 11.96875 184.996094 16.96875 182.578125 17.554688 182.230469 L 19.054688 181.417969 L 22.886719 192.324219 L 37.492188 160.785156 C 37.339844 160.113281 37.050781 159.503906 36.621094 158.960938 C 36.195312 158.417969 35.675781 157.988281 35.058594 157.679688 L 29.328125 155.101562 L 30.046875 154.582031 C 31.773438 153.355469 34.925781 153.6875 35.460938 153.753906 C 36.964844 153.515625 39.964844 151.296875 41 150.457031 L 41.246094 150.257812 L 41.53125 150.390625 C 44.398438 151.722656 45.210938 159.277344 45.210938 160.078125 L 45.210938 160.21875 L 29.714844 205.691406 C 29.511719 206.308594 29.222656 206.882812 28.847656 207.414062 C 28.472656 207.941406 28.023438 208.40625 27.507812 208.800781 C 26.992188 209.195312 26.429688 209.503906 25.820312 209.726562 C 25.210938 209.949219 24.582031 210.078125 23.933594 210.113281 L 23.507812 210.113281 C 22.894531 210.117188 22.292969 210.035156 21.703125 209.867188 C 21.113281 209.699219 20.558594 209.453125 20.039062 209.125 C 19.519531 208.796875 19.054688 208.402344 18.648438 207.945312 C 18.242188 207.484375 17.910156 206.976562 17.648438 206.421875 Z M 8.269531 186.65625 " fill-opacity="1" fill-rule="nonzero"/><path fill="#32292f" d="M 23.507812 210.46875 C 22.863281 210.472656 22.226562 210.386719 21.605469 210.210938 C 20.984375 210.03125 20.402344 209.769531 19.855469 209.425781 C 19.308594 209.082031 18.820312 208.667969 18.394531 208.183594 C 17.964844 207.699219 17.613281 207.164062 17.335938 206.582031 L 7.902344 186.835938 C 7.867188 186.746094 7.867188 186.65625 7.902344 186.5625 C 7.9375 186.472656 8 186.402344 8.089844 186.355469 C 11.863281 184.675781 16.789062 182.277344 17.335938 181.957031 L 18.847656 181.132812 C 18.941406 181.082031 19.042969 181.074219 19.144531 181.113281 C 19.246094 181.148438 19.316406 181.21875 19.355469 181.324219 L 22.933594 191.378906 L 37.085938 160.796875 C 36.941406 160.203125 36.679688 159.664062 36.300781 159.183594 C 35.921875 158.703125 35.460938 158.324219 34.914062 158.050781 L 29.167969 155.425781 C 29.039062 155.371094 28.96875 155.273438 28.960938 155.132812 C 28.945312 154.996094 28.992188 154.890625 29.101562 154.808594 L 29.820312 154.300781 C 31.605469 153.027344 34.699219 153.355469 35.433594 153.355469 C 36.726562 153.121094 39.371094 151.269531 40.757812 150.144531 L 41 149.949219 C 41.125 149.871094 41.246094 149.871094 41.371094 149.949219 L 41.660156 150.070312 C 44.652344 151.441406 45.4375 158.625 45.578125 160.058594 L 45.578125 160.164062 C 45.585938 160.214844 45.585938 160.265625 45.578125 160.316406 L 30.054688 205.804688 C 29.839844 206.457031 29.535156 207.0625 29.136719 207.621094 C 28.742188 208.179688 28.269531 208.664062 27.726562 209.082031 C 27.179688 209.496094 26.585938 209.820312 25.941406 210.058594 C 25.300781 210.292969 24.636719 210.425781 23.953125 210.460938 Z M 8.742188 186.867188 L 17.96875 206.289062 C 18.238281 206.839844 18.582031 207.339844 19 207.789062 C 19.417969 208.238281 19.890625 208.621094 20.421875 208.925781 C 20.953125 209.234375 21.515625 209.460938 22.113281 209.601562 C 22.710938 209.742188 23.316406 209.789062 23.929688 209.75 C 24.539062 209.710938 25.132812 209.582031 25.707031 209.367188 C 26.28125 209.148438 26.8125 208.851562 27.296875 208.476562 C 27.785156 208.105469 28.203125 207.664062 28.558594 207.164062 C 28.917969 206.664062 29.191406 206.125 29.386719 205.542969 L 44.890625 160.105469 C 44.617188 157.085938 43.566406 151.703125 41.386719 150.710938 L 41.292969 150.710938 L 41.226562 150.769531 C 41.226562 150.769531 37.453125 153.835938 35.519531 154.140625 L 35.414062 154.140625 C 35.066406 154.140625 31.894531 153.734375 30.253906 154.914062 L 30.039062 155.066406 L 35.199219 157.386719 C 35.863281 157.714844 36.425781 158.171875 36.886719 158.753906 C 37.34375 159.335938 37.65625 159.988281 37.820312 160.710938 C 37.855469 160.796875 37.855469 160.882812 37.820312 160.964844 L 23.207031 192.425781 C 23.136719 192.5625 23.027344 192.628906 22.875 192.625 C 22.714844 192.621094 22.605469 192.542969 22.554688 192.390625 L 18.867188 182.003906 L 17.722656 182.617188 C 17.140625 182.882812 12.375 185.214844 8.75 186.855469 Z M 8.742188 186.867188 " fill-opacity="1" fill-rule="nonzero"/><path fill="#f2f2f2" d="M 18.394531 206.363281 L 18.515625 205.9375 L 23.742188 206.722656 L 27.960938 205.777344 L 48.523438 194.296875 L 45.011719 183.050781 L 55.390625 180.484375 L 60.421875 195.863281 C 60.542969 196.265625 60.628906 196.679688 60.671875 197.097656 C 60.714844 197.519531 60.714844 197.9375 60.675781 198.359375 C 60.636719 198.777344 60.558594 199.191406 60.441406 199.59375 C 60.320312 200 60.164062 200.390625 59.96875 200.761719 C 59.773438 201.136719 59.546875 201.488281 59.28125 201.820312 C 59.019531 202.148438 58.726562 202.449219 58.402344 202.71875 C 58.082031 202.992188 57.734375 203.230469 57.367188 203.4375 C 57 203.640625 56.613281 203.808594 56.210938 203.9375 L 31.28125 212.152344 C 29.125 213.3125 26.824219 213.941406 24.375 214.039062 L 23.761719 214.039062 C 23.414062 214.085938 23.070312 214.074219 22.726562 214.003906 C 22.382812 213.933594 22.058594 213.8125 21.757812 213.636719 C 21.453125 213.460938 21.1875 213.242188 20.957031 212.976562 C 20.726562 212.710938 20.546875 212.417969 20.414062 212.09375 C 19.714844 211.835938 19.175781 211.390625 18.789062 210.753906 C 18.554688 210.324219 18.484375 209.867188 18.582031 209.386719 C 18.128906 208.402344 18.066406 207.394531 18.394531 206.363281 Z M 18.394531 206.363281 " fill-opacity="1" fill-rule="nonzero"/><path fill="#32292f" d="M 24.375 214.34375 C 24.167969 214.34375 23.953125 214.34375 23.742188 214.34375 C 23.375 214.386719 23.007812 214.375 22.640625 214.300781 C 22.277344 214.230469 21.933594 214.101562 21.609375 213.917969 C 21.285156 213.734375 20.996094 213.507812 20.746094 213.234375 C 20.496094 212.957031 20.292969 212.652344 20.140625 212.3125 C 19.4375 212.039062 18.886719 211.585938 18.488281 210.941406 C 18.222656 210.476562 18.128906 209.980469 18.214844 209.449219 C 17.777344 208.417969 17.722656 207.363281 18.054688 206.289062 L 18.175781 205.855469 C 18.199219 205.769531 18.25 205.703125 18.324219 205.65625 C 18.398438 205.609375 18.476562 205.59375 18.5625 205.609375 L 23.726562 206.382812 L 27.839844 205.4375 L 48.105469 194.109375 L 44.671875 183.136719 C 44.632812 183.046875 44.632812 182.953125 44.671875 182.863281 C 44.722656 182.773438 44.800781 182.710938 44.898438 182.683594 L 55.230469 180.113281 C 55.320312 180.09375 55.40625 180.109375 55.488281 180.152344 C 55.566406 180.199219 55.625 180.265625 55.65625 180.351562 L 60.683594 195.730469 C 60.8125 196.15625 60.898438 196.589844 60.945312 197.03125 C 60.988281 197.472656 60.988281 197.917969 60.949219 198.359375 C 60.90625 198.800781 60.820312 199.234375 60.695312 199.660156 C 60.570312 200.085938 60.402344 200.496094 60.199219 200.890625 C 59.992188 201.285156 59.75 201.652344 59.472656 202 C 59.195312 202.347656 58.886719 202.664062 58.546875 202.949219 C 58.207031 203.234375 57.84375 203.484375 57.457031 203.703125 C 57.066406 203.917969 56.664062 204.09375 56.238281 204.230469 L 31.386719 212.433594 C 29.199219 213.621094 26.863281 214.257812 24.375 214.34375 Z M 23.734375 213.625 L 24.375 213.625 C 26.761719 213.519531 29.007812 212.90625 31.113281 211.78125 L 56.050781 203.585938 C 56.429688 203.464844 56.796875 203.308594 57.144531 203.113281 C 57.492188 202.921875 57.820312 202.695312 58.125 202.441406 C 58.429688 202.183594 58.707031 201.898438 58.957031 201.585938 C 59.203125 201.277344 59.421875 200.945312 59.605469 200.589844 C 59.789062 200.238281 59.9375 199.867188 60.050781 199.484375 C 60.164062 199.101562 60.238281 198.714844 60.277344 198.316406 C 60.3125 197.917969 60.3125 197.523438 60.269531 197.125 C 60.230469 196.730469 60.148438 196.339844 60.035156 195.957031 L 55.109375 180.851562 L 45.457031 183.25 L 48.863281 194.210938 C 48.921875 194.394531 48.867188 194.53125 48.699219 194.628906 L 28.140625 206.089844 L 28.046875 206.089844 L 23.820312 207.035156 C 23.773438 207.042969 23.730469 207.042969 23.6875 207.035156 L 18.789062 206.335938 L 18.789062 206.46875 C 18.484375 207.410156 18.542969 208.328125 18.960938 209.222656 C 18.976562 209.300781 18.976562 209.375 18.960938 209.449219 C 18.878906 209.847656 18.933594 210.222656 19.128906 210.574219 C 19.484375 211.113281 19.964844 211.488281 20.574219 211.699219 C 20.675781 211.738281 20.742188 211.8125 20.78125 211.914062 C 20.902344 212.199219 21.0625 212.457031 21.265625 212.6875 C 21.46875 212.917969 21.703125 213.109375 21.972656 213.265625 C 22.238281 213.417969 22.523438 213.527344 22.824219 213.589844 C 23.125 213.648438 23.429688 213.660156 23.734375 213.625 Z M 18.394531 206.363281 Z M 18.394531 206.363281 " fill-opacity="1" fill-rule="nonzero"/><path fill="#32292f" d="M 36.152344 139.289062 C 36.21875 139.429688 36.40625 139.730469 36.152344 139.777344 C 35.898438 139.824219 35.800781 139.503906 35.71875 139.410156 C 35.351562 138.992188 34.902344 138.710938 34.367188 138.570312 C 33.722656 138.363281 33.0625 138.246094 32.386719 138.222656 C 32.148438 138.214844 31.917969 138.25 31.695312 138.328125 C 31.472656 138.40625 31.269531 138.523438 31.089844 138.675781 C 30.90625 138.824219 30.757812 139.003906 30.640625 139.210938 C 30.527344 139.417969 30.449219 139.640625 30.414062 139.875 C 30.367188 140.148438 30.3125 140.402344 30.28125 140.554688 C 30.121094 141.429688 30.007812 142.328125 29.859375 143.207031 C 29.722656 144.289062 29.394531 145.308594 28.867188 146.265625 C 28.453125 146.945312 27.820312 147.664062 26.980469 147.484375 C 25.519531 147.171875 24.433594 144.726562 22.773438 145.765625 C 21.667969 146.464844 21.289062 148.984375 22.554688 149.835938 C 22.875 150.042969 23.21875 150.1875 23.59375 150.269531 C 23.9375 150.296875 24.269531 150.382812 24.582031 150.53125 C 25.273438 151.015625 24.375 151.148438 24.015625 151.082031 C 24.734375 152.5625 25.148438 154.015625 24.167969 155.414062 C 23.167969 156.644531 21.910156 157.484375 20.394531 157.9375 C 18.765625 158.542969 17.125 158.570312 15.476562 158.019531 C 15.109375 157.851562 14.753906 157.882812 14.421875 158.113281 C 13.996094 158.367188 13.546875 158.558594 13.070312 158.691406 C 12.453125 158.863281 11.824219 158.964844 11.183594 159.003906 C 9.941406 159.101562 8.773438 158.851562 7.683594 158.246094 C 6.457031 157.59375 5.558594 156.628906 4.996094 155.359375 C 4.75 154.585938 4.679688 153.800781 4.789062 152.996094 C 4.789062 152.441406 5.097656 151.601562 4.789062 151.109375 C 4.476562 150.617188 3.84375 150.417969 3.410156 150.164062 C 2.917969 149.902344 2.503906 149.546875 2.171875 149.097656 C 0.285156 146.644531 0.738281 143.253906 1.9375 140.703125 C 2.179688 140.140625 2.496094 139.621094 2.878906 139.144531 C 3.265625 138.664062 3.707031 138.25 4.207031 137.890625 C 4.703125 137.535156 5.242188 137.25 5.820312 137.042969 C 6.394531 136.832031 6.988281 136.703125 7.597656 136.652344 C 9.105469 136.527344 10.5625 136.730469 11.976562 137.257812 C 13.261719 137.710938 14.808594 138.5625 16.128906 138.117188 C 17.449219 137.671875 18.015625 136.378906 18.734375 135.386719 C 19.578125 134.292969 20.640625 133.488281 21.921875 132.972656 C 23.1875 132.511719 24.496094 132.3125 25.839844 132.378906 C 27.183594 132.449219 28.464844 132.773438 29.679688 133.359375 C 31.039062 133.855469 32.296875 134.542969 33.453125 135.417969 C 34.074219 136.070312 34.617188 136.785156 35.074219 137.558594 C 35.480469 138.113281 35.839844 138.695312 36.152344 139.304688 " fill-opacity="1" fill-rule="nonzero"/><path fill="#32292f" d="M 178.46875 198.328125 C 178.472656 198.234375 178.507812 198.152344 178.574219 198.082031 C 178.640625 198.015625 178.722656 197.980469 178.820312 197.980469 L 195.320312 197.980469 C 195.429688 197.960938 195.527344 197.988281 195.613281 198.058594 C 195.695312 198.132812 195.738281 198.222656 195.738281 198.332031 C 195.738281 198.445312 195.695312 198.535156 195.613281 198.605469 C 195.527344 198.679688 195.429688 198.703125 195.320312 198.6875 L 178.820312 198.6875 C 178.722656 198.683594 178.640625 198.648438 178.570312 198.578125 C 178.503906 198.507812 178.46875 198.425781 178.46875 198.328125 Z M 223.648438 200.820312 L 178.820312 200.820312 C 178.617188 200.855469 178.519531 200.972656 178.519531 201.175781 C 178.519531 201.378906 178.617188 201.496094 178.820312 201.527344 L 223.648438 201.527344 C 223.757812 201.546875 223.855469 201.519531 223.9375 201.449219 C 224.023438 201.375 224.066406 201.285156 224.066406 201.175781 C 224.066406 201.0625 224.023438 200.972656 223.9375 200.902344 C 223.855469 200.828125 223.757812 200.804688 223.648438 200.820312 Z M 223.648438 203.652344 L 178.820312 203.652344 C 178.617188 203.6875 178.519531 203.804688 178.519531 204.007812 C 178.519531 204.210938 178.617188 204.328125 178.820312 204.363281 L 223.648438 204.363281 C 223.757812 204.378906 223.855469 204.351562 223.9375 204.28125 C 224.023438 204.210938 224.066406 204.117188 224.066406 204.007812 C 224.066406 203.898438 224.023438 203.804688 223.9375 203.734375 C 223.855469 203.664062 223.757812 203.636719 223.648438 203.652344 Z M 223.648438 206.484375 L 178.820312 206.484375 C 178.722656 206.488281 178.640625 206.523438 178.570312 206.59375 C 178.503906 206.664062 178.46875 206.746094 178.46875 206.84375 C 178.46875 206.941406 178.503906 207.023438 178.574219 207.09375 C 178.640625 207.160156 178.722656 207.195312 178.820312 207.195312 L 223.648438 207.195312 C 223.746094 207.195312 223.832031 207.164062 223.902344 207.09375 C 223.972656 207.027344 224.007812 206.941406 224.007812 206.84375 C 224.007812 206.746094 223.972656 206.660156 223.902344 206.589844 C 223.832031 206.519531 223.746094 206.484375 223.648438 206.484375 Z M 223.648438 209.320312 L 178.820312 209.320312 C 178.722656 209.320312 178.640625 209.351562 178.574219 209.421875 C 178.503906 209.488281 178.46875 209.570312 178.46875 209.667969 C 178.46875 209.765625 178.503906 209.847656 178.570312 209.917969 C 178.640625 209.988281 178.722656 210.023438 178.820312 210.027344 L 223.648438 210.027344 C 223.746094 210.027344 223.832031 209.992188 223.902344 209.921875 C 223.972656 209.851562 224.007812 209.765625 224.007812 209.667969 C 224.007812 209.570312 223.972656 209.484375 223.902344 209.417969 C 223.832031 209.347656 223.746094 209.316406 223.648438 209.320312 Z M 223.648438 212.152344 L 178.820312 212.152344 C 178.722656 212.152344 178.640625 212.183594 178.574219 212.253906 C 178.503906 212.320312 178.46875 212.402344 178.46875 212.5 C 178.46875 212.597656 178.503906 212.679688 178.570312 212.75 C 178.640625 212.820312 178.722656 212.855469 178.820312 212.859375 L 223.648438 212.859375 C 223.746094 212.859375 223.832031 212.824219 223.902344 212.753906 C 223.972656 212.683594 224.007812 212.601562 224.007812 212.5 C 224.007812 212.402344 223.972656 212.320312 223.902344 212.25 C 223.832031 212.183594 223.746094 212.148438 223.648438 212.152344 Z M 223.648438 214.984375 L 178.820312 214.984375 C 178.617188 215.015625 178.519531 215.136719 178.519531 215.339844 C 178.519531 215.542969 178.617188 215.660156 178.820312 215.691406 L 223.648438 215.691406 C 223.757812 215.710938 223.855469 215.683594 223.9375 215.613281 C 224.023438 215.539062 224.066406 215.449219 224.066406 215.339844 C 224.066406 215.226562 224.023438 215.136719 223.9375 215.066406 C 223.855469 214.992188 223.757812 214.964844 223.648438 214.984375 Z M 234.527344 198.6875 L 251.03125 198.6875 C 251.230469 198.652344 251.332031 198.535156 251.332031 198.332031 C 251.332031 198.128906 251.230469 198.011719 251.03125 197.980469 L 234.527344 197.980469 C 234.328125 198.011719 234.226562 198.128906 234.226562 198.332031 C 234.226562 198.535156 234.328125 198.652344 234.527344 198.6875 Z M 234.527344 201.519531 L 279.355469 201.519531 C 279.558594 201.488281 279.65625 201.367188 279.65625 201.164062 C 279.65625 200.960938 279.558594 200.84375 279.355469 200.8125 L 234.527344 200.8125 C 234.328125 200.84375 234.226562 200.960938 234.226562 201.164062 C 234.226562 201.367188 234.328125 201.488281 234.527344 201.519531 Z M 279.355469 203.652344 L 234.527344 203.652344 C 234.328125 203.6875 234.226562 203.804688 234.226562 204.007812 C 234.226562 204.210938 234.328125 204.328125 234.527344 204.363281 L 279.355469 204.363281 C 279.558594 204.328125 279.65625 204.210938 279.65625 204.007812 C 279.65625 203.804688 279.558594 203.6875 279.355469 203.652344 Z M 279.355469 206.484375 L 234.527344 206.484375 C 234.429688 206.484375 234.347656 206.519531 234.277344 206.59375 C 234.207031 206.664062 234.175781 206.746094 234.179688 206.84375 C 234.175781 206.941406 234.207031 207.027344 234.277344 207.09375 C 234.347656 207.164062 234.429688 207.195312 234.527344 207.195312 L 279.355469 207.195312 C 279.453125 207.195312 279.535156 207.160156 279.601562 207.09375 C 279.671875 207.023438 279.707031 206.941406 279.707031 206.84375 C 279.707031 206.746094 279.671875 206.664062 279.605469 206.59375 C 279.535156 206.523438 279.453125 206.488281 279.355469 206.484375 Z M 279.355469 209.320312 L 234.527344 209.320312 C 234.429688 209.316406 234.347656 209.347656 234.277344 209.417969 C 234.207031 209.488281 234.175781 209.570312 234.179688 209.667969 C 234.175781 209.765625 234.207031 209.851562 234.277344 209.921875 C 234.347656 209.992188 234.429688 210.027344 234.527344 210.027344 L 279.355469 210.027344 C 279.453125 210.023438 279.535156 209.988281 279.605469 209.917969 C 279.671875 209.847656 279.707031 209.765625 279.707031 209.667969 C 279.707031 209.570312 279.671875 209.488281 279.601562 209.421875 C 279.535156 209.351562 279.453125 209.320312 279.355469 209.320312 Z M 279.355469 212.152344 L 234.527344 212.152344 C 234.429688 212.148438 234.347656 212.183594 234.277344 212.25 C 234.207031 212.320312 234.175781 212.402344 234.179688 212.5 C 234.175781 212.597656 234.207031 212.683594 234.277344 212.753906 C 234.347656 212.824219 234.429688 212.859375 234.527344 212.859375 L 279.355469 212.859375 C 279.453125 212.855469 279.535156 212.820312 279.605469 212.75 C 279.671875 212.679688 279.707031 212.597656 279.707031 212.5 C 279.707031 212.402344 279.671875 212.320312 279.601562 212.253906 C 279.535156 212.183594 279.453125 212.152344 279.355469 212.152344 Z M 279.355469 214.984375 L 234.527344 214.984375 C 234.328125 215.015625 234.226562 215.136719 234.226562 215.339844 C 234.226562 215.542969 234.328125 215.660156 234.527344 215.691406 L 279.355469 215.691406 C 279.558594 215.660156 279.65625 215.542969 279.65625 215.339844 C 279.65625 215.136719 279.558594 215.015625 279.355469 214.984375 Z M 279.355469 214.984375 " fill-opacity="1" fill-rule="nonzero"/><path fill="#32292f" d="M 294.546875 125.425781 L 253.4375 125.378906 C 253.339844 125.378906 253.257812 125.339844 253.1875 125.269531 C 253.121094 125.203125 253.085938 125.117188 253.085938 125.019531 L 253.085938 103.558594 C 253.085938 103.460938 253.121094 103.375 253.191406 103.304688 C 253.257812 103.234375 253.339844 103.199219 253.4375 103.199219 L 294.546875 103.257812 C 294.644531 103.253906 294.730469 103.289062 294.796875 103.355469 C 294.867188 103.425781 294.898438 103.507812 294.898438 103.605469 L 294.898438 125.066406 C 294.898438 125.167969 294.863281 125.25 294.792969 125.320312 C 294.722656 125.390625 294.636719 125.425781 294.539062 125.425781 Z M 253.796875 124.671875 L 294.199219 124.71875 L 294.199219 103.945312 L 253.804688 103.890625 Z M 253.796875 124.671875 " fill-opacity="1" fill-rule="nonzero"/><path fill="#f2f2f2" d="M 204.125 283.117188 C 204.125 283.730469 204.066406 284.335938 203.945312 284.9375 C 203.828125 285.535156 203.652344 286.117188 203.417969 286.683594 C 203.183594 287.25 202.894531 287.785156 202.554688 288.296875 C 202.214844 288.804688 201.828125 289.273438 201.398438 289.707031 C 200.964844 290.140625 200.492188 290.527344 199.984375 290.867188 C 199.476562 291.207031 198.941406 291.492188 198.375 291.726562 C 197.808594 291.960938 197.226562 292.136719 196.625 292.257812 C 196.027344 292.378906 195.421875 292.4375 194.808594 292.4375 C 194.199219 292.4375 193.59375 292.375 192.992188 292.257812 C 192.390625 292.136719 191.808594 291.960938 191.246094 291.726562 C 190.679688 291.492188 190.144531 291.203125 189.636719 290.863281 C 189.125 290.523438 188.65625 290.136719 188.222656 289.703125 C 187.792969 289.269531 187.40625 288.800781 187.066406 288.289062 C 186.726562 287.78125 186.441406 287.242188 186.207031 286.679688 C 185.972656 286.113281 185.796875 285.53125 185.675781 284.929688 C 185.558594 284.328125 185.5 283.722656 185.5 283.109375 C 185.5 282.5 185.558594 281.894531 185.679688 281.292969 C 185.800781 280.691406 185.976562 280.109375 186.210938 279.542969 C 186.445312 278.980469 186.734375 278.441406 187.074219 277.933594 C 187.414062 277.425781 187.800781 276.953125 188.234375 276.523438 C 188.664062 276.089844 189.136719 275.703125 189.644531 275.363281 C 190.15625 275.023438 190.691406 274.738281 191.257812 274.503906 C 191.820312 274.269531 192.40625 274.09375 193.003906 273.976562 C 193.605469 273.855469 194.210938 273.796875 194.820312 273.796875 C 195.433594 273.796875 196.039062 273.859375 196.636719 273.976562 C 197.238281 274.097656 197.820312 274.273438 198.382812 274.507812 C 198.949219 274.742188 199.484375 275.027344 199.992188 275.367188 C 200.5 275.707031 200.972656 276.09375 201.402344 276.527344 C 201.835938 276.960938 202.222656 277.429688 202.5625 277.941406 C 202.898438 278.449219 203.1875 278.984375 203.421875 279.550781 C 203.652344 280.117188 203.828125 280.699219 203.949219 281.300781 C 204.066406 281.898438 204.125 282.503906 204.125 283.117188 Z M 209.363281 280.777344 L 225.855469 280.777344 C 225.964844 280.792969 226.0625 280.765625 226.144531 280.695312 C 226.230469 280.625 226.273438 280.53125 226.273438 280.421875 C 226.273438 280.3125 226.230469 280.21875 226.144531 280.148438 C 226.0625 280.078125 225.964844 280.050781 225.855469 280.066406 L 209.390625 280.066406 C 209.28125 280.050781 209.183594 280.078125 209.101562 280.148438 C 209.015625 280.21875 208.972656 280.3125 208.972656 280.421875 C 208.972656 280.53125 209.015625 280.625 209.101562 280.695312 C 209.183594 280.765625 209.28125 280.792969 209.390625 280.777344 Z M 254.183594 282.898438 L 209.390625 282.898438 C 209.28125 282.882812 209.183594 282.910156 209.101562 282.980469 C 209.015625 283.050781 208.972656 283.144531 208.972656 283.253906 C 208.972656 283.363281 209.015625 283.457031 209.101562 283.527344 C 209.183594 283.597656 209.28125 283.625 209.390625 283.609375 L 254.210938 283.609375 C 254.320312 283.625 254.417969 283.597656 254.5 283.527344 C 254.585938 283.457031 254.625 283.363281 254.625 283.253906 C 254.625 283.144531 254.585938 283.050781 254.5 282.980469 C 254.417969 282.910156 254.320312 282.882812 254.210938 282.898438 Z M 295.867188 321 L 286.535156 304.785156 L 277.59375 320.253906 L 270.816406 308.460938 L 263.570312 320.980469 L 278.027344 320.980469 Z M 278.269531 307.261719 C 278.648438 307.269531 279.011719 307.203125 279.363281 307.066406 C 279.714844 306.925781 280.023438 306.726562 280.296875 306.464844 C 280.566406 306.203125 280.777344 305.898438 280.925781 305.550781 C 281.074219 305.207031 281.152344 304.84375 281.160156 304.464844 C 281.164062 304.089844 281.097656 303.726562 280.957031 303.375 C 280.816406 303.023438 280.613281 302.714844 280.351562 302.445312 C 280.085938 302.175781 279.78125 301.96875 279.433594 301.820312 C 279.085938 301.671875 278.722656 301.597656 278.347656 301.597656 C 277.96875 301.59375 277.605469 301.664062 277.257812 301.804688 C 276.910156 301.949219 276.601562 302.152344 276.332031 302.417969 C 276.066406 302.683594 275.859375 302.992188 275.714844 303.339844 C 275.570312 303.6875 275.496094 304.050781 275.496094 304.425781 C 275.492188 304.800781 275.558594 305.160156 275.695312 305.507812 C 275.832031 305.851562 276.03125 306.160156 276.292969 306.425781 C 276.554688 306.691406 276.855469 306.894531 277.199219 307.042969 C 277.542969 307.1875 277.898438 307.257812 278.269531 307.261719 Z M 278.269531 307.261719 " fill-opacity="1" fill-rule="nonzero"/><path fill="#32292f" d="M 191.691406 70.152344 C 191.605469 70.152344 191.527344 70.125 191.464844 70.070312 C 191.390625 70.007812 191.351562 69.925781 191.339844 69.832031 L 188.753906 38.757812 C 188.746094 38.660156 188.769531 38.574219 188.832031 38.496094 C 188.898438 38.425781 188.980469 38.382812 189.074219 38.371094 L 248.585938 33.40625 C 248.6875 33.382812 248.78125 33.398438 248.867188 33.457031 C 248.953125 33.515625 249.003906 33.597656 249.019531 33.699219 L 251.558594 64.855469 C 251.566406 64.953125 251.542969 65.035156 251.484375 65.113281 C 251.417969 65.1875 251.335938 65.226562 251.238281 65.234375 L 191.726562 70.199219 Z M 189.480469 39.050781 L 192.019531 69.417969 L 250.832031 64.515625 L 248.292969 34.140625 Z M 189.480469 39.050781 " fill-opacity="1" fill-rule="nonzero"/><path fill="#32292f" d="M 362.738281 197.15625 C 362.640625 197.148438 362.5625 197.105469 362.5 197.03125 C 362.4375 196.953125 362.410156 196.867188 362.417969 196.769531 C 362.417969 196.628906 363.476562 182.089844 359.589844 174.628906 C 359.539062 174.542969 359.53125 174.449219 359.5625 174.355469 C 359.589844 174.261719 359.648438 174.191406 359.738281 174.148438 C 359.824219 174.105469 359.914062 174.097656 360.003906 174.128906 C 360.097656 174.15625 360.164062 174.214844 360.210938 174.296875 C 364.164062 181.945312 363.136719 196.222656 363.089844 196.828125 C 363.082031 196.917969 363.046875 197 362.980469 197.0625 C 362.914062 197.125 362.832031 197.15625 362.738281 197.15625 Z M 362.738281 197.15625 " fill-opacity="1" fill-rule="nonzero"/><path fill="#5e5e5e" d="M 131.074219 104.570312 L 157.496094 104.570312 C 157.496094 104.570312 158.4375 124.492188 151.75 135.992188 L 119.75 141.167969 C 119.75 141.167969 127.054688 138.503906 131.074219 104.570312 Z M 238.105469 175.941406 L 270.082031 170.765625 C 276.78125 159.277344 275.828125 139.34375 275.828125 139.34375 L 249.40625 139.34375 C 245.378906 173.261719 238.105469 175.941406 238.105469 175.941406 Z M 205.832031 139.449219 L 227.261719 135.984375 C 231.753906 128.25 231.09375 114.898438 231.09375 114.898438 L 213.402344 114.898438 C 210.703125 137.625 205.832031 139.449219 205.832031 139.449219 Z M 205.832031 139.449219 " fill-opacity="1" fill-rule="nonzero"/><g clip-path="url(#66c3d1f304)"><path fill="#32292f" d="M 187.953125 74.589844 C 187.867188 74.585938 187.785156 74.558594 187.71875 74.507812 C 187.648438 74.4375 187.605469 74.359375 187.59375 74.261719 L 184.320312 35.011719 C 184.316406 34.914062 184.34375 34.824219 184.40625 34.75 C 184.472656 34.675781 184.550781 34.632812 184.652344 34.625 L 252.332031 28.957031 C 252.433594 28.949219 252.519531 28.980469 252.597656 29.042969 C 252.667969 29.105469 252.710938 29.183594 252.71875 29.28125 L 255.992188 68.539062 C 256 68.636719 255.96875 68.722656 255.90625 68.796875 C 255.839844 68.867188 255.761719 68.910156 255.664062 68.917969 L 187.980469 74.582031 Z M 185.054688 35.304688 L 188.273438 73.84375 L 255.265625 68.265625 L 252.039062 29.714844 Z M 185.054688 35.304688 " fill-opacity="1" fill-rule="nonzero"/></g></svg>